<svg width="19" height="21" viewBox="0 0 19 21" fill="none" xmlns="http://www.w3.org/2000/svg">
    <g clip-path="url(#clip0_1_1688)">
        <path fill-rule="evenodd" clip-rule="evenodd" d="M8.03128 19.8105C8.03128 19.5587 8.21834 19.4414 8.46359 19.4414H11.4505C11.9387 19.4414 11.8828 19.7964 11.8828 20.0976H8.03128V19.8105ZM6.45922 11.8945V8.44919H13.4549V11.8945C13.4549 13.8882 11.9094 15.5859 10.1929 15.5859C9.23776 15.5859 8.64799 15.4855 7.87925 14.8832C7.55047 14.6256 7.27529 14.3519 7.05061 13.9843C6.67301 13.3665 6.45921 12.7222 6.45921 11.8945L6.45922 11.8945ZM15.7344 12.0586H14.3588V9.31051H16.7562V10.9921C16.7562 11.5307 16.2111 12.0586 15.7344 12.0586L15.7344 12.0586ZM3.15789 10.9922V9.31052H5.55529V12.0586H4.17974C3.703 12.0586 3.15791 11.5307 3.15791 10.9922L3.15789 10.9922ZM5.55529 8.1621V8.36718H2.84348C2.48168 8.36718 2.25396 8.52629 2.25396 8.90038C2.25396 9.65378 2.16759 11.1234 2.4234 11.7177C2.48285 11.8558 2.53278 11.9739 2.61889 12.0879C2.7042 12.2009 2.77427 12.3011 2.87159 12.3984C2.9429 12.4697 2.94639 12.4653 3.02275 12.5278C3.09213 12.5845 3.1057 12.6075 3.17439 12.6566C3.24995 12.7106 3.45034 12.8142 3.53955 12.8498C4.07788 13.0641 5.07352 13.0019 5.71251 13.0019C5.72675 13.6695 6.46422 14.8782 7.05427 15.3751C7.22305 15.5173 7.38056 15.6684 7.56156 15.7891C7.74774 15.9132 7.94578 16.0153 8.14862 16.1198C8.43388 16.2666 8.84673 16.4067 9.19357 16.4648C9.65539 16.5421 9.52475 16.2219 9.52475 18.5391C8.53646 18.5391 7.94583 18.3779 7.43183 18.9799C7.09043 19.3797 7.12736 19.8529 7.12736 20.3848C7.12736 20.7159 7.25196 21 7.55968 21H12.3545C12.8604 21 12.7868 20.3176 12.7868 19.9336C12.7868 19.1371 12.2427 18.5391 11.6863 18.5391H10.3894V16.6114C10.3894 16.4345 10.5853 16.5109 11.0739 16.3823C11.5155 16.2661 11.9527 16.0469 12.3282 15.8046C12.5194 15.6812 12.67 15.5412 12.8383 15.3936C13.254 15.0288 13.0209 15.2115 13.2879 14.9194C13.6482 14.5252 14.1908 13.508 14.2016 13.002H15.6558C16.7248 13.002 17.6602 12.0273 17.6602 10.9102V8.90041C17.6602 8.52631 17.4325 8.3672 17.0707 8.3672H14.3589C14.3589 7.95691 14.3623 7.50586 13.8086 7.50586H6.10553C5.71422 7.50586 5.5553 7.75112 5.5553 8.16212L5.55529 8.1621Z" fill="#292B7C"/>
        <path fill-rule="evenodd" clip-rule="evenodd" d="M11.0576 5.12673C10.9544 5.10166 10.6431 4.91359 10.539 4.84754C10.0201 4.51825 9.91978 4.50114 9.3993 4.83169C9.28908 4.90168 8.96694 5.09992 8.85666 5.12673C8.85666 4.75183 9.14306 4.00392 8.9444 3.72267C8.74101 3.4347 8.34989 3.22461 8.14922 2.91188C8.40541 2.91188 9.23908 2.81364 9.39994 2.65856C9.54065 2.52291 9.89439 1.70423 9.91779 1.59938H9.9964C10.0368 1.78025 10.1614 1.96813 10.2317 2.13312C10.3174 2.33438 10.344 2.4808 10.4944 2.63823C10.6722 2.82422 11.4924 2.91189 11.765 2.91189C11.5643 3.22462 11.1732 3.43471 10.9698 3.72268C10.7711 4.00393 11.0575 4.75184 11.0575 5.12674L11.0576 5.12673ZM6.69507 2.58376C6.69507 2.91379 7.30567 3.36 7.70691 3.78364C7.81992 3.90297 7.98434 4.05458 8.10992 4.14235C8.02561 5.19981 7.34454 6.48024 8.26714 6.48024C8.40276 6.48024 8.68036 6.30898 8.78565 6.24207L9.74691 5.68547C9.99715 5.54639 10.0019 5.58479 10.2448 5.72871C10.5032 5.8818 11.4807 6.50572 11.7202 6.4976C12.3996 6.47458 12.0293 5.42269 11.9723 5.07446C11.9219 4.76734 11.8261 4.41566 11.8043 4.14235C12.0954 3.93889 12.3093 3.65611 12.5603 3.4138C12.7578 3.2232 13.2191 2.92798 13.2191 2.58374C13.2191 1.79201 11.3793 2.14463 11.0905 1.85203C11.0701 1.8313 10.6645 0.951482 10.6257 0.860551C10.4415 0.428171 10.3541 -0.000244141 9.91779 -0.000244141C9.45425 -0.000244141 9.07596 1.53466 8.84183 1.82997C8.71277 1.99274 7.4031 2.03038 7.02071 2.14427C6.8641 2.19092 6.69507 2.35392 6.69507 2.58374V2.58376Z" fill="#292B7C"/>
        <path fill-rule="evenodd" clip-rule="evenodd" d="M4.21906 5.90626C4.02792 5.85978 3.71131 5.57813 3.51163 5.57813C3.3857 5.57813 2.96487 5.83923 2.84349 5.90626C2.84349 5.35888 3.15535 5.17969 2.5501 4.69486C2.43456 4.6023 2.45192 4.67099 2.41118 4.51173C3.5926 4.51173 3.18245 3.97317 3.55091 3.69141C3.71862 4.44266 4.05677 4.51173 4.65135 4.51173C4.52913 4.70222 4.2819 4.86703 4.1726 5.03802C4.05024 5.22943 4.15828 5.63409 4.21904 5.90627L4.21906 5.90626ZM0.957031 4.1836C0.957031 4.50408 1.18739 4.60697 1.43851 4.87057C1.63025 5.07184 1.79582 5.25869 2.01818 5.41408C1.95955 5.5416 1.78237 6.61974 1.78237 6.84962C1.78237 7.08755 2.05535 7.45855 2.56109 7.12909L3.47234 6.60352C3.89389 6.60352 4.84472 7.72575 5.21873 7.03101C5.34158 6.8028 5.19762 6.35168 5.13958 6.012C4.99811 5.18382 4.9667 5.53028 5.68384 4.80993C5.7664 4.72701 5.81897 4.66806 5.90028 4.58463C6.05215 4.4288 6.1462 4.25319 6.04101 4.00778C5.89318 3.66291 5.20743 3.65794 4.72869 3.61074C4.36553 3.57495 4.40027 3.47792 4.28108 3.17553C4.22034 3.02143 3.93986 2.3924 3.83908 2.28328C3.7597 2.19733 3.69524 2.13281 3.55094 2.13281C3.15476 2.13281 3.10779 2.43082 2.975 2.72121C2.62961 3.47642 2.68095 3.56096 2.40286 3.6007C2.31606 3.6131 2.23992 3.61416 2.15268 3.62672C1.61645 3.70394 0.957031 3.66376 0.957031 4.18361L0.957031 4.1836Z" fill="#292B7C"/>
        <path fill-rule="evenodd" clip-rule="evenodd" d="M15.2628 4.5115C15.8574 4.5115 16.1956 4.44243 16.3633 3.69118C16.7272 3.96942 16.3258 4.5115 17.503 4.5115C17.4539 4.70335 17.4478 4.59043 17.2168 4.82808C16.8075 5.24915 17.0707 5.36469 17.0707 5.90602C16.9493 5.839 16.5285 5.5779 16.4025 5.5779C16.2029 5.5779 15.8863 5.85955 15.6951 5.90602C15.9598 4.72034 15.6643 5.13729 15.2628 4.5115H15.2628ZM15.0663 7.25955C15.3878 7.25955 16.2069 6.60329 16.4026 6.60329L17.3527 7.12931C17.8501 7.44668 18.1318 7.09827 18.1318 6.84939C18.1318 6.61951 17.9547 5.54137 17.896 5.41385L18.7666 4.59973C19.0289 4.3573 19.0133 3.97882 18.7628 3.81195C18.4903 3.63035 17.4776 3.69027 17.311 3.52244C17.2982 3.50955 16.981 2.81245 16.9392 2.72096C16.8064 2.43058 16.7594 2.13257 16.3633 2.13257C15.8646 2.13257 15.6772 3.38072 15.4414 3.54944C15.1343 3.76923 13.7522 3.46246 13.8333 4.24823C13.8584 4.49215 14.176 4.77525 14.3362 4.90433C15.0863 5.50878 14.8541 5.49066 14.6782 6.5266C14.6231 6.85096 14.6386 7.25954 15.0663 7.25954L15.0663 7.25955Z" fill="#292B7C"/>
    </g>
    <defs>
        <clipPath id="clip0_1_1688">
            <rect width="18" height="21" fill="white" transform="translate(0.957031)"/>
        </clipPath>
    </defs>
</svg>
