<svg width="17" height="17" viewBox="0 0 17 17" fill="none" xmlns="http://www.w3.org/2000/svg">
    <path d="M6.62785 3.83333H5.29452C4.94089 3.83333 4.60175 3.97381 4.35171 4.22386C4.10166 4.47391 3.96118 4.81304 3.96118 5.16667V13.1667C3.96118 13.5203 4.10166 13.8594 4.35171 14.1095C4.60175 14.3595 4.94089 14.5 5.29452 14.5H11.9612C12.3148 14.5 12.6539 14.3595 12.904 14.1095C13.154 13.8594 13.2945 13.5203 13.2945 13.1667V5.16667C13.2945 4.81304 13.154 4.47391 12.904 4.22386C12.6539 3.97381 12.3148 3.83333 11.9612 3.83333H10.6278M6.62785 3.83333C6.62785 4.18696 6.76832 4.52609 7.01837 4.77614C7.26842 5.02619 7.60756 5.16667 7.96118 5.16667H9.29452C9.64814 5.16667 9.98728 5.02619 10.2373 4.77614C10.4874 4.52609 10.6278 4.18696 10.6278 3.83333M6.62785 3.83333C6.62785 3.47971 6.76832 3.14057 7.01837 2.89052C7.26842 2.64048 7.60756 2.5 7.96118 2.5H9.29452C9.64814 2.5 9.98728 2.64048 10.2373 2.89052C10.4874 3.14057 10.6278 3.47971 10.6278 3.83333M8.62785 8.5H10.6278M8.62785 11.1667H10.6278M6.62785 8.5H6.63452M6.62785 11.1667H6.63452" stroke="#646E7B" stroke-linecap="round" stroke-linejoin="round"/>
</svg>
