<svg width="185" height="184" viewBox="0 0 185 184" fill="none" xmlns="http://www.w3.org/2000/svg">
    <path d="M184.583 91.9997C184.583 113.633 177.121 133.512 164.647 149.209C147.785 170.396 121.783 183.994 92.5878 183.994C63.409 183.994 37.3904 170.396 20.5449 149.209C8.05418 133.512 0.592041 113.633 0.592041 91.9997C0.592041 70.3811 8.05411 50.5017 20.5449 34.8053C25.9328 28.0063 32.3012 21.9691 39.4041 16.924C54.4253 6.27278 72.7801 0.00561523 92.5877 0.00561523C112.407 0.00561523 130.766 6.27278 145.787 16.924C152.886 21.9837 159.239 28.0063 164.647 34.8053C177.137 50.5017 184.583 70.3811 184.583 91.9997H184.583Z" fill="#D6DCE8"/>
    <path d="M159.618 50.4318V162.047C159.618 168.855 154.11 174.363 147.301 174.363H38.9042C32.0958 174.363 26.5869 168.855 26.5869 162.047V21.9521C26.5869 15.1445 32.0958 9.63647 38.9042 9.63647H116.274C116.916 9.63647 117.545 9.68769 118.163 9.77813C120.544 10.1511 122.784 11.2193 124.588 12.8793L155.627 41.359C157.479 43.058 158.755 45.2712 159.296 47.6777C159.513 48.579 159.618 49.4927 159.618 50.4318H159.618Z" fill="#F9FAFD"/>
    <path d="M46.6729 26.1543H100.074V31.3019H46.6729V26.1543Z" fill="#D6DCE8"/>
    <path d="M46.6729 38.1191H77.1591V43.2672H46.6729V38.1191Z" fill="#D6DCE8"/>
    <path fill-rule="evenodd" clip-rule="evenodd" d="M124.128 47.6779H159.296C158.755 45.2714 157.479 43.0582 155.627 41.3592L124.588 12.8795C122.784 11.2195 120.544 10.1513 118.163 9.77832V41.7159C118.163 45.0087 120.835 47.6779 124.128 47.6779H124.128Z" fill="#EFF4FF"/>
    <path fill-rule="evenodd" clip-rule="evenodd" d="M62.2263 174.363H18.1192C10.8346 174.363 6.31862 166.431 10.0396 160.167L32.0992 123.039C35.7395 116.909 44.6142 116.909 48.2585 123.041L70.3059 160.169C74.0269 166.433 69.5108 174.363 62.2263 174.363V174.363Z" fill="#ABB7C6"/>
    <path d="M43.5694 137.62V152.389C43.5694 153.24 42.8792 153.93 42.0277 153.93H38.3189C37.4673 153.93 36.7771 153.24 36.7771 152.389V137.62C36.7771 136.769 37.4673 136.08 38.3189 136.08H42.0277C42.8792 136.08 43.5694 136.769 43.5694 137.62Z" fill="white"/>
    <path d="M43.5694 159.625V162.713C43.5694 163.563 42.8792 164.253 42.0277 164.253H38.3189C37.4673 164.253 36.7771 163.563 36.7771 162.713V159.625C36.7771 158.774 37.4673 158.085 38.3189 158.085H42.0277C42.8792 158.085 43.5694 158.774 43.5694 159.625Z" fill="white"/>
    <path d="M115.18 91.2666C115.18 91.9785 114.607 92.5609 113.901 92.5609C113.187 92.5609 112.618 91.9785 112.618 91.2666C112.618 90.5511 113.187 89.9688 113.901 89.9688C114.607 89.9688 115.18 90.5512 115.18 91.2666Z" fill="white"/>
    <path fill-rule="evenodd" clip-rule="evenodd" d="M122.284 99.7729C122.284 102.179 120.33 104.131 117.925 104.131C115.52 104.131 113.566 102.179 113.566 99.7729C113.566 97.3667 115.52 95.415 117.925 95.415C120.33 95.415 122.284 97.3667 122.284 99.7729Z" fill="#ABB7C6"/>
    <path d="M125.754 92.808C125.581 92.808 125.403 92.7765 125.233 92.7108L115.745 89.0387C115.007 88.7521 114.64 87.9195 114.926 87.1794C115.213 86.4389 116.044 86.0715 116.786 86.3576L126.271 90.0294C127.013 90.3163 127.38 91.1486 127.094 91.8891C126.872 92.4586 126.327 92.808 125.754 92.808Z" fill="#ABB7C6"/>
    <path d="M116.669 101.539C116.669 102.233 117.23 102.795 117.925 102.795C118.619 102.795 119.18 102.233 119.18 101.539C119.18 100.844 118.619 100.283 117.925 100.283C117.23 100.283 116.669 100.844 116.669 101.539Z" fill="white"/>
    <path d="M80.2909 91.8892C80.0044 91.1487 80.3717 90.3164 81.1143 90.03L90.5984 86.3577C91.3409 86.0716 92.1683 86.4385 92.4589 87.1791C92.7454 87.9196 92.3781 88.7522 91.6355 89.0387L82.1514 92.7109C81.4088 92.997 80.5775 92.6285 80.2909 91.8891V91.8892Z" fill="#ABB7C6"/>
    <path d="M107.415 108.649C107.415 110.169 105.773 111.71 103.731 111.71C101.701 111.71 100.05 110.169 100.05 108.649C100.05 107.119 101.668 107.295 103.698 107.295C105.741 107.295 107.415 107.119 107.415 108.649H107.415Z" fill="#ABB7C6"/>
    <path fill-rule="evenodd" clip-rule="evenodd" d="M85.1018 99.7729C85.1018 102.179 87.0511 104.131 89.4604 104.131C91.8657 104.131 93.8149 102.179 93.8149 99.7729C93.8149 97.3667 91.8657 95.415 89.4604 95.415C87.0511 95.415 85.1018 97.3667 85.1018 99.7729Z" fill="#ABB7C6"/>
    <path d="M90.7152 101.539C90.7152 102.233 90.1542 102.795 89.4601 102.795C88.766 102.795 88.2009 102.233 88.2009 101.539C88.2009 100.844 88.7659 100.283 89.4601 100.283C90.1542 100.283 90.7152 100.844 90.7152 101.539Z" fill="white"/>
    <path d="M5.87915 13.4909C3.45365 13.3863 1.39933 15.3017 1.29447 17.728C1.18953 20.1547 3.07019 22.2069 5.49981 22.3115C7.9253 22.4159 10.0118 20.5349 10.1166 18.1082C10.2175 15.6819 8.30464 13.5953 5.87915 13.4909Z" fill="#D6DCE8"/>
    <path d="M11.4846 4.23063C9.93887 4.16404 8.63123 5.38329 8.56677 6.92773C8.49812 8.47188 9.69685 9.77826 11.2425 9.84479C12.7882 9.91138 14.116 8.71391 14.1805 7.16954C14.2491 5.62503 13.0303 4.29715 11.4846 4.23063Z" fill="#D6DCE8"/>
    <path d="M177.864 173.715C176.318 173.648 175.011 174.868 174.946 176.412C174.878 177.956 176.076 179.263 177.622 179.329C179.168 179.396 180.491 178.198 180.56 176.654C180.625 175.109 179.406 173.782 177.864 173.715H177.864Z" fill="#D6DCE8"/>
    <path d="M176.787 18.0358C174.361 17.9313 172.307 19.8466 172.202 22.2735C172.097 24.6998 173.982 26.7523 176.407 26.8569C178.833 26.9613 180.919 25.0799 181.024 22.6536C181.129 20.2269 179.216 18.1404 176.787 18.0358Z" fill="#D6DCE8"/>
    <path fill-rule="evenodd" clip-rule="evenodd" d="M171.272 159.999C168.136 163.471 162.668 163.868 159.08 160.606L128.558 132.543C127.427 131.523 127.379 129.822 128.364 128.732L136.326 119.925C137.347 118.796 139.051 118.75 140.14 119.735L170.667 147.808C174.158 150.965 174.513 156.433 171.272 159.999L171.272 159.999Z" fill="#ABB7C6"/>
    <path fill-rule="evenodd" clip-rule="evenodd" d="M128.247 120.69C115.615 134.658 94.0476 135.721 80.0676 123.09C66.1118 110.457 65.0262 88.8889 77.6582 74.9311C90.3023 60.9524 111.87 59.8692 125.825 72.502C139.805 85.1529 140.891 106.721 128.247 120.69ZM133.881 63.6151C115.03 46.5692 85.8226 48.0459 68.7634 66.897C51.692 85.7603 53.1408 114.884 72.0324 131.985C103.487 160.459 153.071 134.749 148.894 93.2079C147.792 82.2119 142.711 71.6052 133.881 63.6151Z" fill="#ABB7C6"/>
</svg>
