<svg width="20" height="21" viewBox="0 0 20 21" fill="none" xmlns="http://www.w3.org/2000/svg">
    <path d="M10 0.751953C8.02219 0.751953 6.08879 1.33844 4.4443 2.43726C2.79981 3.53607 1.51809 5.09786 0.761209 6.92512C0.00433284 8.75238 -0.193701 10.763 0.192152 12.7029C0.578004 14.6427 1.53041 16.4245 2.92894 17.823C4.32746 19.2215 6.10929 20.174 8.0491 20.5598C9.98891 20.9457 11.9996 20.7476 13.8268 19.9907C15.6541 19.2339 17.2159 17.9521 18.3147 16.3077C19.4135 14.6632 20 12.7298 20 10.752C20 9.43873 19.7413 8.13837 19.2388 6.92512C18.7363 5.71186 17.9997 4.60947 17.0711 3.68089C16.1425 2.7523 15.0401 2.0157 13.8268 1.51316C12.6136 1.01061 11.3132 0.751953 10 0.751953ZM11 17.752H9V15.752H11V17.752ZM13.07 10.002L12.17 10.922C11.7672 11.2693 11.4516 11.7063 11.2484 12.1978C11.0452 12.6893 10.9601 13.2216 11 13.752H9V13.252C9.0019 12.1913 9.42237 11.1743 10.17 10.422L11.41 9.16195C11.598 8.9786 11.7471 8.75925 11.8485 8.517C11.9499 8.27475 12.0014 8.01456 12 7.75195C12 7.22152 11.7893 6.71281 11.4142 6.33774C11.0391 5.96267 10.5304 5.75195 10 5.75195C9.46957 5.75195 8.96086 5.96267 8.58579 6.33774C8.21072 6.71281 8 7.22152 8 7.75195H6C6 6.69109 6.42143 5.67367 7.17158 4.92353C7.92172 4.17338 8.93914 3.75195 10 3.75195C11.0609 3.75195 12.0783 4.17338 12.8284 4.92353C13.5786 5.67367 14 6.69109 14 7.75195C14.0005 8.59558 13.666 9.40489 13.07 10.002Z" fill="#353F4A"/>
</svg>
