<svg width="13" height="13" viewBox="0 0 13 13" fill="none" xmlns="http://www.w3.org/2000/svg">
    <path d="M8.95643 8.8286L6.83493 10.9501C6.74215 11.043 6.63198 11.1166 6.51071 11.1669C6.38944 11.2172 6.25946 11.243 6.12818 11.243C5.99691 11.243 5.86692 11.2172 5.74565 11.1669C5.62438 11.1166 5.51421 11.043 5.42143 10.9501L3.29943 8.8286C2.74004 8.26918 2.3591 7.55645 2.20478 6.78053C2.05045 6.00461 2.12968 5.20036 2.43243 4.46946C2.73519 3.73857 3.24788 3.11387 3.90567 2.67435C4.56346 2.23483 5.33682 2.00024 6.12793 2.00024C6.91905 2.00024 7.6924 2.23483 8.35019 2.67435C9.00798 3.11387 9.52067 3.73857 9.82343 4.46946C10.1262 5.20036 10.2054 6.00461 10.0511 6.78053C9.89676 7.55645 9.51582 8.26918 8.95643 8.8286V8.8286Z" stroke="#646E7B" stroke-linecap="round" stroke-linejoin="round"/>
    <path d="M7.18859 7.06066C7.46989 6.77936 7.62793 6.39782 7.62793 6C7.62793 5.60218 7.46989 5.22064 7.18859 4.93934C6.90729 4.65804 6.52575 4.5 6.12793 4.5C5.7301 4.5 5.34857 4.65804 5.06727 4.93934C4.78596 5.22064 4.62793 5.60218 4.62793 6C4.62793 6.39782 4.78596 6.77936 5.06727 7.06066C5.34857 7.34196 5.7301 7.5 6.12793 7.5C6.52575 7.5 6.90729 7.34196 7.18859 7.06066Z" stroke="#646E7B" stroke-linecap="round" stroke-linejoin="round"/>
</svg>
