<svg width="13" height="13" viewBox="0 0 13 13" fill="none" xmlns="http://www.w3.org/2000/svg">
    <path d="M9.78651 8.8286L7.66501 10.9501C7.57223 11.043 7.46206 11.1166 7.34079 11.1669C7.21952 11.2172 7.08953 11.243 6.95826 11.243C6.82699 11.243 6.697 11.2172 6.57573 11.1669C6.45446 11.1166 6.34429 11.043 6.25151 10.9501L4.12951 8.8286C3.57012 8.26918 3.18918 7.55645 3.03485 6.78053C2.88053 6.00461 2.95975 5.20036 3.26251 4.46946C3.56527 3.73857 4.07796 3.11387 4.73575 2.67435C5.39354 2.23483 6.16689 2.00024 6.95801 2.00024C7.74913 2.00024 8.52248 2.23483 9.18027 2.67435C9.83806 3.11387 10.3508 3.73857 10.6535 4.46946C10.9563 5.20036 11.0355 6.00461 10.8812 6.78053C10.7268 7.55645 10.3459 8.26918 9.78651 8.8286V8.8286Z" stroke="white" stroke-linecap="round" stroke-linejoin="round"/>
    <path d="M8.01867 7.06066C8.29997 6.77936 8.45801 6.39782 8.45801 6C8.45801 5.60218 8.29997 5.22064 8.01867 4.93934C7.73736 4.65804 7.35583 4.5 6.95801 4.5C6.56018 4.5 6.17865 4.65804 5.89735 4.93934C5.61604 5.22064 5.45801 5.60218 5.45801 6C5.45801 6.39782 5.61604 6.77936 5.89735 7.06066C6.17865 7.34196 6.56018 7.5 6.95801 7.5C7.35583 7.5 7.73736 7.34196 8.01867 7.06066Z" stroke="white" stroke-linecap="round" stroke-linejoin="round"/>
</svg>
