<svg width="25" height="24" viewBox="0 0 25 24" fill="none" xmlns="http://www.w3.org/2000/svg">
    <path d="M13.909 2.92708C13.61 2.00608 12.307 2.00608 12.007 2.92708L10.488 7.60108C10.4226 7.80173 10.2954 7.97654 10.1245 8.10048C9.95371 8.22442 9.74806 8.29113 9.53701 8.29108H4.62301C3.65501 8.29108 3.25101 9.53108 4.03501 10.1011L8.01101 12.9891C8.1818 13.1132 8.30891 13.2883 8.37412 13.4891C8.43933 13.6899 8.43929 13.9063 8.37401 14.1071L6.85601 18.7811C6.55601 19.7021 7.61101 20.4691 8.39401 19.8991L12.37 17.0111C12.5409 16.8869 12.7467 16.8199 12.958 16.8199C13.1693 16.8199 13.3751 16.8869 13.546 17.0111L17.522 19.8991C18.305 20.4691 19.36 19.7031 19.06 18.7811L17.542 14.1071C17.4767 13.9063 17.4767 13.6899 17.5419 13.4891C17.6071 13.2883 17.7342 13.1132 17.905 12.9891L21.881 10.1011C22.664 9.53108 22.262 8.29108 21.293 8.29108H16.378C16.1671 8.29092 15.9617 8.22411 15.7911 8.10018C15.6205 7.97626 15.4934 7.80157 15.428 7.60108L13.909 2.92708Z" stroke="#646E7B" stroke-linecap="round" stroke-linejoin="round"/>
</svg>
