<svg width="49" height="32" viewBox="0 0 49 32" fill="none" xmlns="http://www.w3.org/2000/svg">
    <rect x="0.957031" width="48" height="32" rx="12" fill="#2B1F82" fill-opacity="0.1"/>
    <path d="M24.006 8.92708C24.306 8.00608 25.609 8.00608 25.908 8.92708L26.978 12.2191C27.0434 12.4196 27.1705 12.5943 27.3411 12.7182C27.5117 12.8421 27.7171 12.9089 27.928 12.9091H31.39C32.359 12.9091 32.761 14.1491 31.978 14.7191L29.178 16.7531C29.007 16.8771 28.8797 17.0521 28.8143 17.2529C28.7489 17.4538 28.7488 17.6702 28.814 17.8711L29.884 21.1631C30.184 22.0841 29.129 22.8511 28.344 22.2811L25.544 20.2471C25.3732 20.1231 25.1676 20.0563 24.9565 20.0563C24.7454 20.0563 24.5398 20.1231 24.369 20.2471L21.569 22.2811C20.785 22.8511 19.731 22.0841 20.03 21.1631L21.1 17.8711C21.1652 17.6702 21.1651 17.4538 21.0997 17.2529C21.0343 17.0521 20.907 16.8771 20.736 16.7531L17.937 14.7201C17.154 14.1501 17.557 12.9101 18.525 12.9101H21.986C22.1971 12.9101 22.4027 12.8434 22.5735 12.7195C22.7444 12.5955 22.8716 12.4207 22.937 12.2201L24.007 8.92808L24.006 8.92708Z" fill="#2B1F82"/>
</svg>
