<svg width="37" height="20" viewBox="0 0 37 20" fill="none" xmlns="http://www.w3.org/2000/svg">
    <mask id="path-1-inside-1_68_292" fill="white">
        <path fill-rule="evenodd" clip-rule="evenodd" d="M24.8992 1.33565C24.5562 1.31076 24.2105 1.2906 23.866 1.31107C23.5154 1.3319 23.1456 1.47616 22.8015 1.49894C22.5564 1.51517 20.9428 1.66652 20.564 1.76983C20.3357 1.83209 20.1485 1.84571 20.0076 2.04066C19.8524 2.25533 19.8131 2.25986 19.5871 2.43086C19.0552 2.83317 18.9688 3.64002 19.2823 4.16141C19.6115 4.70886 20.5349 5.0403 21.2051 5.10282L22.9464 5.46602C22.9735 5.63508 22.921 6.03008 22.8645 6.15087C22.6305 6.18076 21.6111 6.06835 21.3972 6.01086L20.0719 5.77559L20.0579 6.02421C19.9075 6.02103 19.6691 5.96451 19.5195 5.92905C19.3474 5.88823 19.1326 5.85928 18.9605 5.8304C18.594 5.76892 18.2774 5.68315 17.9266 5.60177C17.5716 5.51942 17.3164 5.43325 16.8942 5.37261C15.9322 5.23448 14.4862 5.16273 13.6684 5.61794C13.5795 5.66745 13.4343 5.73856 13.3251 5.79119L12.6205 6.20336C12.101 6.53168 9.14326 6.72046 8.33865 6.75441C7.47734 6.79077 7.22715 6.83941 6.58689 7.13213C6.45757 7.19127 6.36398 7.26225 6.25758 7.31618C6.10465 7.3937 6.03438 7.43764 5.91588 7.52244C5.72756 7.65721 5.52647 7.84398 5.35013 8.00854C5.19234 8.1558 4.95092 8.33203 4.76636 8.47798C4.66907 8.55489 4.58483 8.6426 4.48528 8.70456C2.9919 9.6342 1.59559 9.116 0.872111 9.30048C0.92816 9.41225 0.846226 9.36931 1.01664 9.40735C1.31187 9.47323 1.6328 9.50845 1.92149 9.60264C2.46914 9.78139 3.16019 9.84089 3.7576 9.72661C3.83174 9.71242 3.90944 9.7092 3.96574 9.75294C3.70777 9.85136 3.48021 9.9919 3.22476 10.1068C3.12842 10.1501 3.02213 10.1797 2.98623 10.2598C3.30406 10.2703 3.46259 10.2046 3.77339 10.2031C3.71011 10.3521 3.27481 10.3484 2.95237 10.4383C2.66208 10.5191 2.38476 10.5713 2.08759 10.6483C1.9839 10.6751 2.02774 10.6795 1.89089 10.7002L0.457031 11.1176C0.631648 11.1946 0.814198 11.2032 1.01463 11.2161L1.69123 11.2882C2.54263 11.3737 3.59187 11.407 4.45639 11.2951C4.63942 11.2715 4.81166 11.2555 4.99695 11.2107C5.16257 11.1707 5.31756 11.0743 5.49912 11.0596C5.4675 11.1429 5.42044 11.1667 5.34348 11.2187C5.03077 11.4299 4.69145 11.5875 4.33636 11.7314C4.19619 11.7882 3.99733 11.8159 3.85127 11.8881C3.9071 11.9367 3.98936 11.946 4.08248 11.9425C4.33344 11.9331 4.54268 11.8892 4.79305 11.8359C5.06967 11.7771 5.31993 11.5956 5.59254 11.5757C5.55967 11.6756 5.48892 11.7346 5.41715 11.8042C5.30707 11.911 5.31401 11.9056 5.22371 12.0285C5.12817 12.1586 4.95432 12.3576 4.95845 12.5587C5.06192 12.4943 5.10104 12.4065 5.18956 12.3122C5.2569 12.2404 5.3988 12.1314 5.46903 12.0792L5.74423 11.8736C5.92195 11.7413 7.2922 10.9558 7.37387 10.9436C7.32013 11.1732 6.85379 11.4547 6.6765 11.6121L6.84681 11.6613C6.85229 11.663 6.8633 11.6652 6.87024 11.6695C6.80377 11.7459 6.6323 11.8312 6.59541 11.8993C6.69438 11.9505 6.69471 11.9101 6.78608 11.8775L7.39153 11.6035C7.93165 11.3725 8.44914 11.1041 8.85373 10.7054C9.45242 10.1153 9.41012 9.89989 9.52832 9.08064C9.55424 8.90092 9.56945 8.74491 9.6274 8.6262C9.86095 8.14775 10.0524 8.06275 10.5304 7.76489C10.6488 7.69106 10.7823 7.62736 10.9125 7.57359C10.9776 7.54672 11.3124 7.43479 11.3679 7.42869C11.3736 7.59791 11.2596 7.77404 11.218 7.93844C11.1644 8.15036 11.1514 8.29487 11.1516 8.53916C11.1517 8.84651 11.1579 8.96022 11.2565 9.24336C11.3937 9.63722 11.5932 9.97795 11.8812 10.2863C12.4759 10.923 13.241 11.5091 14.0271 11.9357C14.1278 11.9904 14.1944 12.0392 14.2911 12.0956C14.4797 12.2055 14.6387 12.3126 14.8222 12.4146C14.9797 12.5021 15.1559 12.644 15.327 12.7551C15.4481 12.8337 15.7344 13.005 15.7264 13.1908C15.7113 13.5366 15.4327 14.0894 15.3044 14.4118C15.2328 14.5918 15.1287 14.9324 15.2352 15.1327C15.3558 15.3595 16.2439 15.4742 16.6035 15.5047L16.5978 15.5212C17.2432 15.6251 16.9584 15.7124 17.1015 15.9223C17.1889 16.0504 17.6268 16.2545 17.7663 16.3476L19.8619 17.8708C19.991 17.982 20.134 18.0785 20.2635 18.1911C20.4535 18.3563 20.6899 18.5155 20.8253 18.7112C20.8815 18.7926 20.8964 18.8643 20.9465 18.9452C21.0463 19.1064 21.1628 19.2006 21.4226 19.1809C21.7456 19.1564 21.6779 19.0416 22.0246 19.2155C22.3275 19.3674 22.2468 19.3569 22.2708 19.6829C22.2883 19.9219 22.4012 20.0067 22.6753 19.9996C23.0902 19.9888 23.6679 19.9398 23.86 19.7111C23.734 19.4852 23.2761 19.1023 23.0485 18.9676C22.9564 18.9131 22.8579 18.8855 22.7823 18.8381C22.4783 18.6473 22.1237 18.3445 21.8155 18.2032C21.504 18.0604 21.5671 17.9956 21.5491 17.6985C21.5411 17.5667 21.4843 17.53 21.4426 17.4294C21.2781 17.0323 21.1987 16.6752 21.0666 16.2473C20.9782 15.9608 20.9802 15.9438 20.7229 15.8167L18.8941 15.2262C18.5686 15.0983 18.524 14.8441 18.3719 14.5851C18.1435 14.1958 17.9791 13.4941 17.9803 13.0481C17.9812 12.7219 18.1289 12.0088 18.3112 11.7736C18.4558 11.7728 19.1961 12.1811 19.4105 12.2778C19.61 12.3677 19.8133 12.4454 20.0093 12.5139L20.5988 12.7711C21.213 13.0229 21.8088 13.2709 22.4905 13.3682L24.2116 13.7267C24.4052 13.749 24.378 13.8036 24.4577 13.9168C24.545 14.0407 24.8281 14.3036 25.0188 14.5755C25.2093 14.8472 25.7559 15.4168 26.011 15.6476C26.2438 15.8583 26.4321 16.0322 26.6114 16.2718C26.6881 16.3743 26.7226 16.4347 26.7176 16.5838C26.6776 16.5987 26.5807 16.6379 26.5402 16.6496L25.73 16.8781C25.4374 16.9625 24.753 17.0171 24.486 16.9259C24.335 16.8743 24.2651 16.8031 24.0855 16.7995C23.8711 16.7952 23.3367 17.0262 23.2127 16.7741C23.1144 16.5899 23.2587 16.4442 23.0176 16.2953C22.8134 16.1691 22.6639 16.1283 22.4369 16.2122C20.8412 16.8013 21.6887 16.8612 22.0123 16.9923C22.2141 17.074 22.335 17.2082 22.5207 17.2703C22.7016 17.3308 22.9702 17.3426 23.172 17.4211C23.3717 17.4988 23.51 17.6107 23.6933 17.7145C24.0969 17.9431 24.6634 17.7131 25.0902 17.6684C25.5899 17.616 26.0608 17.526 26.5905 17.5169C26.7689 17.5138 26.7968 17.5008 26.9473 17.4764C27.2967 17.4197 27.2104 17.3976 27.419 17.1694C27.6317 16.9367 27.8311 16.7714 27.8127 16.4073C27.8052 16.2587 27.6941 15.9083 27.6327 15.7941L27.3787 15.2834C27.2852 15.1065 27.1741 14.9235 27.1033 14.7615C27.0019 14.5296 26.6448 13.9349 26.6666 13.6662C26.8034 13.6584 27.7659 13.8194 27.9136 13.8417C28.3742 13.9113 28.7759 13.9562 29.2435 14.0149C29.3965 14.0341 29.8702 14.0934 30.0057 14.1925L30.041 14.2227C30.1227 14.2881 30.1672 14.3117 30.2282 14.3892C30.3928 14.5986 30.3725 14.6198 30.4162 14.8987L30.4654 15.5756C30.4627 16.2128 30.1587 17.0792 30.1923 17.2056C30.2312 17.3519 30.4855 17.3803 30.3417 17.6698C30.1247 18.1069 29.6677 17.5613 29.6847 18.3612C29.6888 18.5563 29.6778 18.8028 29.7001 18.9912C29.7158 19.1243 29.8247 19.367 29.9097 19.4489C30.043 19.4497 30.0444 19.4307 30.1103 19.3504C30.532 18.8363 30.4826 19.04 30.756 18.3574C30.8825 18.0414 30.9752 17.7735 31.146 17.4857C31.2601 17.2936 31.2984 17.274 31.2931 16.983L31.2611 15.5468C31.2618 14.7769 31.4455 14.2096 31.0263 13.6022C30.9182 13.4455 29.7725 12.9924 29.5064 12.8438C29.4421 12.8078 29.3245 12.7619 29.2524 12.7322C29.094 12.6671 29.1173 12.6711 28.9909 12.5997C28.7822 12.4817 28.789 12.5378 28.4676 12.3302C28.4279 12.0765 28.6488 11.7699 28.7905 11.5633C29.1137 11.0918 29.1751 11.0431 29.3348 10.4887C29.3672 10.3761 29.4416 10.1487 29.4535 10.0589C29.4784 9.87128 29.503 9.77042 29.5281 9.60559C29.5495 9.46424 29.5202 9.25295 29.5682 9.09496C29.6652 8.77584 30.199 8.03461 30.3871 7.71662L31.0192 6.69188C31.0879 6.57462 31.1287 6.44189 31.2226 6.32959C31.5691 6.29604 32.0224 6.31798 32.3821 6.31302C32.5564 6.3106 32.7406 6.29229 32.9224 6.27367C33.1869 6.2466 33.4716 6.26522 33.7201 6.20122C34.0345 6.12021 34.1842 6.13095 34.442 6.2728C34.5729 6.34475 34.7161 6.40466 34.8218 6.47339C35.0601 6.62829 34.9431 6.93772 35.4515 6.7647C35.5533 6.73006 35.6305 6.6459 35.7092 6.62527C35.9155 6.57126 36.1189 6.69611 36.2349 6.36356C36.2759 6.2462 36.2417 6.16023 36.2956 6.04008C36.4421 5.7135 36.5948 5.54388 36.2371 5.28929C36.1454 5.22398 36.0901 5.21093 35.9985 5.13422C35.9291 5.07612 35.849 5.02041 35.7814 4.95993L34.9905 4.19153C34.6869 3.8771 34.0632 3.30392 33.7496 3.06154C33.4203 2.80708 33.131 2.62591 32.7524 2.45793C32.5009 2.34633 32.0878 2.29592 31.8488 2.16134C31.7732 2.11878 31.7168 2.04381 31.627 1.99326C31.4778 1.9093 31.006 1.93932 30.7624 1.87281C30.7025 1.85647 30.6668 1.83584 30.6068 1.81948C30.4721 1.78275 30.4095 1.74424 30.2567 1.73787C30.2661 1.93241 30.3795 1.88653 30.3891 2.08611C30.0525 2.16453 29.5121 2.18617 29.1558 2.08252C29.065 2.05609 28.9214 1.98816 28.8315 1.98095C28.8287 2.13796 28.8391 2.06538 28.9097 2.1327C28.9869 2.20633 29.0439 2.22098 29.1372 2.26026L29.303 2.38212C29.1008 2.44421 28.5436 2.42596 28.4575 2.46954L28.4959 2.51257C28.499 2.51532 28.5057 2.52206 28.5092 2.52495C28.656 2.6448 28.9767 2.62058 29.1522 2.68495C29.106 2.76924 28.9776 2.77692 28.8556 2.77904C28.9011 3.03876 28.8246 2.91777 28.3877 3.00408C28.1892 3.04329 27.8965 3.01451 27.7373 3.13993C27.8212 3.1887 27.9248 3.15938 28.0146 3.19735C27.96 3.2428 27.6283 3.35286 27.3668 3.56595C27.2148 3.68986 27.0287 3.77224 26.8398 3.85992L26.6911 3.91537C26.8925 4.01949 27.2146 3.83339 27.4109 3.82266C27.2704 4.19488 26.5685 4.25513 26.224 4.27153C26.2328 4.48211 26.4378 4.43887 26.4918 4.60102C26.2548 4.69746 25.9153 4.61528 25.9052 4.74824C25.8975 4.84894 26.1054 4.83968 26.2014 4.93772C25.9324 5.02769 25.6995 5.14478 25.3385 5.09219C25.3248 4.95114 25.3648 4.61783 25.3927 4.48245C25.4149 4.37464 25.4436 4.31849 25.4553 4.20273C25.4883 3.87462 25.55 3.59799 25.5394 3.25441C25.5333 3.05969 25.5325 3.00287 25.6563 2.859C25.6826 2.82845 25.7133 2.79577 25.7443 2.76528C26.0874 2.74576 26.2076 3.00086 26.5913 2.95262C26.7411 2.9338 26.796 2.83096 26.876 2.74284C27.0421 2.55983 27.2246 2.65342 27.2554 2.5059C27.2647 2.46122 27.2638 2.44032 27.2636 2.3946C27.2623 2.16547 27.2587 2.03449 27.3965 1.84339L28.1531 1.88129C28.1349 1.7438 28.0512 1.74028 27.9719 1.67215C27.8332 1.55301 27.9128 1.28138 27.8291 1.05336C27.6995 0.700719 27.6132 0.588585 27.3263 0.33859C26.8201 -0.102533 25.9137 -0.113233 25.477 0.310045C24.9463 0.824492 25.1403 0.978253 24.8992 1.33565Z"/>
    </mask>
    <path fill-rule="evenodd" clip-rule="evenodd" d="M24.8992 1.33565C24.5562 1.31076 24.2105 1.2906 23.866 1.31107C23.5154 1.3319 23.1456 1.47616 22.8015 1.49894C22.5564 1.51517 20.9428 1.66652 20.564 1.76983C20.3357 1.83209 20.1485 1.84571 20.0076 2.04066C19.8524 2.25533 19.8131 2.25986 19.5871 2.43086C19.0552 2.83317 18.9688 3.64002 19.2823 4.16141C19.6115 4.70886 20.5349 5.0403 21.2051 5.10282L22.9464 5.46602C22.9735 5.63508 22.921 6.03008 22.8645 6.15087C22.6305 6.18076 21.6111 6.06835 21.3972 6.01086L20.0719 5.77559L20.0579 6.02421C19.9075 6.02103 19.6691 5.96451 19.5195 5.92905C19.3474 5.88823 19.1326 5.85928 18.9605 5.8304C18.594 5.76892 18.2774 5.68315 17.9266 5.60177C17.5716 5.51942 17.3164 5.43325 16.8942 5.37261C15.9322 5.23448 14.4862 5.16273 13.6684 5.61794C13.5795 5.66745 13.4343 5.73856 13.3251 5.79119L12.6205 6.20336C12.101 6.53168 9.14326 6.72046 8.33865 6.75441C7.47734 6.79077 7.22715 6.83941 6.58689 7.13213C6.45757 7.19127 6.36398 7.26225 6.25758 7.31618C6.10465 7.3937 6.03438 7.43764 5.91588 7.52244C5.72756 7.65721 5.52647 7.84398 5.35013 8.00854C5.19234 8.1558 4.95092 8.33203 4.76636 8.47798C4.66907 8.55489 4.58483 8.6426 4.48528 8.70456C2.9919 9.6342 1.59559 9.116 0.872111 9.30048C0.92816 9.41225 0.846226 9.36931 1.01664 9.40735C1.31187 9.47323 1.6328 9.50845 1.92149 9.60264C2.46914 9.78139 3.16019 9.84089 3.7576 9.72661C3.83174 9.71242 3.90944 9.7092 3.96574 9.75294C3.70777 9.85136 3.48021 9.9919 3.22476 10.1068C3.12842 10.1501 3.02213 10.1797 2.98623 10.2598C3.30406 10.2703 3.46259 10.2046 3.77339 10.2031C3.71011 10.3521 3.27481 10.3484 2.95237 10.4383C2.66208 10.5191 2.38476 10.5713 2.08759 10.6483C1.9839 10.6751 2.02774 10.6795 1.89089 10.7002L0.457031 11.1176C0.631648 11.1946 0.814198 11.2032 1.01463 11.2161L1.69123 11.2882C2.54263 11.3737 3.59187 11.407 4.45639 11.2951C4.63942 11.2715 4.81166 11.2555 4.99695 11.2107C5.16257 11.1707 5.31756 11.0743 5.49912 11.0596C5.4675 11.1429 5.42044 11.1667 5.34348 11.2187C5.03077 11.4299 4.69145 11.5875 4.33636 11.7314C4.19619 11.7882 3.99733 11.8159 3.85127 11.8881C3.9071 11.9367 3.98936 11.946 4.08248 11.9425C4.33344 11.9331 4.54268 11.8892 4.79305 11.8359C5.06967 11.7771 5.31993 11.5956 5.59254 11.5757C5.55967 11.6756 5.48892 11.7346 5.41715 11.8042C5.30707 11.911 5.31401 11.9056 5.22371 12.0285C5.12817 12.1586 4.95432 12.3576 4.95845 12.5587C5.06192 12.4943 5.10104 12.4065 5.18956 12.3122C5.2569 12.2404 5.3988 12.1314 5.46903 12.0792L5.74423 11.8736C5.92195 11.7413 7.2922 10.9558 7.37387 10.9436C7.32013 11.1732 6.85379 11.4547 6.6765 11.6121L6.84681 11.6613C6.85229 11.663 6.8633 11.6652 6.87024 11.6695C6.80377 11.7459 6.6323 11.8312 6.59541 11.8993C6.69438 11.9505 6.69471 11.9101 6.78608 11.8775L7.39153 11.6035C7.93165 11.3725 8.44914 11.1041 8.85373 10.7054C9.45242 10.1153 9.41012 9.89989 9.52832 9.08064C9.55424 8.90092 9.56945 8.74491 9.6274 8.6262C9.86095 8.14775 10.0524 8.06275 10.5304 7.76489C10.6488 7.69106 10.7823 7.62736 10.9125 7.57359C10.9776 7.54672 11.3124 7.43479 11.3679 7.42869C11.3736 7.59791 11.2596 7.77404 11.218 7.93844C11.1644 8.15036 11.1514 8.29487 11.1516 8.53916C11.1517 8.84651 11.1579 8.96022 11.2565 9.24336C11.3937 9.63722 11.5932 9.97795 11.8812 10.2863C12.4759 10.923 13.241 11.5091 14.0271 11.9357C14.1278 11.9904 14.1944 12.0392 14.2911 12.0956C14.4797 12.2055 14.6387 12.3126 14.8222 12.4146C14.9797 12.5021 15.1559 12.644 15.327 12.7551C15.4481 12.8337 15.7344 13.005 15.7264 13.1908C15.7113 13.5366 15.4327 14.0894 15.3044 14.4118C15.2328 14.5918 15.1287 14.9324 15.2352 15.1327C15.3558 15.3595 16.2439 15.4742 16.6035 15.5047L16.5978 15.5212C17.2432 15.6251 16.9584 15.7124 17.1015 15.9223C17.1889 16.0504 17.6268 16.2545 17.7663 16.3476L19.8619 17.8708C19.991 17.982 20.134 18.0785 20.2635 18.1911C20.4535 18.3563 20.6899 18.5155 20.8253 18.7112C20.8815 18.7926 20.8964 18.8643 20.9465 18.9452C21.0463 19.1064 21.1628 19.2006 21.4226 19.1809C21.7456 19.1564 21.6779 19.0416 22.0246 19.2155C22.3275 19.3674 22.2468 19.3569 22.2708 19.6829C22.2883 19.9219 22.4012 20.0067 22.6753 19.9996C23.0902 19.9888 23.6679 19.9398 23.86 19.7111C23.734 19.4852 23.2761 19.1023 23.0485 18.9676C22.9564 18.9131 22.8579 18.8855 22.7823 18.8381C22.4783 18.6473 22.1237 18.3445 21.8155 18.2032C21.504 18.0604 21.5671 17.9956 21.5491 17.6985C21.5411 17.5667 21.4843 17.53 21.4426 17.4294C21.2781 17.0323 21.1987 16.6752 21.0666 16.2473C20.9782 15.9608 20.9802 15.9438 20.7229 15.8167L18.8941 15.2262C18.5686 15.0983 18.524 14.8441 18.3719 14.5851C18.1435 14.1958 17.9791 13.4941 17.9803 13.0481C17.9812 12.7219 18.1289 12.0088 18.3112 11.7736C18.4558 11.7728 19.1961 12.1811 19.4105 12.2778C19.61 12.3677 19.8133 12.4454 20.0093 12.5139L20.5988 12.7711C21.213 13.0229 21.8088 13.2709 22.4905 13.3682L24.2116 13.7267C24.4052 13.749 24.378 13.8036 24.4577 13.9168C24.545 14.0407 24.8281 14.3036 25.0188 14.5755C25.2093 14.8472 25.7559 15.4168 26.011 15.6476C26.2438 15.8583 26.4321 16.0322 26.6114 16.2718C26.6881 16.3743 26.7226 16.4347 26.7176 16.5838C26.6776 16.5987 26.5807 16.6379 26.5402 16.6496L25.73 16.8781C25.4374 16.9625 24.753 17.0171 24.486 16.9259C24.335 16.8743 24.2651 16.8031 24.0855 16.7995C23.8711 16.7952 23.3367 17.0262 23.2127 16.7741C23.1144 16.5899 23.2587 16.4442 23.0176 16.2953C22.8134 16.1691 22.6639 16.1283 22.4369 16.2122C20.8412 16.8013 21.6887 16.8612 22.0123 16.9923C22.2141 17.074 22.335 17.2082 22.5207 17.2703C22.7016 17.3308 22.9702 17.3426 23.172 17.4211C23.3717 17.4988 23.51 17.6107 23.6933 17.7145C24.0969 17.9431 24.6634 17.7131 25.0902 17.6684C25.5899 17.616 26.0608 17.526 26.5905 17.5169C26.7689 17.5138 26.7968 17.5008 26.9473 17.4764C27.2967 17.4197 27.2104 17.3976 27.419 17.1694C27.6317 16.9367 27.8311 16.7714 27.8127 16.4073C27.8052 16.2587 27.6941 15.9083 27.6327 15.7941L27.3787 15.2834C27.2852 15.1065 27.1741 14.9235 27.1033 14.7615C27.0019 14.5296 26.6448 13.9349 26.6666 13.6662C26.8034 13.6584 27.7659 13.8194 27.9136 13.8417C28.3742 13.9113 28.7759 13.9562 29.2435 14.0149C29.3965 14.0341 29.8702 14.0934 30.0057 14.1925L30.041 14.2227C30.1227 14.2881 30.1672 14.3117 30.2282 14.3892C30.3928 14.5986 30.3725 14.6198 30.4162 14.8987L30.4654 15.5756C30.4627 16.2128 30.1587 17.0792 30.1923 17.2056C30.2312 17.3519 30.4855 17.3803 30.3417 17.6698C30.1247 18.1069 29.6677 17.5613 29.6847 18.3612C29.6888 18.5563 29.6778 18.8028 29.7001 18.9912C29.7158 19.1243 29.8247 19.367 29.9097 19.4489C30.043 19.4497 30.0444 19.4307 30.1103 19.3504C30.532 18.8363 30.4826 19.04 30.756 18.3574C30.8825 18.0414 30.9752 17.7735 31.146 17.4857C31.2601 17.2936 31.2984 17.274 31.2931 16.983L31.2611 15.5468C31.2618 14.7769 31.4455 14.2096 31.0263 13.6022C30.9182 13.4455 29.7725 12.9924 29.5064 12.8438C29.4421 12.8078 29.3245 12.7619 29.2524 12.7322C29.094 12.6671 29.1173 12.6711 28.9909 12.5997C28.7822 12.4817 28.789 12.5378 28.4676 12.3302C28.4279 12.0765 28.6488 11.7699 28.7905 11.5633C29.1137 11.0918 29.1751 11.0431 29.3348 10.4887C29.3672 10.3761 29.4416 10.1487 29.4535 10.0589C29.4784 9.87128 29.503 9.77042 29.5281 9.60559C29.5495 9.46424 29.5202 9.25295 29.5682 9.09496C29.6652 8.77584 30.199 8.03461 30.3871 7.71662L31.0192 6.69188C31.0879 6.57462 31.1287 6.44189 31.2226 6.32959C31.5691 6.29604 32.0224 6.31798 32.3821 6.31302C32.5564 6.3106 32.7406 6.29229 32.9224 6.27367C33.1869 6.2466 33.4716 6.26522 33.7201 6.20122C34.0345 6.12021 34.1842 6.13095 34.442 6.2728C34.5729 6.34475 34.7161 6.40466 34.8218 6.47339C35.0601 6.62829 34.9431 6.93772 35.4515 6.7647C35.5533 6.73006 35.6305 6.6459 35.7092 6.62527C35.9155 6.57126 36.1189 6.69611 36.2349 6.36356C36.2759 6.2462 36.2417 6.16023 36.2956 6.04008C36.4421 5.7135 36.5948 5.54388 36.2371 5.28929C36.1454 5.22398 36.0901 5.21093 35.9985 5.13422C35.9291 5.07612 35.849 5.02041 35.7814 4.95993L34.9905 4.19153C34.6869 3.8771 34.0632 3.30392 33.7496 3.06154C33.4203 2.80708 33.131 2.62591 32.7524 2.45793C32.5009 2.34633 32.0878 2.29592 31.8488 2.16134C31.7732 2.11878 31.7168 2.04381 31.627 1.99326C31.4778 1.9093 31.006 1.93932 30.7624 1.87281C30.7025 1.85647 30.6668 1.83584 30.6068 1.81948C30.4721 1.78275 30.4095 1.74424 30.2567 1.73787C30.2661 1.93241 30.3795 1.88653 30.3891 2.08611C30.0525 2.16453 29.5121 2.18617 29.1558 2.08252C29.065 2.05609 28.9214 1.98816 28.8315 1.98095C28.8287 2.13796 28.8391 2.06538 28.9097 2.1327C28.9869 2.20633 29.0439 2.22098 29.1372 2.26026L29.303 2.38212C29.1008 2.44421 28.5436 2.42596 28.4575 2.46954L28.4959 2.51257C28.499 2.51532 28.5057 2.52206 28.5092 2.52495C28.656 2.6448 28.9767 2.62058 29.1522 2.68495C29.106 2.76924 28.9776 2.77692 28.8556 2.77904C28.9011 3.03876 28.8246 2.91777 28.3877 3.00408C28.1892 3.04329 27.8965 3.01451 27.7373 3.13993C27.8212 3.1887 27.9248 3.15938 28.0146 3.19735C27.96 3.2428 27.6283 3.35286 27.3668 3.56595C27.2148 3.68986 27.0287 3.77224 26.8398 3.85992L26.6911 3.91537C26.8925 4.01949 27.2146 3.83339 27.4109 3.82266C27.2704 4.19488 26.5685 4.25513 26.224 4.27153C26.2328 4.48211 26.4378 4.43887 26.4918 4.60102C26.2548 4.69746 25.9153 4.61528 25.9052 4.74824C25.8975 4.84894 26.1054 4.83968 26.2014 4.93772C25.9324 5.02769 25.6995 5.14478 25.3385 5.09219C25.3248 4.95114 25.3648 4.61783 25.3927 4.48245C25.4149 4.37464 25.4436 4.31849 25.4553 4.20273C25.4883 3.87462 25.55 3.59799 25.5394 3.25441C25.5333 3.05969 25.5325 3.00287 25.6563 2.859C25.6826 2.82845 25.7133 2.79577 25.7443 2.76528C26.0874 2.74576 26.2076 3.00086 26.5913 2.95262C26.7411 2.9338 26.796 2.83096 26.876 2.74284C27.0421 2.55983 27.2246 2.65342 27.2554 2.5059C27.2647 2.46122 27.2638 2.44032 27.2636 2.3946C27.2623 2.16547 27.2587 2.03449 27.3965 1.84339L28.1531 1.88129C28.1349 1.7438 28.0512 1.74028 27.9719 1.67215C27.8332 1.55301 27.9128 1.28138 27.8291 1.05336C27.6995 0.700719 27.6132 0.588585 27.3263 0.33859C26.8201 -0.102533 25.9137 -0.113233 25.477 0.310045C24.9463 0.824492 25.1403 0.978253 24.8992 1.33565Z" stroke="#646E7B" stroke-width="2" mask="url(#path-1-inside-1_68_292)"/>
</svg>
