<svg width="49" height="32" viewBox="0 0 49 32" fill="none" xmlns="http://www.w3.org/2000/svg">
    <rect x="0.458008" width="48" height="32" rx="12" fill="#2B1F82" fill-opacity="0.1"/>
    <rect x="0.458008" width="48" height="32" rx="12" fill="url(#paint0_linear_68_331)"/>
    <path fill-rule="evenodd" clip-rule="evenodd" d="M30.9002 7.33565C30.5572 7.31076 30.2115 7.2906 29.867 7.31107C29.5164 7.3319 29.1466 7.47616 28.8025 7.49894C28.5574 7.51517 26.9438 7.66652 26.565 7.76983C26.3367 7.83209 26.1495 7.84571 26.0086 8.04066C25.8534 8.25533 25.8141 8.25986 25.588 8.43086C25.0561 8.83317 24.9697 9.64002 25.2833 10.1614C25.6125 10.7089 26.5359 11.0403 27.206 11.1028L28.9474 11.466C28.9745 11.6351 28.9219 12.0301 28.8655 12.1509C28.6315 12.1808 27.6121 12.0684 27.3982 12.0109L26.0729 11.7756L26.0589 12.0242C25.9085 12.021 25.6701 11.9645 25.5205 11.9291C25.3483 11.8882 25.1336 11.8593 24.9615 11.8304C24.595 11.7689 24.2783 11.6831 23.9276 11.6018C23.5725 11.5194 23.3174 11.4333 22.8951 11.3726C21.9332 11.2345 20.4872 11.1627 19.6694 11.6179C19.5804 11.6674 19.4353 11.7386 19.326 11.7912L18.6215 12.2034C18.102 12.5317 15.1442 12.7205 14.3396 12.7544C13.4783 12.7908 13.2281 12.8394 12.5879 13.1321C12.4586 13.1913 12.365 13.2622 12.2586 13.3162C12.1056 13.3937 12.0354 13.4376 11.9169 13.5224C11.7285 13.6572 11.5274 13.844 11.3511 14.0085C11.1933 14.1558 10.9519 14.332 10.7673 14.478C10.67 14.5549 10.5858 14.6426 10.4863 14.7046C8.99287 15.6342 7.59656 15.116 6.87309 15.3005C6.92914 15.4122 6.8472 15.3693 7.01761 15.4073C7.31285 15.4732 7.63378 15.5084 7.92247 15.6026C8.47012 15.7814 9.16116 15.8409 9.75858 15.7266C9.83272 15.7124 9.91041 15.7092 9.96672 15.7529C9.70874 15.8514 9.48119 15.9919 9.22573 16.1068C9.12939 16.1501 9.02311 16.1797 8.98721 16.2598C9.30503 16.2703 9.46356 16.2046 9.77437 16.2031C9.71108 16.3521 9.27578 16.3484 8.95335 16.4383C8.66305 16.5191 8.38574 16.5713 8.08857 16.6483C7.98488 16.6751 8.02872 16.6795 7.89187 16.7002L6.45801 17.1176C6.63262 17.1946 6.81517 17.2032 7.0156 17.2161L7.69221 17.2882C8.54361 17.3737 9.59284 17.407 10.4574 17.2951C10.6404 17.2715 10.8126 17.2555 10.9979 17.2107C11.1636 17.1707 11.3185 17.0743 11.5001 17.0596C11.4685 17.1429 11.4214 17.1667 11.3445 17.2187C11.0317 17.4299 10.6924 17.5875 10.3373 17.7314C10.1972 17.7882 9.99831 17.8159 9.85225 17.8881C9.90807 17.9367 9.99034 17.946 10.0835 17.9425C10.3344 17.9331 10.5437 17.8892 10.794 17.8359C11.0706 17.7771 11.3209 17.5956 11.5935 17.5757C11.5606 17.6756 11.4899 17.7346 11.4181 17.8042C11.308 17.911 11.315 17.9056 11.2247 18.0285C11.1291 18.1586 10.9553 18.3576 10.9594 18.5587C11.0629 18.4943 11.102 18.4065 11.1905 18.3122C11.2579 18.2404 11.3998 18.1314 11.47 18.0792L11.7452 17.8736C11.9229 17.7413 13.2932 16.9558 13.3748 16.9436C13.3211 17.1732 12.8548 17.4547 12.6775 17.6121L12.8478 17.6613C12.8533 17.663 12.8643 17.6652 12.8712 17.6695C12.8047 17.7459 12.6333 17.8312 12.5964 17.8993C12.6954 17.9505 12.6957 17.9101 12.7871 17.8775L13.3925 17.6035C13.9326 17.3725 14.4501 17.1041 14.8547 16.7054C15.4534 16.1153 15.4111 15.8999 15.5293 15.0806C15.5552 14.9009 15.5704 14.7449 15.6284 14.6262C15.8619 14.1477 16.0534 14.0627 16.5313 13.7649C16.6498 13.6911 16.7832 13.6274 16.9135 13.5736C16.9786 13.5467 17.3134 13.4348 17.3689 13.4287C17.3746 13.5979 17.2605 13.774 17.219 13.9384C17.1654 14.1504 17.1524 14.2949 17.1525 14.5392C17.1527 14.8465 17.1588 14.9602 17.2575 15.2434C17.3947 15.6372 17.5941 15.9779 17.8822 16.2863C18.4768 16.923 19.242 17.5091 20.0281 17.9357C20.1288 17.9904 20.1954 18.0392 20.2921 18.0956C20.4807 18.2055 20.6396 18.3126 20.8232 18.4146C20.9807 18.5021 21.1569 18.644 21.328 18.7551C21.4491 18.8337 21.7354 19.005 21.7273 19.1908C21.7123 19.5366 21.4337 20.0894 21.3054 20.4118C21.2338 20.5918 21.1297 20.9324 21.2362 21.1327C21.3568 21.3595 22.2449 21.4742 22.6045 21.5047L22.5987 21.5212C23.2442 21.6251 22.9594 21.7124 23.1025 21.9223C23.1899 22.0504 23.6278 22.2545 23.7672 22.3476L25.8629 23.8708C25.992 23.982 26.135 24.0785 26.2644 24.1911C26.4545 24.3563 26.6909 24.5155 26.8263 24.7112C26.8825 24.7926 26.8974 24.8643 26.9475 24.9452C27.0473 25.1064 27.1638 25.2006 27.4236 25.1809C27.7466 25.1564 27.6789 25.0416 28.0256 25.2155C28.3285 25.3674 28.2478 25.3569 28.2717 25.6829C28.2892 25.9219 28.4021 26.0067 28.6762 25.9996C29.0911 25.9888 29.6689 25.9398 29.861 25.7111C29.735 25.4852 29.2771 25.1023 29.0494 24.9676C28.9573 24.9131 28.8588 24.8855 28.7833 24.8381C28.4793 24.6473 28.1246 24.3445 27.8164 24.2032C27.5049 24.0604 27.5681 23.9956 27.5501 23.6985C27.542 23.5667 27.4852 23.53 27.4435 23.4294C27.2791 23.0323 27.1996 22.6752 27.0676 22.2473C26.9791 21.9608 26.9812 21.9438 26.7239 21.8167L24.8951 21.2262C24.5695 21.0983 24.525 20.8441 24.3729 20.5851C24.1445 20.1958 23.9801 19.4941 23.9813 19.0481C23.9821 18.7219 24.1299 18.0088 24.3122 17.7736C24.4568 17.7728 25.1971 18.1811 25.4114 18.2778C25.611 18.3677 25.8143 18.4454 26.0103 18.5139L26.5998 18.7711C27.214 19.0229 27.8097 19.2709 28.4915 19.3682L30.2126 19.7267C30.4061 19.749 30.379 19.8036 30.4586 19.9168C30.546 20.0407 30.829 20.3036 31.0198 20.5755C31.2103 20.8472 31.7569 21.4168 32.0119 21.6476C32.2448 21.8583 32.433 22.0322 32.6124 22.2718C32.6891 22.3743 32.7236 22.4347 32.7186 22.5838C32.6786 22.5987 32.5817 22.6379 32.5411 22.6496L31.731 22.8781C31.4384 22.9625 30.754 23.0171 30.4869 22.9259C30.3359 22.8743 30.266 22.8031 30.0865 22.7995C29.8721 22.7952 29.3377 23.0262 29.2137 22.7741C29.1153 22.5899 29.2597 22.4442 29.0186 22.2953C28.8144 22.1691 28.6649 22.1283 28.4378 22.2122C26.8422 22.8013 27.6896 22.8612 28.0132 22.9923C28.2151 23.074 28.336 23.2082 28.5216 23.2703C28.7025 23.3308 28.9712 23.3426 29.173 23.4211C29.3727 23.4988 29.5109 23.6107 29.6943 23.7145C30.0979 23.9431 30.6644 23.7131 31.0912 23.6684C31.5908 23.616 32.0618 23.526 32.5914 23.5169C32.7698 23.5138 32.7978 23.5008 32.9482 23.4764C33.2976 23.4197 33.2114 23.3976 33.42 23.1694C33.6326 22.9367 33.8321 22.7714 33.8137 22.4073C33.8062 22.2587 33.695 21.9083 33.6337 21.7941L33.3797 21.2834C33.2861 21.1065 33.1751 20.9235 33.1043 20.7615C33.0029 20.5296 32.6458 19.9349 32.6676 19.6662C32.8044 19.6584 33.7669 19.8194 33.9146 19.8417C34.3752 19.9113 34.7769 19.9562 35.2445 20.0149C35.3975 20.0341 35.8711 20.0934 36.0067 20.1925L36.042 20.2227C36.1236 20.2881 36.1682 20.3117 36.2291 20.3892C36.3938 20.5986 36.3735 20.6198 36.4172 20.8987L36.4664 21.5756C36.4637 22.2128 36.1597 23.0792 36.1933 23.2056C36.2322 23.3519 36.4865 23.3803 36.3427 23.6698C36.1257 24.1069 35.6687 23.5613 35.6856 24.3612C35.6898 24.5563 35.6788 24.8028 35.7011 24.9912C35.7168 25.1243 35.8257 25.367 35.9107 25.4489C36.044 25.4497 36.0454 25.4307 36.1113 25.3504C36.533 24.8363 36.4835 25.04 36.7569 24.3574C36.8835 24.0414 36.9761 23.7735 37.147 23.4857C37.261 23.2936 37.2993 23.274 37.2941 22.983L37.262 21.5468C37.2628 20.7769 37.4465 20.2096 37.0273 19.6022C36.9192 19.4455 35.7735 18.9924 35.5074 18.8438C35.443 18.8078 35.3255 18.7619 35.2534 18.7322C35.095 18.6671 35.1183 18.6711 34.9919 18.5997C34.7832 18.4817 34.79 18.5378 34.4686 18.3302C34.4289 18.0765 34.6498 17.7699 34.7914 17.5633C35.1146 17.0918 35.1761 17.0431 35.3357 16.4887C35.3682 16.3761 35.4426 16.1487 35.4545 16.0589C35.4794 15.8713 35.504 15.7704 35.529 15.6056C35.5505 15.4642 35.5211 15.253 35.5691 15.095C35.6661 14.7758 36.1999 14.0346 36.3881 13.7166L37.0202 12.6919C37.0888 12.5746 37.1297 12.4419 37.2235 12.3296C37.5701 12.296 38.0234 12.318 38.3831 12.313C38.5574 12.3106 38.7416 12.2923 38.9234 12.2737C39.1879 12.2466 39.4726 12.2652 39.721 12.2012C40.0354 12.1202 40.1851 12.1309 40.443 12.2728C40.5739 12.3447 40.7171 12.4047 40.8228 12.4734C41.061 12.6283 40.944 12.9377 41.4524 12.7647C41.5543 12.7301 41.6315 12.6459 41.7102 12.6253C41.9165 12.5713 42.1199 12.6961 42.2359 12.3636C42.2769 12.2462 42.2427 12.1602 42.2966 12.0401C42.4431 11.7135 42.5958 11.5439 42.2381 11.2893C42.1463 11.224 42.0911 11.2109 41.9995 11.1342C41.9301 11.0761 41.85 11.0204 41.7824 10.9599L40.9915 10.1915C40.6878 9.8771 40.0642 9.30392 39.7505 9.06154C39.4213 8.80708 39.132 8.62591 38.7534 8.45793C38.5019 8.34633 38.0888 8.29592 37.8498 8.16134C37.7741 8.11878 37.7177 8.04381 37.628 7.99326C37.4788 7.9093 37.007 7.93932 36.7633 7.87281C36.7035 7.85647 36.6678 7.83584 36.6077 7.81948C36.4731 7.78275 36.4105 7.74424 36.2576 7.73787C36.2671 7.93241 36.3805 7.88653 36.3901 8.08611C36.0535 8.16453 35.5131 8.18617 35.1568 8.08252C35.066 8.05609 34.9224 7.98816 34.8324 7.98095C34.8297 8.13796 34.84 8.06538 34.9106 8.1327C34.9879 8.20633 35.0449 8.22098 35.1382 8.26026L35.304 8.38212C35.1017 8.44421 34.5445 8.42596 34.4585 8.46954L34.4969 8.51257C34.4999 8.51532 34.5067 8.52206 34.5102 8.52495C34.657 8.6448 34.9777 8.62058 35.1531 8.68495C35.107 8.76924 34.9786 8.77692 34.8565 8.77904C34.902 9.03876 34.8256 8.91777 34.3887 9.00408C34.1902 9.04329 33.8975 9.01451 33.7383 9.13993C33.8222 9.1887 33.9258 9.15938 34.0156 9.19735C33.961 9.2428 33.6293 9.35286 33.3678 9.56595C33.2158 9.68986 33.0296 9.77224 32.8408 9.85992L32.6921 9.91537C32.8934 10.0195 33.2156 9.83339 33.4118 9.82266C33.2713 10.1949 32.5694 10.2551 32.225 10.2715C32.2337 10.4821 32.4388 10.4389 32.4928 10.601C32.2557 10.6975 31.9163 10.6153 31.9061 10.7482C31.8985 10.8489 32.1064 10.8397 32.2024 10.9377C31.9334 11.0277 31.7004 11.1448 31.3395 11.0922C31.3258 10.9511 31.3657 10.6178 31.3937 10.4824C31.4159 10.3746 31.4446 10.3185 31.4563 10.2027C31.4893 9.87462 31.551 9.59799 31.5403 9.25441C31.5343 9.05969 31.5335 9.00287 31.6573 8.859C31.6836 8.82845 31.7143 8.79577 31.7453 8.76528C32.0883 8.74576 32.2085 9.00086 32.5923 8.95262C32.7421 8.9338 32.797 8.83096 32.877 8.74284C33.0431 8.55983 33.2255 8.65342 33.2563 8.5059C33.2657 8.46122 33.2648 8.44032 33.2645 8.3946C33.2633 8.16547 33.2597 8.03449 33.3975 7.84339L34.1541 7.88129C34.1358 7.7438 34.0522 7.74028 33.9729 7.67215C33.8342 7.55301 33.9138 7.28138 33.83 7.05336C33.7005 6.70072 33.6141 6.58858 33.3272 6.33859C32.821 5.89747 31.9147 5.88677 31.478 6.31004C30.9473 6.82449 31.1413 6.97825 30.9002 7.33565Z" fill="#2B1F82"/>
    <defs>
        <linearGradient id="paint0_linear_68_331" x1="48.458" y1="16" x2="0.458008" y2="16" gradientUnits="userSpaceOnUse">
            <stop stop-color="#FFFF65"/>
            <stop offset="1" stop-color="#41DBFF"/>
        </linearGradient>
    </defs>
</svg>
