<svg width="25" height="24" viewBox="0 0 25 24" fill="none" xmlns="http://www.w3.org/2000/svg">
    <path d="M16.2734 19.5373L12.9134 17.0965M16.2734 19.5373C17.2154 20.2213 18.4814 19.3009 18.1214 18.1957L12.9134 17.0965M16.2734 19.5373L16.5672 19.1328L16.5672 19.1327M16.2734 19.5373L16.5672 19.1327M12.9134 17.0965C12.7084 16.9477 12.4616 16.8676 12.2084 16.8676C11.9551 16.8676 11.7083 16.9477 11.5034 17.0965H12.9134ZM16.5672 19.1327L13.2072 16.692L13.2071 16.6919C12.9168 16.4811 12.5672 16.3676 12.2084 16.3676C11.8496 16.3676 11.5 16.4811 11.2096 16.6919L11.2095 16.692L7.84952 19.1328L7.84935 19.1329C7.30135 19.5313 6.56267 18.9958 6.77209 18.3503M16.5672 19.1327C17.1182 19.5328 17.8555 18.9939 17.646 18.3506L17.6459 18.3503L16.3619 14.3999L16.3618 14.3996C16.251 14.058 16.2512 13.6902 16.3623 13.3487C16.4735 13.0073 16.6899 12.7098 16.9806 12.499M6.77209 18.3503L16.8378 13.5035C16.9162 13.2625 17.069 13.0525 17.2742 12.9037M6.77209 18.3503C6.77211 18.3502 6.77213 18.3501 6.77214 18.3501L8.05609 14.3999L8.05618 14.3996C8.16698 14.058 8.16678 13.6902 8.05561 13.3487C7.94448 13.0074 7.72814 12.71 7.43761 12.4991C7.43754 12.4991 7.43746 12.499 7.43738 12.499L4.07925 10.0599C4.07918 10.0598 4.07912 10.0598 4.07905 10.0597C3.5303 9.65999 3.81419 8.79209 4.49058 8.79209H8.64365C8.64369 8.79209 8.64373 8.79209 8.64378 8.79209C9.00251 8.79216 9.35208 8.67874 9.64244 8.46807C9.93283 8.25737 10.1491 7.9602 10.2603 7.61909L10.2605 7.61865L11.5445 3.66825L11.5595 3.62196C11.7969 3.02202 12.6707 3.03872 12.8746 3.66689L12.8747 3.66705L14.1587 7.61745L14.1588 7.61789C14.2699 7.95872 14.486 8.2557 14.776 8.46637C15.0661 8.67704 15.4153 8.79063 15.7738 8.79089H15.7742H19.9286C20.6054 8.79089 20.8893 9.65819 20.3403 10.0584L6.77209 18.3503ZM16.9806 12.499L16.9803 12.4992L17.2742 12.9037M16.9806 12.499L17.2742 12.9037M16.9806 12.499L20.3399 10.0587L20.6342 10.4629L17.2742 12.9037M7.58058 14.2453C7.65879 14.0042 7.65865 13.7445 7.58018 13.5035C7.50171 13.2625 7.34894 13.0525 7.14378 12.9037L3.78498 10.4641C2.84538 9.78009 3.32898 8.29209 4.49058 8.29209L7.58058 14.2453Z" fill="#FFFF66" stroke="#FFFF66"/>
</svg>
