<svg width="25" height="25" viewBox="0 0 25 25" fill="none" xmlns="http://www.w3.org/2000/svg">
    <path d="M13.908 3.23958C13.609 2.31858 12.306 2.31858 12.006 3.23958L10.487 7.91358C10.4216 8.11423 10.2944 8.28904 10.1236 8.41298C9.95274 8.53692 9.74708 8.60363 9.53604 8.60358H4.62204C3.65404 8.60358 3.25004 9.84358 4.03404 10.4136L8.01004 13.3016C8.18083 13.4257 8.30794 13.6008 8.37314 13.8016C8.43835 14.0024 8.43831 14.2188 8.37303 14.4196L6.85503 19.0936C6.55503 20.0146 7.61003 20.7816 8.39303 20.2116L12.369 17.3236C12.5399 17.1994 12.7458 17.1324 12.957 17.1324C13.1683 17.1324 13.3741 17.1994 13.545 17.3236L17.521 20.2116C18.304 20.7816 19.359 20.0156 19.059 19.0936L17.541 14.4196C17.4758 14.2188 17.4757 14.0024 17.5409 13.8016C17.6061 13.6008 17.7332 13.4257 17.904 13.3016L21.88 10.4136C22.663 9.84358 22.261 8.60358 21.292 8.60358H16.377C16.1662 8.60342 15.9607 8.53661 15.7901 8.41268C15.6195 8.28876 15.4924 8.11407 15.427 7.91358L13.908 3.23958Z" stroke="#292B7C" stroke-linecap="round" stroke-linejoin="round"/>
</svg>
