<svg width="25" height="24" viewBox="0 0 25 24" fill="none" xmlns="http://www.w3.org/2000/svg">
    <path d="M15.457 5V7M15.457 11V13M15.457 17V19M5.45703 5C4.9266 5 4.41789 5.21071 4.04282 5.58579C3.66774 5.96086 3.45703 6.46957 3.45703 7V10C3.98746 10 4.49617 10.2107 4.87124 10.5858C5.24632 10.9609 5.45703 11.4696 5.45703 12C5.45703 12.5304 5.24632 13.0391 4.87124 13.4142C4.49617 13.7893 3.98746 14 3.45703 14V17C3.45703 17.5304 3.66774 18.0391 4.04282 18.4142C4.41789 18.7893 4.9266 19 5.45703 19H19.457C19.9875 19 20.4962 18.7893 20.8712 18.4142C21.2463 18.0391 21.457 17.5304 21.457 17V14C20.9266 14 20.4179 13.7893 20.0428 13.4142C19.6677 13.0391 19.457 12.5304 19.457 12C19.457 11.4696 19.6677 10.9609 20.0428 10.5858C20.4179 10.2107 20.9266 10 21.457 10V7C21.457 6.46957 21.2463 5.96086 20.8712 5.58579C20.4962 5.21071 19.9875 5 19.457 5H5.45703Z" stroke="#646E7B" stroke-linecap="round" stroke-linejoin="round"/>
</svg>
