<svg width="49" height="32" viewBox="0 0 49 32" fill="none" xmlns="http://www.w3.org/2000/svg">
    <rect x="0.458008" width="48" height="32" rx="12" fill="#2B1F82" fill-opacity="0.1"/>
    <path d="M16.458 12C16.458 11.4696 16.6687 10.9609 17.0438 10.5858C17.4189 10.2107 17.9276 10 18.458 10H30.458C30.9884 10 31.4971 10.2107 31.8722 10.5858C32.2473 10.9609 32.458 11.4696 32.458 12V14C31.9276 14 31.4189 14.2107 31.0438 14.5858C30.6687 14.9609 30.458 15.4696 30.458 16C30.458 16.5304 30.6687 17.0391 31.0438 17.4142C31.4189 17.7893 31.9276 18 32.458 18V20C32.458 20.5304 32.2473 21.0391 31.8722 21.4142C31.4971 21.7893 30.9884 22 30.458 22H18.458C17.9276 22 17.4189 21.7893 17.0438 21.4142C16.6687 21.0391 16.458 20.5304 16.458 20V18C16.9884 18 17.4971 17.7893 17.8722 17.4142C18.2473 17.0391 18.458 16.5304 18.458 16C18.458 15.4696 18.2473 14.9609 17.8722 14.5858C17.4971 14.2107 16.9884 14 16.458 14V12Z" fill="#2B1F82"/>
</svg>
