<svg width="13" height="13" viewBox="0 0 13 13" fill="none" xmlns="http://www.w3.org/2000/svg">
    <g clip-path="url(#clip0_1_465)">
        <path fill-rule="evenodd" clip-rule="evenodd" d="M5.5734 10.943H8.34262V11.4046H5.5734V10.943ZM4.18877 5.28919V1.25074H9.72724V5.28919C9.72724 5.77469 9.63775 6.13641 9.50099 6.47641C9.35741 6.83344 9.0646 7.25467 8.75877 7.4938C7.87656 8.18361 6.88767 8.3996 5.80448 7.91386C5.19508 7.64059 4.66429 7.09619 4.41502 6.47641C4.27829 6.13639 4.18877 5.77469 4.18877 5.28919ZM1.88109 3.4719V2.17383H3.26571V5.31804C3.00904 5.31233 2.6585 5.06484 2.47115 4.90106L2.28074 4.68761C2.04368 4.39175 1.88109 3.9963 1.88109 3.47187V3.4719ZM10.6503 5.31806V2.17385H12.0349C12.0349 3.09436 12.155 4.03299 11.6481 4.67165C11.5115 4.84379 11.4162 4.94213 11.2335 5.06474C11.1026 5.15261 10.8444 5.31376 10.6503 5.31809V5.31806ZM3.26571 0.73154V1.25077H1.36186C1.18173 1.25077 0.958009 1.47447 0.958009 1.65462V3.73153C0.958009 4.74688 1.62179 5.55488 2.41232 6.02721C2.59821 6.13828 3.10403 6.32767 3.38109 6.32767C3.42298 6.83125 4.03462 7.83496 4.47723 8.17384C4.55278 8.23167 4.58361 8.27368 4.66208 8.33514C5.12989 8.7016 5.93043 9.0969 6.49645 9.0969V10.02H5.05414C4.87401 10.02 4.65029 10.2437 4.65029 10.4238V11.9238C4.65029 12.104 4.87399 12.3277 5.05414 12.3277H8.86182C9.04195 12.3277 9.26568 12.104 9.26568 11.9238V10.4238C9.26568 10.2437 9.04198 10.02 8.86182 10.02H7.41951V9.06805C7.74 9.06805 8.27038 8.87417 8.55417 8.73153C8.72485 8.64575 8.86462 8.57866 9.01819 8.4744L9.43184 8.13805C9.51283 8.06619 9.54454 8.06733 9.61656 7.9766C9.82468 7.71441 9.87727 7.71835 10.104 7.33899C10.192 7.19156 10.273 7.03629 10.3526 6.86649C10.3991 6.76715 10.5259 6.40776 10.5349 6.29881C10.6718 6.29574 10.907 6.23196 11.036 6.19412C12.0465 5.89804 12.958 4.79937 12.958 3.70264V1.65457C12.958 1.47444 12.7343 1.25072 12.5541 1.25072H10.6503V0.731491C10.6503 0.551361 10.4266 0.327637 10.2464 0.327637H3.6695C3.48937 0.327637 3.26567 0.551336 3.26567 0.731491L3.26571 0.73154Z" fill="#646E7B"/>
    </g>
    <defs>
        <clipPath id="clip0_1_465">
            <rect width="12" height="12" fill="white" transform="translate(0.958008 0.327637)"/>
        </clipPath>
    </defs>
</svg>
