<svg width="21" height="20" viewBox="0 0 21 20" fill="none" xmlns="http://www.w3.org/2000/svg">
    <path d="M13.458 8.33333L17.2522 6.43667C17.3792 6.3732 17.5203 6.34323 17.6622 6.34962C17.804 6.35601 17.9419 6.39854 18.0627 6.47317C18.1835 6.5478 18.2832 6.65206 18.3524 6.77606C18.4216 6.90006 18.4579 7.03967 18.458 7.18167V12.8183C18.4579 12.9603 18.4216 13.0999 18.3524 13.2239C18.2832 13.3479 18.1835 13.4522 18.0627 13.5268C17.9419 13.6015 17.804 13.644 17.6622 13.6504C17.5203 13.6568 17.3792 13.6268 17.2522 13.5633L13.458 11.6667V8.33333ZM5.12467 15H11.7913C12.2334 15 12.6573 14.8244 12.9699 14.5118C13.2824 14.1993 13.458 13.7754 13.458 13.3333V6.66667C13.458 6.22464 13.2824 5.80072 12.9699 5.48816C12.6573 5.17559 12.2334 5 11.7913 5H5.12467C4.68265 5 4.25872 5.17559 3.94616 5.48816C3.6336 5.80072 3.45801 6.22464 3.45801 6.66667V13.3333C3.45801 13.7754 3.6336 14.1993 3.94616 14.5118C4.25872 14.8244 4.68265 15 5.12467 15Z" stroke="white" stroke-width="1.5" stroke-linecap="round" stroke-linejoin="round"/>
</svg>
