<svg width="47" height="47" viewBox="0 0 47 47" fill="none" xmlns="http://www.w3.org/2000/svg">
    <path d="M15.4452 35.361C15.4452 34.9372 15.3195 34.5228 15.084 34.1704C14.8485 33.818 14.5139 33.5433 14.1223 33.3811C13.7307 33.2189 13.2998 33.1765 12.8841 33.2592C12.4684 33.3419 12.0866 33.546 11.7869 33.8457C11.4871 34.1454 11.283 34.5272 11.2004 34.9429C11.1177 35.3586 11.1601 35.7895 11.3223 36.1811C11.4845 36.5727 11.7592 36.9074 12.1116 37.1429C12.464 37.3783 12.8783 37.504 13.3022 37.504C13.8671 37.493 14.4058 37.2637 14.8053 36.8642C15.2049 36.4646 15.4342 35.9259 15.4452 35.361ZM12.5092 35.361C12.509 35.262 12.5285 35.1639 12.5663 35.0723C12.6042 34.9808 12.6597 34.8976 12.7297 34.8276C12.7998 34.7575 12.8829 34.702 12.9745 34.6641C13.066 34.6263 13.1641 34.6069 13.2632 34.607C13.3622 34.607 13.4602 34.6265 13.5517 34.6644C13.6432 34.7023 13.7263 34.7578 13.7963 34.8279C13.8664 34.8979 13.9219 34.981 13.9598 35.0725C13.9977 35.164 14.0172 35.262 14.0172 35.361C14.0172 35.46 13.9977 35.5581 13.9598 35.6496C13.9219 35.741 13.8664 35.8242 13.7963 35.8942C13.7263 35.9642 13.6432 36.0197 13.5517 36.0576C13.4602 36.0955 13.3622 36.115 13.2632 36.115C13.164 36.1153 13.0658 36.096 12.9742 36.0582C12.8825 36.0204 12.7992 35.9649 12.7291 35.8948C12.6589 35.8248 12.6033 35.7416 12.5654 35.65C12.5275 35.5583 12.509 35.4602 12.5092 35.361Z" fill="white" stroke="white"/>
    <path d="M41.6351 23.02H12.5481C12.1579 23.0272 11.7702 22.9565 11.4076 22.8122C11.045 22.6678 10.7148 22.4527 10.4364 22.1793C10.1579 21.9059 9.93666 21.5798 9.78566 21.2199C9.63465 20.86 9.55688 20.4737 9.55688 20.0835C9.55688 19.6932 9.63465 19.3069 9.78566 18.947C9.93666 18.5872 10.1579 18.261 10.4364 17.9876C10.7148 17.7142 11.045 17.4991 11.4076 17.3547C11.7702 17.2104 12.1579 17.1398 12.5481 17.147H34.3731C35.5198 17.1451 36.6192 16.6889 37.4303 15.8783C38.2415 15.0677 38.6984 13.9687 38.7011 12.822V1.90895C38.7015 1.81508 38.6833 1.72205 38.6475 1.63525C38.6118 1.54844 38.5592 1.46957 38.4928 1.40319C38.4264 1.33681 38.3476 1.28424 38.2608 1.24849C38.174 1.21275 38.0809 1.19456 37.9871 1.19495C37.8952 1.19537 37.8044 1.21442 37.7201 1.25095C37.6358 1.28749 37.5599 1.34074 37.4967 1.40749C37.4336 1.47423 37.3847 1.55309 37.353 1.63929C37.3213 1.72548 37.3073 1.81722 37.3121 1.90895V5.55995C37.3127 5.9459 37.2371 6.32818 37.0896 6.68483C36.9421 7.04148 36.7256 7.36548 36.4525 7.6382C36.1794 7.91092 35.8551 8.12701 35.4982 8.27403C35.1414 8.42106 34.759 8.49614 34.3731 8.49495H8.90107C6.79101 8.49495 4.76737 9.33317 3.27533 10.8252C1.78329 12.3173 0.945068 14.3409 0.945068 16.451C0.945068 18.561 1.78329 20.5847 3.27533 22.0767C4.76737 23.5687 6.79101 24.407 8.90107 24.407H41.6351C42.0253 24.3998 42.413 24.4704 42.7755 24.6147C43.1381 24.7591 43.4683 24.9742 43.7468 25.2476C44.0253 25.521 44.2465 25.8472 44.3975 26.207C44.5485 26.5669 44.6263 26.9532 44.6263 27.3435C44.6263 27.7337 44.5485 28.12 44.3975 28.4799C44.2465 28.8398 44.0253 29.1659 43.7468 29.4393C43.4683 29.7127 43.1381 29.9278 42.7755 30.0722C42.413 30.2165 42.0253 30.2872 41.6351 30.28H27.1111C25.9639 30.28 24.8637 30.7357 24.0525 31.5469C23.2413 32.3581 22.7856 33.4583 22.7856 34.6055C22.7856 35.7526 23.2413 36.8529 24.0525 37.664C24.8637 38.4752 25.9639 38.931 27.1111 38.931H34.3731C34.7633 38.9238 35.151 38.9944 35.5135 39.1387C35.8761 39.2831 36.2063 39.4982 36.4848 39.7716C36.7633 40.045 36.9845 40.3712 37.1355 40.731C37.2865 41.0909 37.3643 41.4772 37.3643 41.8675C37.3643 42.2577 37.2865 42.644 37.1355 43.0039C36.9845 43.3638 36.7633 43.6899 36.4848 43.9633C36.2063 44.2367 35.8761 44.4518 35.5135 44.5962C35.151 44.7405 34.7633 44.8112 34.3731 44.804H14.6111C15.9211 42.86 18.3411 38.733 18.3411 35.32C18.3411 34.6529 18.2097 33.9924 17.9544 33.3761C17.6991 32.7598 17.325 32.1999 16.8533 31.7282C16.3816 31.2565 15.8217 30.8824 15.2054 30.6271C14.5891 30.3718 13.9286 30.2405 13.2616 30.2405C12.5945 30.2405 11.934 30.3718 11.3177 30.6271C10.7015 30.8824 10.1415 31.2565 9.66982 31.7282C9.19814 32.1999 8.82399 32.7598 8.56872 33.3761C8.31345 33.9924 8.18207 34.6529 8.18207 35.32C8.18207 39.883 12.5071 45.677 12.6661 45.92C12.7308 46.0063 12.8147 46.0764 12.9112 46.1247C13.0077 46.1729 13.1142 46.198 13.2221 46.198H34.3331C35.4713 46.1945 36.5623 45.7426 37.3696 44.9402C38.1769 44.1379 38.6354 43.0496 38.6458 41.9115C38.6562 40.7733 38.2176 39.6769 37.4251 38.8599C36.6326 38.0429 35.55 37.5712 34.4121 37.547H27.0721C26.2933 37.547 25.5464 37.2376 24.9956 36.6869C24.4449 36.1362 24.1356 35.3893 24.1356 34.6105C24.1356 33.8316 24.4449 33.0847 24.9956 32.534C25.5464 31.9833 26.2933 31.674 27.0721 31.674H41.6351C42.2086 31.6827 42.7782 31.5772 43.3106 31.3638C43.8431 31.1503 44.3277 30.8331 44.7364 30.4306C45.1451 30.028 45.4697 29.5483 45.6912 29.0191C45.9128 28.49 46.0268 27.9221 46.0268 27.3485C46.0268 26.7748 45.9128 26.2069 45.6912 25.6778C45.4697 25.1487 45.1451 24.6689 44.7364 24.2663C44.3277 23.8638 43.8431 23.5466 43.3106 23.3331C42.7782 23.1197 42.2086 23.0142 41.6351 23.023V23.02ZM2.35007 16.473C2.34796 15.6073 2.51689 14.7498 2.84718 13.9497C3.17746 13.1496 3.66257 12.4226 4.27465 11.8105C4.88673 11.1985 5.61371 10.7133 6.41384 10.3831C7.21396 10.0528 8.07146 9.88384 8.93707 9.88595H34.4131C35.5039 9.89737 36.5566 9.48469 37.3491 8.73495V12.822C37.3499 13.2077 37.2745 13.5899 37.1272 13.9464C36.9799 14.303 36.7637 14.627 36.4909 14.8998C36.2181 15.1726 35.8941 15.3888 35.5376 15.5361C35.181 15.6833 34.7989 15.7587 34.4131 15.758H12.5881C11.4418 15.7606 10.3433 16.2171 9.53275 17.0276C8.72223 17.8382 8.26571 18.9367 8.26307 20.083C8.25165 21.1738 8.66433 22.2265 9.41407 23.019H8.93807C8.07545 23.0221 7.22066 22.8552 6.42261 22.5277C5.62456 22.2002 4.89889 21.7187 4.28711 21.1105C3.67533 20.5023 3.18944 19.7795 2.85724 18.9834C2.52504 18.1874 2.35303 17.3336 2.35107 16.471L2.35007 16.473ZM13.2621 31.71C14.2392 31.7149 15.1748 32.1053 15.8658 32.7962C16.5567 33.4872 16.9471 34.4228 16.9521 35.4C16.9521 38.575 14.4121 42.662 13.2621 44.368C12.1111 42.662 9.61107 38.574 9.61107 35.4C9.60578 34.9172 9.69631 34.4382 9.87744 33.9906C10.0586 33.5431 10.3267 33.136 10.6662 32.7928C11.0058 32.4496 11.4101 32.1771 11.8557 31.9913C12.3012 31.8054 12.7793 31.7098 13.2621 31.71Z" fill="white" stroke="white" stroke-width="0.5"/>
</svg>
