<svg width="11" height="6" viewBox="0 0 11 6" fill="none" xmlns="http://www.w3.org/2000/svg">
    <path d="M2.83815 2.24301H1.39215L1.92715 0.796997H3.37715L2.84715 2.24301H4.29715L4.83215 0.796997H6.27815L5.74315 2.24301H7.18915L7.72415 0.796997H9.17015L8.63515 2.24301H10.0812L9.54615 3.69299H8.09515L7.56015 5.13901H6.11515L6.65015 3.69299H5.20015L4.66515 5.13901H3.21915L3.75415 3.69299H2.30815L1.77315 5.13901H0.327148L0.862152 3.69299H2.31215L2.84715 2.24301H2.83815ZM8.63015 2.24301H7.18015L6.64515 3.69299H8.09115L8.62615 2.24301H8.63015ZM5.73015 2.24301H4.28815L3.75415 3.69299H5.20015L5.73815 2.24301H5.73015Z" fill="white"/>
</svg>
