<svg width="33" height="34" viewBox="0 0 33 34" fill="none" xmlns="http://www.w3.org/2000/svg">
    <path d="M32.6481 16.777L26.3551 3.70401C26.2186 3.42357 25.982 3.20444 25.6919 3.08985C25.4019 2.97526 25.0794 2.97354 24.7881 3.08501C24.0394 3.36499 23.2635 3.56608 22.4731 3.68501C20.4198 3.94043 18.3389 3.52921 16.5371 2.51201C14.3843 1.2756 11.9114 0.709804 9.43516 0.887063C6.95889 1.06432 4.59186 1.97657 2.63709 3.50701L2.30709 2.82001C2.28975 2.78009 2.26649 2.743 2.23809 2.71001C2.29046 2.57552 2.31692 2.43234 2.31609 2.28801C2.31588 2.07132 2.25498 1.85902 2.14028 1.67517C2.02559 1.49132 1.8617 1.34328 1.66717 1.24781C1.47264 1.15234 1.25526 1.11326 1.03967 1.13501C0.824071 1.15676 0.618876 1.23846 0.447336 1.37086C0.275796 1.50326 0.144771 1.68106 0.0691075 1.88411C-0.00655574 2.08716 -0.0238314 2.30735 0.0192383 2.51971C0.0623079 2.73208 0.164001 2.92814 0.312793 3.08567C0.461585 3.2432 0.651527 3.35591 0.861093 3.41101C0.872132 3.44085 0.885162 3.46992 0.900093 3.49801L14.9691 32.754C15.0323 32.886 15.1316 32.9973 15.2555 33.0752C15.3794 33.153 15.5228 33.1942 15.6691 33.194C15.7866 33.195 15.9028 33.1683 16.0081 33.116C16.1945 33.0263 16.3378 32.8664 16.4066 32.6713C16.4754 32.4762 16.4641 32.2618 16.3751 32.075L10.0151 18.862C11.7233 17.439 13.8276 16.5756 16.043 16.3886C18.2584 16.2017 20.4776 16.7004 22.4001 17.817C23.8452 18.6408 25.4569 19.1295 27.1161 19.247C27.3641 19.266 27.6071 19.27 27.8541 19.27C29.2676 19.2698 30.668 18.9982 31.9791 18.47C32.1377 18.4062 32.2816 18.3107 32.402 18.1893C32.5224 18.0679 32.6167 17.9232 32.6791 17.764C32.7421 17.6057 32.7718 17.436 32.7663 17.2657C32.7608 17.0953 32.7202 16.928 32.6471 16.774L32.6481 16.777ZM27.6791 17.717L25.6791 13.509C25.7891 13.509 25.8991 13.509 26.0091 13.509C27.0648 13.5078 28.1142 13.3456 29.1211 13.028L31.1001 17.141C30.0054 17.5407 28.8463 17.7349 27.6811 17.714L27.6791 17.717ZM18.1001 14.851L16.1001 10.651C17.7903 10.7951 19.4286 11.307 20.9001 12.151L20.9921 12.202L22.9631 16.341C21.4624 15.514 19.8066 15.006 18.1001 14.851ZM9.06609 6.68301C10.5844 6.15189 12.1963 5.94145 13.8001 6.06501L15.9371 10.541C14.3337 10.4265 12.7239 10.6419 11.2071 11.174L9.06609 6.68301ZM15.7661 3.87401C16.276 4.156 16.8061 4.39967 17.3521 4.60301L18.7221 7.48101C17.2317 6.62841 15.5716 6.11521 13.8601 5.97801L12.2421 2.57801C13.4823 2.80402 14.6746 3.24102 15.7671 3.87001L15.7661 3.87401ZM18.9421 7.70601C20.23 8.39767 21.6506 8.80676 23.1091 8.90601L23.3881 8.92001L25.5281 13.412C23.9577 13.3356 22.4263 12.8964 21.0541 12.129L18.9421 7.70601ZM22.6771 5.23601C23.4951 5.11665 24.2991 4.91564 25.0771 4.63601L26.8771 8.37101C25.7718 8.72435 24.6137 8.88337 23.4541 8.84101L21.7711 5.31801C22.0784 5.30401 22.3808 5.27635 22.6781 5.23501L22.6771 5.23601ZM7.15009 2.87501L8.94209 6.62901C7.56624 7.12229 6.29473 7.86844 5.19309 8.82901L3.32709 4.95101C4.45015 4.01088 5.75001 3.30501 7.15009 2.87501ZM7.43009 13.491C8.5243 12.5295 9.79011 11.7831 11.1611 11.291L13.1231 15.402C11.7475 15.8451 10.461 16.528 9.32309 17.419L7.43009 13.491Z" fill="white"/>
</svg>
