<svg width="191" height="58" viewBox="0 0 191 58" fill="none" xmlns="http://www.w3.org/2000/svg">
    <path fill-rule="evenodd" clip-rule="evenodd" d="M0.852051 57.6159H168.417C174.399 57.6159 178.943 54.0669 180.147 48.4569L190.492 0.231934H22.9261C16.944 0.231934 12.3991 3.78093 11.1961 9.39093L0.852051 57.6159Z" fill="#FF3B63"/>
    <path fill-rule="evenodd" clip-rule="evenodd" d="M26.4132 44.0359C26.3092 44.4213 26.3214 44.8288 26.4484 45.2073C26.5753 45.5857 26.8114 45.9182 27.1268 46.1628C27.4422 46.4075 27.8228 46.5534 28.221 46.5822C28.6191 46.6111 29.0168 46.5216 29.3642 46.3249L34.5443 43.3359C36.3666 42.2545 38.4513 41.6951 40.5702 41.7189H50.3992C51.82 41.7274 53.1974 41.2306 54.2857 40.3173C55.3739 39.404 56.1021 38.1336 56.3402 36.7329L59.6402 17.99C59.7443 17.4113 59.7199 16.8167 59.5687 16.2485C59.4175 15.6803 59.1433 15.1523 58.7653 14.7019C58.3874 14.2514 57.915 13.8896 57.3817 13.6419C56.8484 13.3943 56.2672 13.267 55.6792 13.2689C49.4179 13.2689 43.1543 13.2726 36.8883 13.2799C35.4682 13.2728 34.0918 13.7701 33.0043 14.6833C31.9168 15.5964 31.1888 16.8661 30.9502 18.2659C29.4292 26.8819 27.9412 35.3659 26.4052 44.0379L26.4132 44.0359ZM51.1272 20.7669L51.4433 18.9669C51.5229 18.4994 51.7662 18.0753 52.1296 17.7705C52.493 17.4657 52.953 17.3 53.4273 17.3029H55.7572L55.4412 19.1029C55.3624 19.5713 55.1195 19.9962 54.756 20.3018C54.3925 20.6074 53.9321 20.7737 53.4572 20.7709L51.1272 20.7669ZM42.8742 21.6749C46.7212 21.6749 48.4743 24.5189 47.8313 28.1269L46.4242 36.0339C46.3439 36.501 46.1004 36.9243 45.737 37.2285C45.3737 37.5327 44.9141 37.698 44.4403 37.6949H42.1073L43.6912 28.6189C44.0292 26.6859 43.2212 25.4189 41.1782 25.4189C40.2109 25.3786 39.2636 25.7017 38.5224 26.3246C37.7813 26.9475 37.3 27.8251 37.1732 28.7849L35.6812 37.2179C35.6344 37.5089 35.5222 37.7855 35.353 38.0268C35.1837 38.2681 34.9619 38.4678 34.7042 38.6109L31.0412 40.727L34.8772 18.9709C34.9569 18.5034 35.2002 18.0793 35.5636 17.7745C35.927 17.4697 36.3869 17.304 36.8612 17.3069H39.1912L38.0482 23.8069C38.6379 23.108 39.3793 22.5528 40.216 22.1835C41.0526 21.8142 41.9624 21.6406 42.8762 21.6759L42.8742 21.6749ZM48.1392 37.699L50.6012 23.7769C50.6809 23.3094 50.9242 22.8853 51.2876 22.5805C51.651 22.2757 52.1109 22.11 52.5852 22.1129H54.9132L52.4533 36.0359C52.3736 36.5035 52.1303 36.9276 51.7669 37.2324C51.4034 37.5372 50.9436 37.7029 50.4693 37.6999L48.1392 37.699Z" fill="white"/>
    <path d="M111.705 22.1059H115.365L107.065 37.6919C106.128 39.6801 104.692 41.3925 102.898 42.6629C101.344 43.62 99.5268 44.0623 97.7062 43.9269L98.1763 41.2369C98.2233 40.9532 98.3613 40.6925 98.5695 40.4941C98.7776 40.2957 99.0446 40.1703 99.3303 40.1369C99.915 40.0794 100.478 39.887 100.976 39.5749C101.75 38.9627 102.369 38.1773 102.784 37.2819L102.884 37.1089L99.1553 22.0989H102.212C102.517 22.1042 102.811 22.2107 103.049 22.4017C103.286 22.5927 103.454 22.8574 103.524 23.1539L106.045 32.1119L110.528 22.8009C110.637 22.5835 110.806 22.4019 111.015 22.2778C111.224 22.1537 111.464 22.0923 111.707 22.1009L111.705 22.1059ZM87.4473 34.2969C88.6172 34.3102 89.7544 33.9108 90.6592 33.1689C91.612 32.4268 92.2561 31.358 92.4672 30.1689L92.5673 29.6469C92.689 29.116 92.6786 28.5633 92.537 28.0373C92.3955 27.5113 92.127 27.028 91.7552 26.6299C91.388 26.254 90.9453 25.9601 90.4564 25.7676C89.9674 25.5751 89.4432 25.4883 88.9183 25.5129C87.7323 25.4978 86.581 25.9128 85.6772 26.6809C84.7219 27.4968 84.1007 28.636 83.9323 29.8809C83.7986 30.4295 83.788 31.0009 83.9011 31.5541C84.0141 32.1073 84.2481 32.6287 84.5862 33.0809C84.9352 33.496 85.3766 33.8236 85.875 34.0374C86.3734 34.2512 86.9149 34.3452 87.4562 34.3119L87.4473 34.2969ZM95.0093 22.1059H97.9092L95.3593 36.5869C95.3063 36.8981 95.1446 37.1804 94.9031 37.3836C94.6616 37.5868 94.3559 37.6978 94.0403 37.6969H91.1403L91.3903 36.2859C89.9675 37.5438 88.115 38.2056 86.2172 38.1339C85.1943 38.1991 84.1723 37.9944 83.2534 37.5404C82.3345 37.0864 81.551 36.3989 80.9813 35.5469C80.4136 34.6644 80.0276 33.6775 79.8459 32.644C79.6642 31.6105 79.6906 30.5511 79.9233 29.5279C80.2819 27.3807 81.3397 25.4121 82.9323 23.9279C84.4873 22.4428 86.5653 21.6308 88.7153 21.6679C89.6716 21.6016 90.6275 21.8025 91.4763 22.2482C92.325 22.694 93.033 23.3669 93.5212 24.1919L93.6943 23.2109C93.7474 22.9001 93.9091 22.6183 94.1507 22.4158C94.3923 22.2132 94.698 22.103 95.0132 22.1049L95.0093 22.1059ZM74.1873 29.9319C74.3213 29.3843 74.3336 28.8138 74.2231 28.2609C74.1127 27.708 73.8824 27.1861 73.5483 26.7319C73.2031 26.3172 72.7651 25.9897 72.2698 25.7758C71.7745 25.562 71.2358 25.4678 70.6973 25.5009C69.549 25.4895 68.4317 25.8737 67.5333 26.5889C66.612 27.3086 65.9585 28.3162 65.6772 29.4509L65.5303 30.2449C65.4315 30.7703 65.4572 31.3114 65.6051 31.8251C65.7531 32.3387 66.0192 32.8106 66.3823 33.2029C66.7562 33.5712 67.2022 33.8582 67.6923 34.0459C68.1824 34.2336 68.706 34.3181 69.2302 34.2939C70.4063 34.3043 71.5466 33.8895 72.4412 33.1259C73.3965 32.3101 74.0178 31.1708 74.1863 29.9259L74.1873 29.9319ZM71.8593 21.6689C72.8585 21.6248 73.8523 21.8382 74.7453 22.2886C75.6383 22.739 76.4007 23.4112 76.9592 24.2409C77.5537 25.1031 77.9691 26.0758 78.1805 27.1015C78.392 28.1272 78.3953 29.1849 78.1902 30.2119C77.8915 32.3517 76.8805 34.3284 75.3203 35.8229C74.5674 36.572 73.6717 37.1622 72.6864 37.5585C71.7011 37.9548 70.6461 38.1491 69.5842 38.1299C68.5929 38.2 67.6018 37.9915 66.7227 37.528C65.8436 37.0645 65.1115 36.3645 64.6093 35.5069L63.2723 43.0499C63.2192 43.3607 63.0574 43.6425 62.8158 43.8451C62.5742 44.0476 62.2685 44.1578 61.9532 44.1559H59.0532L62.7463 23.2119C62.7993 22.9008 62.9609 22.6185 63.2024 22.4152C63.4439 22.212 63.7496 22.101 64.0652 22.1019H66.9653L66.6863 23.7019C67.3659 23.0301 68.1747 22.5033 69.0639 22.1533C69.9531 21.8033 70.9041 21.6375 71.8593 21.6659V21.6689Z" fill="white"/>
</svg>
