<svg width="35" height="22" viewBox="0 0 35 22" fill="none" xmlns="http://www.w3.org/2000/svg">
    <path d="M14.1681 17.105C14.1781 17.139 14.1911 17.172 14.2041 17.205C14.1041 17.163 14.0041 17.12 13.9041 17.073C13.8005 17.0225 13.7062 16.9549 13.6251 16.873C13.5475 16.7898 13.4964 16.6854 13.4781 16.573C13.463 16.3404 13.4932 16.1071 13.5671 15.886C13.5871 15.811 13.6111 15.737 13.6341 15.663C13.6463 15.6792 13.6573 15.6963 13.6671 15.714C13.7171 15.814 13.7581 15.914 13.8071 16.006C13.8561 16.098 13.9151 16.214 13.9571 16.324C13.9972 16.431 14.0286 16.541 14.0511 16.653C14.0798 16.7883 14.1162 16.9219 14.1601 17.053C14.1661 17.073 14.1601 17.096 14.1651 17.116L14.1681 17.105ZM20.4571 5.20504C20.4121 5.18704 20.3571 5.16604 20.3451 5.12004C20.6143 5.01568 20.8739 4.88821 21.1211 4.73904L21.1401 4.75604C21.0924 5.02664 21.0723 5.30138 21.0801 5.57604C20.8927 5.41878 20.6809 5.29313 20.4531 5.20404L20.4571 5.20504ZM22.4381 6.39904C22.4241 6.40584 22.4083 6.40795 22.3931 6.40504C22.3785 6.39838 22.3666 6.38714 22.3591 6.37304C22.2037 6.17405 22.0032 6.01498 21.7741 5.90904L21.9311 5.97104C21.7863 5.89851 21.6354 5.83894 21.4801 5.79304C22.0568 5.71536 22.6413 5.71536 23.2181 5.79304C23.3739 5.80175 23.5285 5.82689 23.6791 5.86804C23.2711 6.05871 22.8567 6.23438 22.4361 6.39504L22.4381 6.39904ZM33.9721 7.10604C33.8974 6.99443 33.8079 6.8935 33.7061 6.80604C33.5063 6.62888 33.3163 6.44093 33.1371 6.24304C33.1181 6.22204 33.1011 6.20004 33.0841 6.17804L33.0511 6.13904L33.0231 6.09804L33.0131 6.08504L32.9351 5.97204C32.7801 5.74804 32.6221 5.52404 32.4541 5.30804C32.3541 5.17304 32.2401 5.04404 32.1281 4.91804C32.0441 4.81804 31.9541 4.73104 31.8621 4.64304C31.7701 4.55504 31.6711 4.47304 31.5781 4.38604C31.4653 4.28367 31.3677 4.16583 31.2881 4.03604C31.2102 3.90139 31.1255 3.77088 31.0341 3.64504C30.938 3.52166 30.8272 3.4105 30.7041 3.31404L30.5781 3.21404L30.5731 3.18204C30.5495 3.06491 30.4969 2.95557 30.4201 2.86404C30.3739 2.80853 30.3241 2.75609 30.2711 2.70704C30.1931 2.63304 30.1111 2.56404 30.0291 2.49504C30.0041 2.47404 29.9821 2.45404 29.9561 2.43004C29.9455 2.42132 29.9355 2.41197 29.9261 2.40204C29.9181 2.39453 29.9094 2.38783 29.9001 2.38204L29.8751 2.36504L29.8621 2.35704C29.8621 2.35704 29.8521 2.34904 29.8551 2.35704C29.8651 2.39204 29.8771 2.44704 29.8911 2.48504C29.8911 2.49504 29.8991 2.50504 29.9031 2.51604C29.8581 2.48704 29.8121 2.46104 29.7651 2.43704C29.6547 2.38277 29.5387 2.34085 29.4191 2.31204C29.3481 2.29504 29.2761 2.27504 29.2031 2.26204C29.1297 2.24675 29.055 2.23904 28.9801 2.23904H28.9421H28.9001H28.8601H28.8421L28.8571 2.25204C28.8778 2.27031 28.8999 2.28703 28.9231 2.30204L28.9461 2.31704C28.8521 2.30904 28.7571 2.30404 28.6621 2.30004C28.6031 2.29678 28.5443 2.2901 28.4861 2.28004C28.4311 2.26404 28.3754 2.25102 28.3191 2.24104L28.2291 2.22704C28.1791 2.21304 28.1231 2.19504 28.0851 2.18404C28.0851 2.18404 28.0941 2.19604 28.1031 2.20604L28.0511 2.19704C27.9843 2.18319 27.919 2.1631 27.8561 2.13704C27.7963 2.10397 27.7337 2.07619 27.6691 2.05404C27.6478 2.05061 27.626 2.05277 27.6059 2.06031C27.5857 2.06785 27.5679 2.08051 27.5541 2.09704C27.5267 2.13142 27.5103 2.17323 27.5071 2.21704C27.5099 2.30315 27.5328 2.38742 27.5739 2.46312C27.6151 2.53882 27.6733 2.60385 27.7441 2.65304L27.7541 2.66304C27.6299 2.61749 27.4956 2.60744 27.3661 2.63404C27.2581 2.66135 27.1563 2.70886 27.0661 2.77404C27.0211 2.80504 26.9781 2.83804 26.9371 2.87404L26.8531 2.94704L26.7531 3.03904C26.7201 3.04504 26.6881 3.05204 26.6531 3.06004C26.584 3.07808 26.517 3.10322 26.4531 3.13504C26.4208 3.15054 26.3894 3.16791 26.3591 3.18704C26.3435 3.19616 26.3285 3.20617 26.3141 3.21704C26.2971 3.22847 26.2807 3.24082 26.2651 3.25404C26.311 3.25173 26.3571 3.25173 26.4031 3.25404C26.4456 3.25604 26.488 3.26038 26.5301 3.26704C26.3867 3.26911 26.2455 3.30328 26.1171 3.36704C26.0358 3.40771 25.9612 3.46067 25.8961 3.52404C25.8634 3.55457 25.8336 3.58805 25.8071 3.62404C25.7745 3.66762 25.746 3.71416 25.7221 3.76304C25.7591 3.74704 25.7921 3.73404 25.8221 3.72204C25.8521 3.71004 25.8661 3.70604 25.8891 3.69904C25.9795 3.6715 26.0736 3.65801 26.1681 3.65904H26.1921C26.0451 3.70404 25.9041 3.75904 25.7591 3.80604C25.6402 3.84575 25.5153 3.86403 25.3901 3.86004C25.3665 3.85987 25.3431 3.85719 25.3201 3.85204L25.2351 3.83504C25.2506 3.85968 25.268 3.88308 25.2871 3.90504C25.3025 3.92356 25.3188 3.94125 25.3361 3.95804C25.405 4.02556 25.4848 4.081 25.5721 4.12204L25.6041 4.13504C25.4031 4.10801 25.1987 4.12334 25.0041 4.18004C24.9511 4.19604 24.8971 4.20804 24.8431 4.22204L24.8291 4.22704C24.7583 4.22164 24.6887 4.20649 24.6221 4.18204C24.6121 4.17841 24.6024 4.17406 24.5931 4.16904L24.5721 4.16004L24.5301 4.14304H24.5201L24.5251 4.15204L24.5361 4.17004L24.5631 4.21204C24.5688 4.22079 24.5752 4.22914 24.5821 4.23704L24.5951 4.25304L24.6231 4.28404C24.642 4.30385 24.6624 4.32223 24.6841 4.33904C24.7269 4.37165 24.7736 4.39886 24.8231 4.42004C24.7661 4.43504 24.7101 4.45404 24.6531 4.47004C24.5628 4.49732 24.4709 4.51936 24.3781 4.53604C24.3225 4.54405 24.2662 4.54673 24.2101 4.54404H24.1201L23.9641 4.53904C23.9949 4.57082 24.0283 4.59992 24.0641 4.62604L24.0921 4.64304L24.1111 4.65204L24.1501 4.66804L24.1631 4.67304C24.1091 4.68104 24.0541 4.68804 24.0001 4.69104C23.9361 4.69323 23.8721 4.68887 23.8091 4.67804H23.7811L23.7381 4.67004L23.6381 4.65204C23.6459 4.66609 23.6552 4.67918 23.6661 4.69104C23.6781 4.70504 23.6881 4.71904 23.7021 4.73304C23.7149 4.74719 23.7286 4.76055 23.7431 4.77304L23.7731 4.79604C23.8042 4.81653 23.8378 4.83299 23.8731 4.84504C23.8511 4.84504 23.8291 4.84504 23.8081 4.84504C23.7427 4.84813 23.6775 4.85548 23.6131 4.86704C23.5789 4.87449 23.5455 4.88487 23.5131 4.89804C23.4973 4.90482 23.482 4.9125 23.4671 4.92104C23.4497 4.93052 23.433 4.94121 23.4171 4.95304L23.3871 4.97704L23.3721 4.98904C23.3721 4.98904 23.3801 4.99504 23.3831 4.99904C23.4044 5.0126 23.4268 5.02431 23.4501 5.03404L23.4881 5.04904L23.4511 5.03904C23.4291 5.03304 23.4051 5.03104 23.3841 5.02404C23.3521 5.01267 23.321 4.99896 23.2911 4.98304C23.2806 4.97684 23.2709 4.96946 23.2621 4.96104C23.2541 4.89404 23.2471 4.82704 23.2391 4.76104C23.2341 4.71304 23.2261 4.66104 23.2241 4.61504C23.2241 4.54104 23.2241 4.46804 23.2241 4.39504C23.2274 4.35111 23.2331 4.30738 23.2411 4.26404C23.2549 4.17524 23.2549 4.08484 23.2411 3.99604C23.2398 3.98574 23.2398 3.97534 23.2411 3.96504L23.3211 3.97804C23.3886 3.98786 23.4554 4.00222 23.5211 4.02104C23.5633 4.03323 23.6036 4.05105 23.6411 4.07404C23.697 4.11185 23.7455 4.15965 23.7841 4.21504C23.795 4.23274 23.8071 4.24977 23.8201 4.26604C23.8291 4.2739 23.8399 4.27953 23.8516 4.28248C23.8632 4.28543 23.8753 4.28562 23.8871 4.28304C23.931 4.28306 23.9742 4.2714 24.0121 4.24926C24.0501 4.22712 24.0815 4.19529 24.1031 4.15704C24.1031 4.14904 24.1111 4.14204 24.1151 4.13504C24.1435 4.14292 24.1736 4.14292 24.2021 4.13504C24.2201 4.13504 24.2381 4.12404 24.2561 4.12104C24.2842 4.12042 24.312 4.11466 24.3381 4.10404C24.3542 4.09474 24.368 4.08172 24.3781 4.06604C24.3862 4.05169 24.3907 4.03554 24.3911 4.01904C24.4099 4.02057 24.4288 4.01888 24.4471 4.01404C24.4651 4.01404 24.4821 4.00104 24.4991 3.99604C24.5161 3.99104 24.5541 3.99604 24.5721 3.96704C24.5901 3.93804 24.5911 3.93804 24.5981 3.92404C24.6096 3.90299 24.6131 3.8785 24.6081 3.85504H24.6141C24.6543 3.87515 24.7001 3.88114 24.7441 3.87204C24.7688 3.86536 24.7906 3.85062 24.806 3.83015C24.8214 3.80968 24.8295 3.78465 24.8291 3.75904C24.8291 3.70404 24.8041 3.66404 24.8011 3.62004C24.7982 3.55192 24.8202 3.48507 24.8631 3.43204C24.8888 3.39986 24.9183 3.37098 24.9511 3.34604C25.0096 3.29796 25.0605 3.24132 25.1021 3.17804C25.1136 3.18336 25.1257 3.18739 25.1381 3.19004C25.2161 3.20404 25.2711 3.19004 25.3381 3.20804C25.381 3.21654 25.4244 3.22255 25.4681 3.22604C25.5013 3.2294 25.5348 3.2226 25.5641 3.20653C25.5933 3.19046 25.6171 3.16588 25.6321 3.13604C25.6527 3.10265 25.6689 3.06667 25.6801 3.02904C25.6898 2.99075 25.6899 2.95066 25.6805 2.9123C25.6711 2.87394 25.6524 2.83848 25.6261 2.80904L25.6421 2.74604C25.7043 2.54538 25.7442 2.33846 25.7611 2.12904C25.7836 1.85102 25.6984 1.57499 25.5231 1.35804C25.4469 1.26939 25.3571 1.19343 25.2571 1.13304C25.2618 1.05818 25.2422 0.983798 25.2011 0.921041C25.172 0.878774 25.1358 0.84189 25.0941 0.812041C25.0347 0.767255 24.9666 0.735558 24.8941 0.719041C24.8503 0.707571 24.8053 0.701196 24.7601 0.700041C24.7111 0.697931 24.6627 0.711602 24.6221 0.739041C24.6019 0.753518 24.5856 0.772811 24.5748 0.795166C24.564 0.817521 24.5589 0.842229 24.5601 0.867041C24.5601 0.882041 24.5601 0.897041 24.5601 0.912041C24.5024 0.9088 24.4447 0.9088 24.3871 0.912041C24.2368 0.916995 24.0877 0.940164 23.9431 0.981041C23.647 1.06959 23.3857 1.24777 23.1951 1.49104C23.1521 1.54904 23.1071 1.60404 23.0651 1.66404C23.0506 1.68336 23.0388 1.70456 23.0301 1.72704L23.0121 1.73904C22.9891 1.75921 22.9698 1.78324 22.9551 1.81004C22.9331 1.84646 22.9157 1.88541 22.9031 1.92604C22.8951 1.95004 22.8821 1.97304 22.8741 1.99804C22.8698 2.01071 22.8668 2.02377 22.8651 2.03704C22.8651 2.04704 22.8651 2.04904 22.8651 2.05104C22.8651 2.05304 22.8651 2.05104 22.8581 2.05104L22.8401 2.05804C22.8291 2.05804 22.8191 2.06804 22.8081 2.07304L22.6941 2.03904C22.5831 2.00704 22.4721 1.97704 22.3601 1.95004C22.0841 1.88075 21.8028 1.83525 21.5191 1.81404C21.3272 1.8051 21.1349 1.81178 20.9441 1.83404C20.7442 1.85243 20.547 1.89302 20.3561 1.95504C20.1679 2.02214 19.9847 2.10268 19.8081 2.19604C19.6171 2.29604 19.4281 2.39604 19.2301 2.47104C19.0253 2.53343 18.8249 2.60926 18.6301 2.69804C18.4451 2.79804 18.2851 2.93704 18.1111 3.05004C17.9409 3.16558 17.746 3.23956 17.5421 3.26604C17.4145 3.2707 17.2875 3.28473 17.1621 3.30804C17.0333 3.3505 16.9238 3.43733 16.8531 3.55304C16.785 3.66316 16.7328 3.78233 16.6981 3.90704C16.6621 4.02904 16.6301 4.15104 16.5981 4.27504C16.5811 4.34804 16.5531 4.42004 16.5411 4.49404C16.4644 4.88571 16.5131 5.29157 16.6801 5.65404C16.7492 5.8048 16.847 5.94066 16.9681 6.05404C17.2236 6.25069 17.5171 6.39233 17.8301 6.47004C18.0554 6.53671 18.2807 6.60104 18.5061 6.66304C18.4634 6.68668 18.4193 6.70772 18.3741 6.72604C18.2697 6.7554 18.1639 6.77943 18.0571 6.79804C17.9413 6.82254 17.8234 6.83527 17.7051 6.83604C17.5897 6.83351 17.4751 6.81638 17.3641 6.78504C17.2311 6.74604 17.0991 6.70804 16.9691 6.66104C16.9501 6.65304 16.9371 6.63204 16.9191 6.62304C16.8197 6.5797 16.7225 6.5313 16.6281 6.47804C16.5843 6.44812 16.533 6.43114 16.4801 6.42904C16.4541 6.43112 16.4291 6.43937 16.407 6.45311C16.3849 6.46686 16.3664 6.48569 16.3531 6.50804C16.3399 6.53066 16.3349 6.55717 16.3391 6.58304C16.3436 6.60404 16.3532 6.6236 16.3671 6.64004C16.3401 6.64004 16.3141 6.64004 16.2871 6.64004C16.2601 6.64004 16.2121 6.65004 16.1741 6.64804C16.0961 6.64204 16.0191 6.62704 15.9411 6.62304C15.8631 6.61904 15.7711 6.61704 15.6871 6.60404C15.6031 6.59104 15.5301 6.56404 15.4411 6.54704C15.4119 6.54222 15.3821 6.54375 15.3537 6.55151C15.3252 6.55928 15.2987 6.5731 15.2761 6.59204C15.236 6.63043 15.2061 6.6782 15.1891 6.73104C15.1841 6.74504 15.1651 6.75404 15.1601 6.76904C15.1451 6.81604 15.1331 6.86204 15.1221 6.90904C14.9733 6.88193 14.823 6.8639 14.6721 6.85504C14.2911 6.83104 13.9121 6.84604 13.5361 6.82804C13.284 6.81515 13.0331 6.78541 12.7851 6.73904C12.5219 6.68532 12.2536 6.66084 11.9851 6.66604C11.7162 6.68146 11.4505 6.73258 11.1951 6.81804C10.9225 6.91004 10.6554 7.01755 10.3951 7.14004C10.1322 7.26036 9.87552 7.39387 9.62607 7.54004C9.15501 7.80788 8.73022 8.14994 8.36807 8.55304L8.30307 8.53304C8.11744 8.48484 7.9257 8.46428 7.73407 8.47204C7.60589 8.47978 7.47831 8.49548 7.35207 8.51904C7.08823 8.56391 6.82982 8.6363 6.58107 8.73504C6.31207 8.84104 6.05307 8.97004 5.79307 9.09204C5.54108 9.2137 5.28308 9.32251 5.02007 9.41804C4.70479 9.5378 4.37421 9.61254 4.03807 9.64004C3.98807 9.64004 3.93807 9.64004 3.88807 9.64004C3.62639 9.64334 3.36636 9.59825 3.12107 9.50704C3.02138 9.46501 2.9265 9.41237 2.83807 9.35004C2.81563 9.33619 2.79394 9.32117 2.77307 9.30504L2.70407 9.25104C2.67507 9.22704 2.65407 9.20604 2.63107 9.18504C2.60807 9.16404 2.58307 9.13904 2.56707 9.12604C2.58942 9.18691 2.61547 9.24635 2.64507 9.30404C2.67137 9.35289 2.70181 9.3994 2.73607 9.44304C2.75107 9.46304 2.76907 9.48104 2.78607 9.50004H2.76907C2.76907 9.50004 2.76907 9.50004 2.76907 9.50704L2.77907 9.57104C2.78964 9.60556 2.80337 9.63904 2.82007 9.67104C2.849 9.73988 2.89112 9.80239 2.94407 9.85504C2.96184 9.87113 2.98053 9.88616 3.00007 9.90004C2.96696 9.89493 2.93356 9.89192 2.90007 9.89104C2.76986 9.88943 2.64033 9.91006 2.51707 9.95204C2.43523 9.98076 2.35509 10.0141 2.27707 10.052C2.11149 10.1229 1.95282 10.209 1.80307 10.309C1.64242 10.4197 1.49093 10.5431 1.35007 10.678C1.2115 10.8075 1.08249 10.9469 0.96407 11.095C0.820921 11.2744 0.700663 11.4709 0.60607 11.68C0.59307 11.711 0.57307 11.74 0.55907 11.771L0.55007 11.79L0.53207 11.813H0.53807V11.818L0.47307 11.968L0.57307 11.837H0.57907L0.58907 11.815C0.678421 11.6973 0.778884 11.5885 0.88907 11.49C0.94407 11.442 1.00507 11.402 1.06407 11.359C1.17954 11.2735 1.30313 11.1995 1.43307 11.138C1.50007 11.107 1.56907 11.081 1.63807 11.057C1.58674 11.1184 1.5374 11.1807 1.49007 11.244C1.42207 11.337 1.36107 11.434 1.29007 11.526C1.15366 11.7207 0.998593 11.9015 0.82707 12.066C0.639589 12.2427 0.425257 12.3885 0.19207 12.498C0.14407 12.521 0.0920703 12.541 0.0440703 12.56L-0.00292969 12.578H0.0470703C0.245091 12.5732 0.442549 12.5548 0.63807 12.523C0.938969 12.4728 1.23208 12.3837 1.51007 12.258C1.55107 12.239 1.59607 12.228 1.63607 12.208C1.78342 12.1358 1.92604 12.0543 2.06307 11.964L2.10007 11.955C2.15807 11.938 2.21407 11.917 2.27107 11.897C2.39007 11.859 2.50907 11.82 2.62507 11.771C2.74107 11.722 2.87207 11.659 2.99407 11.601L3.35207 11.435C3.49607 11.369 3.63707 11.294 3.77607 11.218C3.79707 11.207 3.82107 11.202 3.84207 11.191L3.96107 11.127C3.87407 11.227 3.78407 11.334 3.69007 11.433C3.61507 11.512 3.54107 11.592 3.46007 11.664C3.37907 11.736 3.26607 11.826 3.16007 11.901C3.14044 11.9044 3.12106 11.909 3.10207 11.915C3.07308 11.9244 3.04655 11.9402 3.02441 11.9611C3.00227 11.982 2.98507 12.0076 2.97407 12.036L2.95507 12.092L3.00507 12.06C3.07107 12.017 3.13507 11.971 3.19707 11.924C3.26337 11.9149 3.33016 11.9099 3.39707 11.909C3.52107 11.909 3.64407 11.894 3.76707 11.88C4.00804 11.8516 4.24643 11.8045 4.48007 11.739C4.60435 11.7032 4.72654 11.6605 4.84607 11.611V11.62L4.86307 11.613C4.92307 11.604 4.98307 11.596 5.04107 11.582C5.22784 11.5426 5.41162 11.4901 5.59107 11.425C5.76596 11.3634 5.93724 11.292 6.10407 11.211C6.30557 11.112 6.49569 10.9913 6.67107 10.851C6.69707 10.83 6.72707 10.815 6.75307 10.794C6.88807 10.683 7.01007 10.559 7.13407 10.438C7.18507 10.388 7.24207 10.344 7.29607 10.297C7.39607 10.2034 7.50568 10.1206 7.62307 10.05C7.59912 10.1901 7.58642 10.3319 7.58507 10.474C7.57898 10.5756 7.57898 10.6775 7.58507 10.779C7.61487 11.0445 7.69067 11.3026 7.80907 11.542C7.9313 11.7784 8.09295 11.9921 8.28707 12.174C8.44214 12.3274 8.60717 12.4704 8.78107 12.602C9.11805 12.8693 9.495 13.0819 9.89807 13.232C10.1981 13.332 10.5081 13.384 10.8121 13.457C10.9942 13.5768 11.1667 13.7105 11.3281 13.857C11.5256 14.0336 11.6819 14.2514 11.7861 14.495C11.8815 14.7428 11.9437 15.002 11.9711 15.266C12.0074 15.6228 11.9531 15.9829 11.8131 16.313C11.7471 16.49 11.6651 16.658 11.5971 16.838C11.5623 16.929 11.5378 17.0236 11.5241 17.12C11.5089 17.2215 11.5213 17.3251 11.5601 17.42C11.603 17.514 11.6762 17.5908 11.7681 17.638C11.8544 17.682 11.9449 17.7175 12.0381 17.744C12.2191 17.803 12.4011 17.855 12.5831 17.906C13.3814 18.0871 14.1616 18.3405 14.9141 18.663L15.9871 19.191C16.0337 19.2146 16.0842 19.2298 16.1361 19.236C16.1893 19.2391 16.2425 19.2291 16.2911 19.207C16.3381 19.188 16.3831 19.165 16.4271 19.152C16.4696 19.1379 16.5156 19.1379 16.5581 19.152C16.6189 19.1825 16.6676 19.2328 16.6961 19.2945C16.7247 19.3563 16.7313 19.426 16.7151 19.492C16.6988 19.536 16.677 19.5777 16.6501 19.616C16.6137 19.6664 16.5803 19.7188 16.5501 19.773C16.5204 19.8313 16.5047 19.8957 16.5041 19.961C16.5102 20.087 16.5443 20.21 16.6041 20.321C16.7059 20.5468 16.861 20.7445 17.0561 20.897C17.155 20.973 17.2663 21.0311 17.3851 21.069C17.4449 21.088 17.5066 21.1004 17.5691 21.106H17.5931H17.7101C17.7101 21.106 17.7241 21.106 17.7201 21.101L17.7141 21.068L17.7031 21.002C17.6609 20.7849 17.6346 20.565 17.6241 20.344C17.7068 20.4782 17.8055 20.6017 17.9181 20.712C17.9844 20.7727 18.0613 20.8205 18.1451 20.853C18.2286 20.8832 18.3163 20.9001 18.4051 20.903C18.4951 20.908 18.5841 20.903 18.6701 20.911C18.7554 20.9163 18.8395 20.9335 18.9201 20.962C19.0821 21.0252 19.2378 21.1035 19.3851 21.196C19.4642 21.2377 19.529 21.3021 19.5711 21.381C19.5856 21.4201 19.5856 21.463 19.5711 21.502C19.5496 21.5497 19.5404 21.6019 19.5441 21.654C19.556 21.7054 19.5826 21.7521 19.6206 21.7887C19.6586 21.8252 19.7063 21.85 19.7581 21.86C19.8536 21.8786 19.9508 21.8873 20.0481 21.886C20.2351 21.891 20.4221 21.886 20.6081 21.879C20.7021 21.873 20.7931 21.869 20.8901 21.855C20.9405 21.8471 20.9884 21.8276 21.0301 21.798C21.0536 21.7805 21.0711 21.756 21.08 21.728C21.089 21.7001 21.089 21.67 21.0801 21.642C21.0551 21.5866 21.0194 21.5367 20.9751 21.495C20.9381 21.452 20.8981 21.411 20.8591 21.371C20.7801 21.29 20.6971 21.212 20.6101 21.139C20.4373 20.9923 20.2527 20.8602 20.0581 20.744C20.0011 20.709 19.9491 20.664 19.8911 20.631C19.7367 20.5465 19.5771 20.472 19.4131 20.408C19.3741 20.392 19.3261 20.377 19.2951 20.361C19.2641 20.345 19.2641 20.316 19.2631 20.267C19.2518 20.1746 19.2087 20.0891 19.1411 20.025C19.0371 19.9224 18.9232 19.8303 18.8011 19.75C18.5621 19.592 18.3081 19.462 18.0641 19.317C17.7496 19.1363 17.4488 18.9327 17.1641 18.708C17.1031 18.57 17.0461 18.433 16.9751 18.295C16.9507 18.2522 16.9164 18.2159 16.8751 18.189C16.8431 18.1708 16.8097 18.1554 16.7751 18.143C16.7011 17.99 16.6341 17.834 16.5611 17.682C16.4321 17.404 16.2871 17.133 16.1611 16.855C16.1191 16.77 16.0771 16.684 16.0391 16.597C16.0011 16.51 15.9591 16.424 15.9261 16.334C15.8206 16.0658 15.7331 15.7909 15.6641 15.511C15.6258 15.3428 15.5967 15.1725 15.5771 15.001C15.5301 14.655 15.4681 14.313 15.4051 13.968C15.4051 13.954 15.4051 13.939 15.4001 13.924L15.4341 13.944C15.5221 13.994 15.6161 14.033 15.7041 14.083C15.8871 14.183 16.0691 14.295 16.2601 14.383C16.4661 14.483 16.6781 14.57 16.8901 14.657C17.1021 14.744 17.3021 14.826 17.5121 14.9C17.767 14.9902 18.0314 15.051 18.3001 15.081C18.3401 15.081 18.3781 15.104 18.4171 15.108C18.6259 15.1273 18.8358 15.1304 19.0451 15.117C19.1311 15.117 19.2181 15.117 19.3051 15.111C19.4351 15.096 19.5631 15.07 19.6901 15.042C19.6942 15.1052 19.706 15.1677 19.7251 15.228C19.7596 15.3288 19.8156 15.4209 19.8891 15.498C19.9867 15.5939 20.0895 15.6844 20.1971 15.769C20.4123 15.9521 20.6406 16.1192 20.8801 16.269C21.1391 16.432 21.4061 16.578 21.6641 16.74C21.9152 16.8958 22.1542 17.0703 22.3791 17.262C22.6523 17.4884 22.8965 17.7477 23.1061 18.034C23.1371 18.077 23.1511 18.134 23.1801 18.173C23.2152 18.2279 23.2453 18.2858 23.2701 18.346C23.2831 18.394 23.2361 18.433 23.1701 18.452C23.0421 18.483 22.8991 18.506 22.7651 18.532C22.6521 18.552 22.5371 18.559 22.4231 18.578C22.2001 18.614 21.9791 18.67 21.7551 18.693C21.6693 18.7014 21.5828 18.6977 21.4981 18.682C21.4144 18.6613 21.3336 18.6307 21.2571 18.591C21.1992 18.5602 21.1346 18.5441 21.0691 18.5441C21.0035 18.5441 20.9389 18.5602 20.8811 18.591C20.7729 18.5563 20.6798 18.4858 20.6171 18.391C20.5971 18.3581 20.5838 18.3215 20.578 18.2834C20.5721 18.2453 20.5739 18.2065 20.5831 18.169C20.5926 18.1244 20.5963 18.0787 20.5941 18.033C20.5898 17.9851 20.5769 17.9384 20.5561 17.895C20.4623 17.7385 20.3159 17.6205 20.1431 17.562C19.9251 17.4784 19.6952 17.4298 19.4621 17.418C19.3413 17.4078 19.2199 17.4078 19.0991 17.418C19.0366 17.4217 18.9747 17.4314 18.9141 17.447C18.8785 17.4581 18.8473 17.4801 18.8251 17.51C18.8033 17.5416 18.7934 17.5799 18.7971 17.618C18.8289 17.7429 18.8988 17.8547 18.9971 17.938C19.0771 18.0274 19.1587 18.1147 19.2421 18.2C19.4231 18.386 19.6121 18.564 19.8061 18.735C19.9034 18.8204 20.0034 18.9044 20.1061 18.987C20.208 19.065 20.3031 19.1517 20.3901 19.246C20.4303 19.2926 20.4639 19.3444 20.4901 19.4C20.5103 19.4613 20.5382 19.5197 20.5731 19.574C20.5966 19.5982 20.625 19.617 20.6564 19.6294C20.6878 19.6418 20.7214 19.6475 20.7551 19.646C20.8185 19.6523 20.8823 19.6543 20.9461 19.652C21.1977 19.6319 21.4476 19.5945 21.6941 19.54C22.2961 19.4752 22.902 19.4545 23.5071 19.478C23.6038 19.4792 23.6992 19.4555 23.7841 19.409C23.8829 19.3319 23.9573 19.2276 23.9981 19.109L24.1371 18.784L24.2761 18.459C24.3047 18.4037 24.3217 18.3432 24.3261 18.281C24.3231 18.2189 24.3056 18.1583 24.2751 18.104C24.1811 17.932 24.1021 17.754 24.0171 17.579C23.8441 17.2367 23.6899 16.8851 23.5551 16.526C23.4485 16.2503 23.3632 15.9668 23.3001 15.678C23.2911 15.629 23.2831 15.578 23.2771 15.53C23.2931 15.535 23.3091 15.542 23.3251 15.546C23.5328 15.5915 23.7458 15.6083 23.9581 15.596L24.3831 15.584L25.2691 15.575L26.2291 15.555C26.5401 15.555 26.8511 15.555 27.1621 15.555C27.3466 15.5378 27.5327 15.5565 27.7101 15.61C27.873 15.698 28.0008 15.8392 28.0721 16.01C28.093 16.0611 28.1103 16.1136 28.1241 16.167C28.2038 16.4464 28.2097 16.7417 28.1411 17.024C28.1126 17.1409 28.0766 17.2559 28.0331 17.368C27.9931 17.479 27.9491 17.59 27.9031 17.699C27.8571 17.808 27.8031 17.916 27.7671 18.029C27.7352 18.1161 27.7163 18.2074 27.7111 18.3C27.708 18.3923 27.7127 18.4846 27.7251 18.576C27.7418 18.692 27.7518 18.8089 27.7551 18.926L27.6231 19.219C27.5961 19.2865 27.5524 19.3461 27.4961 19.392C27.3581 19.4646 27.2139 19.5245 27.0651 19.571C26.9849 19.6067 26.9158 19.6634 26.8651 19.735C26.8169 19.8077 26.7852 19.8899 26.7721 19.976C26.75 20.142 26.75 20.3101 26.7721 20.476C26.7814 20.6791 26.8375 20.8773 26.9361 21.055C26.9495 21.0828 26.9656 21.1093 26.9841 21.134C27.0104 21.1663 27.0449 21.1909 27.0841 21.205C27.1049 21.211 27.1267 21.2127 27.1482 21.21C27.1697 21.2072 27.1904 21.2001 27.2091 21.189C27.2738 21.1425 27.3291 21.0842 27.3721 21.017C27.4111 20.966 27.4561 20.917 27.4941 20.868C27.5701 20.768 27.6411 20.661 27.7151 20.559C27.7461 20.517 27.7751 20.474 27.8041 20.432L27.8211 20.418C27.8911 20.3556 27.9521 20.2835 28.0021 20.204C28.1148 20.0059 28.215 19.8008 28.3021 19.59C28.3676 19.4527 28.4407 19.3192 28.5211 19.19C28.6081 19.0556 28.6863 18.9157 28.7551 18.771C28.8194 18.6234 28.8644 18.4682 28.8891 18.309C28.9256 17.9646 28.9409 17.6183 28.9351 17.272C28.9502 16.937 28.9988 16.6044 29.0801 16.279C29.1394 16.081 29.1446 15.8707 29.0951 15.67C29.063 15.5731 29.0249 15.4782 28.9811 15.386L28.8571 15.108C28.8331 15.053 28.8151 14.995 28.7901 14.94C28.7619 14.8661 28.7285 14.7942 28.6901 14.725C28.642 14.6575 28.5708 14.6098 28.4901 14.591C28.3381 14.546 28.1901 14.503 28.0381 14.456C27.9141 14.417 27.7921 14.37 27.6691 14.327C27.4271 14.244 27.1841 14.159 26.9481 14.06C26.7661 13.983 26.5851 13.902 26.4081 13.814C26.3034 13.761 26.2031 13.6998 26.1081 13.631C26.2532 13.4068 26.3704 13.1657 26.4571 12.913C26.5199 12.7326 26.5664 12.5468 26.5961 12.358L26.6711 11.934L26.7411 11.51C26.7691 11.341 26.8051 11.173 26.8411 11.005C26.9051 10.685 26.9531 10.363 26.9931 10.04C27.0611 9.87804 27.1351 9.71804 27.2071 9.55804C27.3131 9.32404 27.4131 9.08704 27.5221 8.85304C27.5881 8.70804 27.6551 8.56304 27.7301 8.42304C27.8347 8.2111 27.9516 8.00542 28.0801 7.80704C28.1622 7.6892 28.2556 7.57967 28.3591 7.48004C28.5609 7.27167 28.813 7.11876 29.0911 7.03604C29.1492 7.02113 29.2091 7.01473 29.2691 7.01704C29.3672 7.08536 29.4725 7.14271 29.5831 7.18804C29.6781 7.22904 29.7761 7.25904 29.8731 7.28804L30.3131 7.42704C30.4001 7.45604 30.4851 7.49304 30.5691 7.52704C30.7401 7.60204 30.9101 7.67004 31.0761 7.75704C31.115 7.77794 31.1513 7.80345 31.1841 7.83304C31.1898 7.8378 31.1958 7.84214 31.2021 7.84604C31.1811 7.86604 31.1611 7.88704 31.1421 7.90904C31.1231 7.93104 31.1001 7.95904 31.0801 7.98404L31.0501 8.02304C31.0368 8.0366 31.0283 8.05418 31.0261 8.07304C31.0264 8.0808 31.0287 8.08834 31.033 8.09485C31.0372 8.10137 31.0431 8.10662 31.0501 8.11004C31.0617 8.11543 31.0737 8.11978 31.0861 8.12304C31.109 8.12787 31.1296 8.14061 31.1441 8.15904C31.1592 8.17918 31.1807 8.19363 31.2051 8.20004C31.2298 8.20547 31.2555 8.20513 31.2801 8.19904C31.3361 8.18104 31.3921 8.16604 31.4481 8.15004C31.5467 8.12067 31.6422 8.08148 31.7331 8.03304C31.7962 8.07345 31.8551 8.12001 31.9091 8.17204C31.9841 8.23805 32.0533 8.31031 32.1161 8.38804C32.1533 8.44555 32.209 8.4886 32.2741 8.51004C32.3681 8.53597 32.4641 8.55403 32.5611 8.56404C32.6204 8.57115 32.6806 8.56639 32.7381 8.55004C32.848 8.50065 32.9436 8.42428 33.0161 8.32804C33.023 8.32059 33.0303 8.31357 33.0381 8.30704C33.0611 8.32504 33.0831 8.34404 33.1061 8.36104C33.1614 8.40164 33.2297 8.42051 33.2981 8.41404C33.361 8.40295 33.4214 8.38023 33.4761 8.34704C33.5889 8.294 33.6858 8.21228 33.7571 8.11004C33.7777 8.07575 33.7913 8.03767 33.7971 7.99804C33.8012 7.96015 33.8012 7.92193 33.7971 7.88404C33.7943 7.8493 33.7998 7.81439 33.8132 7.78222C33.8266 7.75004 33.8474 7.72153 33.8741 7.69904C33.9148 7.66101 33.9532 7.62061 33.9891 7.57804C34.0227 7.53267 34.0438 7.47919 34.0501 7.42304C34.0605 7.31129 34.033 7.20028 33.9721 7.10604Z" fill="white"/>
</svg>
