<svg width="22" height="102" viewBox="0 0 22 102" fill="none" xmlns="http://www.w3.org/2000/svg">
    <path fill-rule="evenodd" clip-rule="evenodd" d="M5.50977 90.5909H17.2418L11.3728 0.0549316L5.50977 90.5909Z" fill="#FF3B63"/>
    <path fill-rule="evenodd" clip-rule="evenodd" d="M11.3721 80.005C13.4658 80.005 15.5126 80.6259 17.2534 81.7891C18.9943 82.9523 20.3511 84.6056 21.1523 86.5399C21.9536 88.4743 22.1631 90.6028 21.7546 92.6562C21.3462 94.7097 20.338 96.596 18.8575 98.0764C17.3771 99.5569 15.4909 100.565 13.4374 100.974C11.3839 101.382 9.25538 101.172 7.32104 100.371C5.38671 99.57 3.7334 98.2131 2.57019 96.4723C1.40699 94.7314 0.786133 92.6847 0.786133 90.591C0.786133 87.7834 1.90146 85.0909 3.88672 83.1056C5.87198 81.1203 8.56449 80.005 11.3721 80.005Z" fill="url(#paint0_radial_739_97)"/>
    <path fill-rule="evenodd" clip-rule="evenodd" d="M11.3793 82.8721C12.9056 82.8729 14.3975 83.3262 15.6663 84.1747C16.9351 85.0232 17.9239 86.2289 18.5076 87.6392C19.0913 89.0496 19.2437 90.6013 18.9457 92.0983C18.6476 93.5953 17.9125 94.9704 16.8331 96.0496C15.7537 97.1288 14.3786 97.8638 12.8816 98.1617C11.3846 98.4595 9.83277 98.3069 8.42249 97.723C7.0122 97.1391 5.80673 96.1502 4.95837 94.8813C4.11002 93.6124 3.65684 92.1205 3.65625 90.5941C3.65586 89.5798 3.85542 88.5754 4.24341 87.6383C4.6314 86.7012 5.20024 85.8497 5.91748 85.1326C6.63472 84.4154 7.48629 83.8467 8.42346 83.4588C9.36063 83.0709 10.365 82.8715 11.3793 82.8721Z" fill="url(#paint1_radial_739_97)"/>
    <defs>
        <radialGradient id="paint0_radial_739_97" cx="0" cy="0" r="1" gradientUnits="userSpaceOnUse" gradientTransform="translate(11.3721 90.591) scale(10.586 10.586)">
            <stop stop-color="white"/>
            <stop offset="1" stop-color="#D3D3D3"/>
        </radialGradient>
        <radialGradient id="paint1_radial_739_97" cx="0" cy="0" r="1" gradientUnits="userSpaceOnUse" gradientTransform="translate(11.3753 90.5911) scale(7.71901 7.71901)">
            <stop stop-color="#4656C8"/>
            <stop offset="1" stop-color="#30358E"/>
        </radialGradient>
    </defs>
</svg>
