<svg width="22" height="102" viewBox="0 0 22 102" fill="none" xmlns="http://www.w3.org/2000/svg">
    <path fill-rule="evenodd" clip-rule="evenodd" d="M5.51074 90.5909H17.2428L11.3738 0.0549316L5.51074 90.5909Z" fill="#FF3B63"/>
    <path fill-rule="evenodd" clip-rule="evenodd" d="M11.3716 80.005C13.4653 80.005 15.5121 80.6259 17.2529 81.7891C18.9938 82.9523 20.3506 84.6056 21.1519 86.5399C21.9531 88.4743 22.1626 90.6028 21.7542 92.6562C21.3457 94.7097 20.3375 96.596 18.8571 98.0764C17.3766 99.5569 15.4904 100.565 13.4369 100.974C11.3834 101.382 9.2549 101.172 7.32056 100.371C5.38622 99.57 3.73291 98.2131 2.5697 96.4723C1.4065 94.7314 0.785645 92.6847 0.785645 90.591C0.785645 87.7834 1.90097 85.0909 3.88623 83.1056C5.87149 81.1203 8.564 80.005 11.3716 80.005Z" fill="url(#paint0_radial_740_99)"/>
    <path fill-rule="evenodd" clip-rule="evenodd" d="M11.3788 82.8719C12.9052 82.8727 14.397 83.3261 15.6658 84.1746C16.9346 85.0231 17.9234 86.2287 18.5071 87.6391C19.0908 89.0495 19.2432 90.6012 18.9452 92.0982C18.6471 93.5952 17.912 94.9702 16.8326 96.0495C15.7533 97.1287 14.3781 97.8637 12.8811 98.1616C11.3841 98.4594 9.83228 98.3068 8.422 97.7229C7.01172 97.139 5.80624 96.1501 4.95789 94.8812C4.10953 93.6123 3.65636 92.1203 3.65576 90.594C3.65537 89.5797 3.85493 88.5753 4.24292 87.6382C4.63091 86.7011 5.19975 85.8496 5.91699 85.1324C6.63423 84.4153 7.4858 83.8465 8.42297 83.4587C9.36014 83.0708 10.3645 82.8714 11.3788 82.8719Z" fill="url(#paint1_radial_740_99)"/>
    <defs>
        <radialGradient id="paint0_radial_740_99" cx="0" cy="0" r="1" gradientUnits="userSpaceOnUse" gradientTransform="translate(11.3716 90.591) scale(10.586 10.586)">
            <stop stop-color="white"/>
            <stop offset="1" stop-color="#D3D3D3"/>
        </radialGradient>
        <radialGradient id="paint1_radial_740_99" cx="0" cy="0" r="1" gradientUnits="userSpaceOnUse" gradientTransform="translate(11.3748 90.591) scale(7.71901 7.71901)">
            <stop stop-color="#0899D1"/>
            <stop offset="1" stop-color="#044D69"/>
        </radialGradient>
    </defs>
</svg>
