<svg width="59" height="85" viewBox="0 0 59 85" fill="none" xmlns="http://www.w3.org/2000/svg">
    <path d="M37.4399 9.55092C36.163 8.27483 34.5996 7.32237 32.8799 6.77292C32.8559 6.80592 32.8349 6.84192 32.8089 6.87292C32.6111 7.11343 32.3573 7.3019 32.0699 7.42191L32.1019 7.42992C34.5135 8.06974 36.6177 9.54912 38.0358 11.6019C39.454 13.6547 40.0931 16.1462 39.8381 18.6282C39.5832 21.1102 38.4509 23.4197 36.6451 25.1414C34.8392 26.863 32.4782 27.8837 29.9869 28.0199C29.8019 28.0309 29.615 28.0349 29.428 28.0349C29.241 28.0349 29.063 28.0349 28.879 28.0219C26.3822 27.8928 24.0139 26.8754 22.2015 25.1532C20.3892 23.431 19.2523 21.1176 18.9961 18.6306C18.74 16.1437 19.3814 13.6471 20.8046 11.5917C22.2277 9.53618 24.3389 8.05726 26.7569 7.42191L26.7909 7.41392C26.504 7.29313 26.2507 7.10437 26.053 6.86391C26.027 6.83291 26.0069 6.79692 25.9839 6.76392C23.4609 7.57205 21.3008 9.23895 19.8795 11.4748C18.4582 13.7106 17.8655 16.3738 18.2045 19.0014C18.5434 21.629 19.7926 24.0546 21.7348 25.8565C23.6771 27.6584 26.1894 28.7226 28.8349 28.8639C29.0349 28.8739 29.2326 28.8786 29.428 28.8779C29.628 28.8779 29.8329 28.8779 30.0279 28.8599C32.2143 28.744 34.3203 27.9968 36.0909 26.7089C37.8615 25.421 39.2209 23.6475 40.0046 21.6031C40.7883 19.5587 40.9626 17.3309 40.5066 15.1895C40.0505 13.048 38.9836 11.0846 37.4349 9.53692L37.4399 9.55092Z" fill="white"/>
    <path d="M51.9951 36.056C52.0621 36.0617 52.1296 36.0539 52.1935 36.0329C52.2574 36.0119 52.3165 35.9783 52.3671 35.934C52.4486 35.8424 52.4906 35.7224 52.4841 35.6C52.485 35.5393 52.4748 35.479 52.454 35.422C52.4352 35.3701 52.4048 35.3233 52.3651 35.285C52.3213 35.2453 52.2695 35.2156 52.2131 35.198C52.1425 35.1763 52.0689 35.1662 51.9951 35.168H51.6531V36.057L51.9951 36.056ZM51.9951 34.756C52.1521 34.7526 52.3086 34.7738 52.459 34.819C52.5774 34.8539 52.6869 34.9139 52.78 34.995C52.8624 35.0675 52.9263 35.1587 52.9661 35.261C53.0071 35.3686 53.0274 35.4829 53.0261 35.598C53.028 35.7182 53.0069 35.8377 52.9641 35.95C52.9228 36.0556 52.8574 36.1502 52.7731 36.226C52.6793 36.3074 52.5697 36.3684 52.451 36.405C52.3037 36.4502 52.1501 36.4718 51.996 36.469H51.6541V37.369H51.1141V34.757L51.9951 34.756ZM49.3781 35.888V35.17H48.972C48.8997 35.1675 48.8274 35.177 48.7581 35.198C48.708 35.2129 48.6621 35.2393 48.624 35.275C48.5914 35.3064 48.5674 35.3457 48.5541 35.389C48.5396 35.4332 48.5325 35.4795 48.5331 35.526C48.5326 35.5757 48.5393 35.6252 48.553 35.673C48.5663 35.7166 48.5904 35.7562 48.623 35.788C48.6617 35.8226 48.7079 35.8476 48.7581 35.861C48.8269 35.8808 48.8984 35.8899 48.97 35.888H49.3781ZM49.918 37.368H49.3781V36.302H49.1461C49.0918 36.3016 49.0383 36.3143 48.9901 36.339C48.9323 36.3743 48.885 36.4243 48.853 36.484L48.436 37.184C48.4035 37.2393 48.3578 37.2856 48.303 37.319C48.2418 37.3525 48.1728 37.3694 48.103 37.368H47.694L48.2651 36.462C48.3003 36.4055 48.3427 36.3537 48.3911 36.308C48.439 36.2662 48.4934 36.2325 48.5521 36.208C48.466 36.1848 48.3837 36.1491 48.308 36.102C48.2417 36.061 48.1828 36.0089 48.134 35.948C48.0898 35.8899 48.056 35.8246 48.0341 35.755C48.0113 35.6825 47.9998 35.607 48.0001 35.531C47.999 35.4241 48.0215 35.3182 48.066 35.221C48.1106 35.126 48.1759 35.0423 48.2571 34.976C48.3457 34.9033 48.4476 34.8486 48.5571 34.815C48.6909 34.7744 48.8302 34.7548 48.97 34.757H49.9171V37.369L49.918 37.368ZM46.21 36.376L45.928 35.576C45.912 35.534 45.8931 35.485 45.8751 35.428C45.8571 35.371 45.838 35.31 45.819 35.243C45.802 35.31 45.785 35.373 45.767 35.43C45.749 35.487 45.7301 35.537 45.7131 35.579L45.4321 36.379H46.21V36.376ZM47.1151 37.368H46.6981C46.6573 37.37 46.6171 37.358 46.584 37.334C46.5547 37.3122 46.5319 37.2828 46.5181 37.249L46.342 36.749H45.3L45.124 37.249C45.1112 37.2815 45.0898 37.3098 45.0621 37.331C45.0296 37.3563 44.9892 37.3694 44.9481 37.368H44.527L45.5461 34.756H46.098L47.1151 37.368ZM42.886 36.953C42.9578 36.9551 43.0293 36.9456 43.098 36.925C43.1481 36.909 43.1942 36.8824 43.233 36.847C43.2661 36.8151 43.2908 36.7756 43.3051 36.732C43.3183 36.6879 43.3251 36.6421 43.3251 36.596C43.3254 36.5463 43.3186 36.4968 43.3051 36.449C43.2913 36.4056 43.2669 36.3665 43.2341 36.335C43.1959 36.3003 43.1499 36.2753 43.1 36.262C43.0299 36.2438 42.9575 36.2354 42.8851 36.237H42.4921V36.955L42.886 36.953ZM42.886 35.819C43.0368 35.8158 43.1871 35.8354 43.332 35.877C43.4415 35.9087 43.5436 35.9621 43.6321 36.034C43.7063 36.0957 43.7643 36.1747 43.801 36.264C43.8379 36.352 43.8567 36.4466 43.8561 36.542C43.8576 36.6583 43.8351 36.7737 43.79 36.881C43.7469 36.9811 43.682 37.0702 43.6 37.142C43.5121 37.217 43.4101 37.2737 43.3 37.309C43.1668 37.3508 43.0277 37.3711 42.8881 37.369H41.9561V34.757H43.7631V35.168H42.4951V35.821L42.886 35.819ZM39.5331 37.367H38.993C38.9619 37.3679 38.9313 37.3584 38.9061 37.34C38.8844 37.3224 38.8661 37.3011 38.8521 37.277L38.287 36.316L38.2701 36.354C38.2648 36.3665 38.2584 36.3786 38.251 36.39L37.7141 37.276C37.6985 37.299 37.68 37.3198 37.6591 37.338C37.637 37.3567 37.6089 37.3666 37.5801 37.366H37.0801L37.936 36.022L37.113 34.754H37.6531C37.6802 34.7517 37.7074 34.7566 37.7321 34.768C37.7512 34.7795 37.767 34.7956 37.7781 34.815L38.3391 35.738C38.3451 35.723 38.3521 35.709 38.3591 35.694C38.367 35.6785 38.3756 35.6635 38.3851 35.649L38.8851 34.825C38.8967 34.8035 38.9131 34.7851 38.933 34.771C38.9523 34.7592 38.9745 34.7533 38.9971 34.754H39.5131L38.683 35.998L39.535 37.366L39.5331 37.367ZM36.1661 34.757V37.369H35.6221V35.812C35.6221 35.747 35.6221 35.679 35.6221 35.612C35.6221 35.545 35.634 35.466 35.644 35.386C35.6198 35.4542 35.5918 35.521 35.5601 35.586C35.5339 35.6408 35.5048 35.6942 35.473 35.746L34.5671 37.21C34.5552 37.2311 34.541 37.2508 34.525 37.269C34.5084 37.2886 34.49 37.3067 34.47 37.323C34.4506 37.3389 34.4291 37.352 34.4061 37.362C34.3821 37.371 34.3567 37.3758 34.3311 37.376H33.925V34.757H34.4681V36.314C34.4681 36.379 34.468 36.447 34.462 36.514C34.456 36.581 34.452 36.661 34.441 36.74C34.467 36.6693 34.495 36.6027 34.525 36.54C34.555 36.479 34.583 36.425 34.611 36.38L35.517 34.915C35.5295 34.894 35.5439 34.8743 35.5601 34.856C35.5766 34.8365 35.595 34.8188 35.6151 34.803C35.6347 34.7871 35.6566 34.7743 35.6801 34.765C35.7038 34.7552 35.7294 34.7505 35.7551 34.751H36.1611L36.1661 34.757ZM30.139 34.366C30.1754 34.3672 30.2117 34.3636 30.2471 34.355C30.273 34.3484 30.2959 34.3333 30.3121 34.312C30.3299 34.2882 30.3416 34.2604 30.3461 34.231C30.3532 34.1874 30.3566 34.1432 30.3561 34.099H30.65C30.6657 34.0982 30.6814 34.1019 30.695 34.1097C30.7087 34.1175 30.7198 34.129 30.7271 34.143C30.7422 34.1713 30.7501 34.2029 30.7501 34.235C30.7512 34.2926 30.7363 34.3494 30.707 34.399C30.675 34.4475 30.6318 34.4876 30.5811 34.516C30.5212 34.5506 30.456 34.5749 30.3881 34.588C30.2228 34.6189 30.0533 34.6189 29.8881 34.588C29.8197 34.5753 29.7541 34.5509 29.694 34.516C29.6436 34.4876 29.6007 34.4475 29.569 34.399C29.5389 34.3497 29.5236 34.2928 29.525 34.235C29.5252 34.2027 29.5339 34.171 29.55 34.143C29.5572 34.1292 29.5682 34.1178 29.5817 34.11C29.5951 34.1022 29.6105 34.0984 29.626 34.099H29.92C29.9193 34.1432 29.9223 34.1873 29.9291 34.231C29.9343 34.2602 29.9459 34.2878 29.9631 34.312C29.98 34.3334 30.0035 34.3485 30.03 34.355C30.065 34.3635 30.101 34.3672 30.137 34.366H30.139ZM31.23 34.757V37.369H30.686V35.812C30.686 35.747 30.686 35.679 30.691 35.612C30.696 35.545 30.702 35.466 30.712 35.386C30.6878 35.4542 30.6598 35.521 30.6281 35.586C30.5981 35.647 30.5701 35.701 30.5421 35.746L29.636 37.21C29.6236 37.231 29.6093 37.2507 29.5931 37.269C29.5763 37.2885 29.5579 37.3066 29.538 37.323C29.5186 37.3389 29.4971 37.352 29.4741 37.362C29.4504 37.371 29.4253 37.3757 29.4 37.376H28.993V34.757H29.5361V36.314C29.5361 36.3807 29.5361 36.4473 29.5361 36.514C29.5361 36.586 29.525 36.661 29.514 36.74C29.541 36.669 29.569 36.603 29.598 36.54C29.6243 36.4852 29.6533 36.4318 29.6851 36.38L30.59 34.915C30.6025 34.8941 30.617 34.8743 30.6331 34.856C30.6497 34.8366 30.6681 34.8189 30.688 34.803C30.7079 34.7874 30.7297 34.7746 30.7531 34.765C30.7769 34.7554 30.8024 34.7506 30.8281 34.751H31.235L31.23 34.757ZM27.7971 34.757V37.369H27.2531V35.812C27.2531 35.747 27.253 35.679 27.259 35.612C27.265 35.545 27.27 35.466 27.28 35.386C27.2559 35.4541 27.2283 35.5208 27.1971 35.586C27.1661 35.647 27.138 35.701 27.11 35.746L26.2051 37.21C26.1928 37.2311 26.1783 37.2508 26.162 37.269C26.1453 37.2886 26.1269 37.3066 26.1071 37.323C26.0876 37.3389 26.0661 37.352 26.043 37.362C26.019 37.371 25.9937 37.3757 25.9681 37.376H25.5621V34.757H26.105V36.314C26.105 36.379 26.1051 36.447 26.0991 36.514C26.0931 36.581 26.088 36.661 26.077 36.74C26.104 36.669 26.1321 36.603 26.1611 36.54C26.1901 36.477 26.221 36.425 26.248 36.38L27.1531 34.915C27.166 34.8941 27.1808 34.8744 27.1971 34.856C27.2135 34.8364 27.2319 34.8186 27.2521 34.803C27.2718 34.7872 27.2937 34.7744 27.3171 34.765C27.3408 34.7552 27.3663 34.7504 27.392 34.751H27.798L27.7971 34.757ZM24.3641 34.757V37.369H23.821V36.244H22.6661V37.369H22.123V34.757H22.6661V35.866H23.816V34.757H24.3641ZM20.8851 36.726C20.8991 36.7258 20.913 36.7285 20.926 36.734C20.9389 36.7395 20.9505 36.7477 20.96 36.758L21.175 36.987C21.0714 37.12 20.9364 37.2251 20.782 37.293C20.6048 37.3652 20.4143 37.3992 20.223 37.393C20.042 37.396 19.8624 37.362 19.6951 37.293C19.5435 37.2293 19.4071 37.1342 19.295 37.014C19.1837 36.8912 19.098 36.7474 19.043 36.591C18.9822 36.4193 18.9521 36.2382 18.954 36.056C18.9536 35.9314 18.9677 35.8073 18.996 35.686C19.023 35.5733 19.0647 35.4647 19.1201 35.363C19.1749 35.266 19.2421 35.1766 19.3201 35.097C19.3964 35.0188 19.4833 34.9515 19.5781 34.897C19.6766 34.8406 19.7821 34.7975 19.892 34.769C20.1003 34.7176 20.3171 34.7111 20.5281 34.75C20.6101 34.7656 20.6905 34.789 20.7681 34.82C20.9096 34.876 21.038 34.9608 21.1451 35.069L20.962 35.317C20.951 35.3331 20.9372 35.347 20.9211 35.358C20.901 35.3714 20.8771 35.3781 20.853 35.377C20.8215 35.3762 20.791 35.3653 20.7661 35.346C20.7371 35.326 20.7 35.303 20.657 35.278C20.6065 35.249 20.5528 35.2259 20.4971 35.209C20.4178 35.1863 20.3355 35.1758 20.2531 35.178C20.15 35.177 20.0478 35.1974 19.9531 35.238C19.8627 35.2768 19.7824 35.3356 19.7181 35.41C19.6486 35.4909 19.5965 35.5851 19.5651 35.687C19.5273 35.8073 19.509 35.9329 19.511 36.059C19.5089 36.1868 19.5289 36.314 19.5701 36.435C19.6044 36.5377 19.6588 36.6325 19.73 36.714C19.7955 36.7875 19.876 36.8462 19.9661 36.886C20.0584 36.9251 20.1578 36.9448 20.2581 36.944C20.3135 36.9444 20.3689 36.9418 20.4241 36.936C20.4713 36.9304 20.5179 36.92 20.563 36.905C20.605 36.8907 20.6452 36.872 20.683 36.849C20.7242 36.8239 20.7627 36.7947 20.798 36.762C20.8103 36.751 20.8241 36.7419 20.8391 36.735C20.8537 36.728 20.8698 36.7242 20.886 36.724L20.8851 36.726ZM15.8781 35.072C15.9856 34.9653 16.113 34.8807 16.2531 34.823C16.4158 34.7551 16.5907 34.7211 16.767 34.723C16.8891 34.7224 17.0107 34.7371 17.129 34.767C17.2394 34.7951 17.3453 34.8382 17.444 34.895C17.6351 35.0069 17.7918 35.1691 17.897 35.364C17.952 35.4659 17.9937 35.5745 18.0211 35.687C18.0894 35.9855 18.0735 36.297 17.975 36.587C17.9201 36.7434 17.8344 36.8872 17.723 37.01C17.6112 37.1305 17.4748 37.2257 17.3231 37.289C17.156 37.3577 16.9767 37.3917 16.7961 37.389C16.6048 37.3952 16.4143 37.3612 16.2371 37.289C16.0827 37.2217 15.9475 37.1169 15.8441 36.984L16.0591 36.755C16.0695 36.7441 16.0821 36.7356 16.0961 36.73C16.1083 36.7257 16.1211 36.7233 16.134 36.723C16.1506 36.7232 16.167 36.7269 16.1821 36.734C16.1973 36.7414 16.2117 36.7505 16.225 36.761C16.2913 36.8249 16.3709 36.8734 16.4581 36.903C16.5029 36.918 16.5491 36.9283 16.5961 36.934C16.6512 36.9398 16.7066 36.9424 16.762 36.942C16.8508 36.9427 16.9389 36.9272 17.022 36.896C17.1033 36.865 17.178 36.8188 17.2421 36.76C17.3094 36.697 17.365 36.6225 17.4061 36.54C17.4525 36.4456 17.4832 36.3443 17.4971 36.24H16.332V35.846H17.493C17.4786 35.7479 17.4485 35.6527 17.4041 35.564C17.3644 35.4851 17.3109 35.4139 17.246 35.354C17.1839 35.2965 17.1108 35.2523 17.0311 35.224C16.9474 35.1936 16.8591 35.1784 16.7701 35.179C16.628 35.1733 16.4872 35.2079 16.3641 35.279C16.3214 35.3043 16.2854 35.327 16.256 35.347C16.2307 35.3664 16.1999 35.3772 16.168 35.378C16.1439 35.3794 16.12 35.3727 16.1 35.359C16.0837 35.3479 16.0695 35.3341 16.058 35.318L15.876 35.07L15.8781 35.072ZM14.121 36.96V35.165H13.4661C13.4514 35.4077 13.4321 35.6233 13.4081 35.812C13.3841 36.003 13.3571 36.169 13.3251 36.312C13.3001 36.4391 13.2666 36.5643 13.225 36.687C13.1924 36.7806 13.1506 36.8707 13.1 36.956L14.121 36.96ZM15.063 36.96V37.833C15.0638 37.8536 15.0598 37.8741 15.0515 37.893C15.0432 37.9119 15.0308 37.9286 15.0151 37.942C14.9805 37.971 14.9361 37.9856 14.8911 37.983H14.566V37.368H12.723V37.833C12.7238 37.8536 12.7199 37.8741 12.7116 37.893C12.7033 37.9119 12.6908 37.9287 12.675 37.942C12.6407 37.9707 12.5968 37.9854 12.5521 37.983H12.2261V36.96H12.5151C12.5531 36.9373 12.5869 36.9082 12.6151 36.874C12.6536 36.8234 12.6852 36.7679 12.709 36.709C12.7444 36.6213 12.7732 36.531 12.795 36.439C12.8269 36.3071 12.8516 36.1736 12.8691 36.039C12.8911 35.882 12.9111 35.699 12.9271 35.487C12.9431 35.275 12.9561 35.033 12.9631 34.755H14.663V36.955H15.063V36.96ZM11.282 34.76V37.372H10.7391V36.247H9.58905V37.372H9.04504V34.757H9.58905V35.866H10.7391V34.757L11.282 34.76ZM7.21606 36.366V37.373H6.67407V36.366L5.72607 34.76H6.20203C6.24141 34.7579 6.28034 34.7696 6.31207 34.793C6.34125 34.816 6.36514 34.8449 6.38208 34.878L6.81104 35.701C6.84004 35.756 6.86604 35.808 6.88904 35.857C6.91183 35.9034 6.93186 35.9512 6.94904 36C6.96704 35.952 6.98606 35.9 7.00806 35.855C7.03006 35.81 7.05507 35.755 7.08307 35.701L7.50708 34.878C7.52376 34.8471 7.54614 34.8196 7.57306 34.797C7.60486 34.771 7.645 34.7575 7.68604 34.759H8.16406L7.21606 36.366Z" fill="white"/>
    <path fill-rule="evenodd" clip-rule="evenodd" d="M39.1381 10.184C40.5378 11.9982 41.4011 14.1683 41.6302 16.4482C41.8592 18.7281 41.4449 21.0266 40.4342 23.083C39.4234 25.1394 37.8567 26.8715 35.9116 28.0827C33.9665 29.294 31.721 29.9361 29.4296 29.9361C27.1382 29.9361 24.8927 29.294 22.9476 28.0827C21.0026 26.8715 19.4359 25.1394 18.4251 23.083C17.4143 21.0266 17 18.7281 17.229 16.4482C17.4581 14.1683 18.3214 11.9982 19.7211 10.184C18.0147 12.0641 16.8908 14.3993 16.4862 16.906C16.0815 19.4126 16.4134 21.9828 17.4416 24.3045C18.4697 26.6261 20.1498 28.5992 22.2779 29.9842C24.406 31.3692 26.8905 32.1065 29.4296 32.1065C31.9687 32.1065 34.4532 31.3692 36.5813 29.9842C38.7094 28.5992 40.3895 26.6261 41.4176 24.3045C42.4458 21.9828 42.7777 19.4126 42.373 16.906C41.9684 14.3993 40.8446 12.0641 39.1381 10.184Z" fill="white"/>
    <path fill-rule="evenodd" clip-rule="evenodd" d="M58.2611 39.9739H53.1331C52.0615 41.0645 51.4062 42.4962 51.2811 44.0199H50.6741C50.4676 42.5186 49.8234 41.1114 48.822 39.9739H45.3071C45.2814 40.2179 45.3451 40.4629 45.4863 40.6635C45.6275 40.8642 45.8367 41.0068 46.0751 41.0649V47.8379H48.0991V42.1449C48.7864 43.363 49.1413 44.7404 49.1281 46.1389L52.775 46.1279C52.921 44.3069 53.2751 42.7129 53.8511 42.1459V47.8399H55.876V43.6649C55.7078 43.5756 55.5594 43.4531 55.4398 43.3048C55.3202 43.1565 55.2319 42.9855 55.1802 42.8021C55.1285 42.6188 55.1146 42.4268 55.1391 42.2379C55.1637 42.049 55.2262 41.867 55.3231 41.7029C55.4478 41.5399 55.6163 41.4158 55.809 41.3449C56.509 41.1139 56.9701 41.8999 56.5991 42.2859C56.5581 42.1832 56.4884 42.0944 56.3983 42.0302C56.3082 41.966 56.2016 41.9291 56.0911 41.9239C56.0088 41.9273 55.9281 41.9473 55.8538 41.9827C55.7795 42.0181 55.7131 42.0682 55.6587 42.13C55.6043 42.1918 55.563 42.2639 55.5373 42.3421C55.5116 42.4203 55.5019 42.5029 55.509 42.5849C55.5406 42.83 55.6618 43.0547 55.8492 43.2157C56.0366 43.3767 56.277 43.4627 56.5241 43.4569C56.8179 43.4688 57.1084 43.3904 57.3565 43.2325C57.6046 43.0745 57.7984 42.8444 57.9121 42.5731C58.0257 42.3018 58.0536 42.0023 57.9921 41.7146C57.9306 41.427 57.7827 41.1651 57.5681 40.9639C57.7772 40.9008 57.9589 40.769 58.0841 40.59C58.2093 40.411 58.2705 40.195 58.2581 39.9769L58.2611 39.9739ZM42.397 44.4399C42.0939 43.7278 41.7548 43.0316 41.381 42.3539C41.0067 43.0315 40.6673 43.7277 40.3641 44.4399H42.397ZM42.9321 41.0739C44.3839 43.0772 45.3394 45.3964 45.72 47.8409H43.434C43.3211 47.2392 43.1732 46.6445 42.991 46.0599H39.7701C39.5878 46.6445 39.4399 47.2392 39.327 47.8409H37.3021C37.6383 45.384 38.5985 43.0543 40.0911 41.0739C39.8446 41.0234 39.6259 40.8825 39.4778 40.679C39.3298 40.4755 39.2633 40.224 39.2911 39.9739H43.0751V40.0649C42.9244 40.1813 42.8251 40.3519 42.7983 40.5404C42.7716 40.7288 42.8196 40.9203 42.9321 41.0739ZM33.832 41.6979H31.6151L31.0151 46.1159H33.8331L33.832 41.6979ZM35.8561 46.1159H36.946V48.7159H36.7811C36.5609 48.4436 36.2827 48.2239 35.9668 48.0729C35.6509 47.9219 35.3052 47.8433 34.9551 47.8429H29.4891C29.139 47.843 28.7933 47.9214 28.4775 48.0725C28.1617 48.2236 27.8838 48.4434 27.6641 48.7159H27.498V46.1159H28.915L29.3771 43.6619C30.3831 43.1429 30.339 41.6179 29.439 41.3359V41.3419C28.726 41.1499 28.278 41.8969 28.649 42.2829C28.6838 42.1761 28.7519 42.0833 28.8433 42.0181C28.9348 41.9529 29.0448 41.9189 29.157 41.9209C29.321 41.9534 29.4686 42.0416 29.5748 42.1708C29.6809 42.2999 29.739 42.4618 29.7391 42.6289C29.7287 42.7506 29.6939 42.8689 29.6368 42.9767C29.5797 43.0846 29.5014 43.1799 29.4067 43.2569C29.312 43.3339 29.2027 43.391 29.0855 43.4249C28.9682 43.4587 28.8452 43.4686 28.7241 43.4539C28.4303 43.4656 28.1399 43.387 27.892 43.229C27.644 43.0709 27.4504 42.8409 27.3369 42.5696C27.2234 42.2984 27.1956 41.9989 27.2571 41.7114C27.3186 41.4239 27.4665 41.162 27.681 40.9609C27.4718 40.8979 27.29 40.7662 27.1648 40.5872C27.0396 40.4081 26.9784 40.1921 26.991 39.9739H36.1821V40.0649C36.0618 40.2 35.971 40.3588 35.9155 40.531C35.8601 40.7032 35.8412 40.885 35.8601 41.0649V46.1219L35.8561 46.1159ZM23.79 44.4399C23.4871 43.7276 23.1477 43.0314 22.7731 42.3539C22.3989 43.0314 22.0598 43.7277 21.7571 44.4399H23.79ZM15.444 44.4399C15.1405 43.7277 14.8007 43.0315 14.426 42.3539C14.0518 43.0314 13.7127 43.7276 13.41 44.4399H15.444ZM24.3251 41.0739C25.7778 43.0773 26.734 45.3969 27.1151 47.8419H24.829C24.7151 47.2416 24.5669 46.6483 24.3851 46.0649H21.163C20.9808 46.6495 20.8329 47.2442 20.72 47.8459H16.4811C16.3682 47.2442 16.2202 46.6495 16.038 46.0649H12.8151C12.6326 46.6494 12.4847 47.2441 12.3721 47.8459H10.347C10.6832 45.3892 11.6431 43.0595 13.1351 41.0789C12.8886 41.0284 12.6699 40.8875 12.5219 40.684C12.3738 40.4805 12.3072 40.229 12.335 39.9789H16.1191V40.0649C15.9696 40.1815 15.8712 40.3516 15.8447 40.5392C15.8182 40.7269 15.8657 40.9176 15.9771 41.0709C17.3865 43.0229 18.3281 45.2729 18.7291 47.6469C19.0849 45.2601 20.0308 42.9998 21.4811 41.0709C21.2346 41.0204 21.0159 40.8795 20.8679 40.676C20.7199 40.4725 20.6532 40.221 20.681 39.9709H24.465V40.0649C24.3152 40.1812 24.2165 40.3512 24.1898 40.539C24.1631 40.7267 24.2105 40.9175 24.322 41.0709L24.3251 41.0739ZM7.61603 39.9739H10.285V40.0649C10.1647 40.2 10.074 40.3588 10.0186 40.531C9.96311 40.7032 9.94422 40.885 9.96308 41.0649V47.8459H7.93805V44.4009C7.47101 44.15 6.93919 44.0455 6.41193 44.1012C5.88467 44.1568 5.38642 44.37 4.98206 44.7129V47.8459H2.95703V43.6649C3.12493 43.5752 3.27288 43.4523 3.39191 43.3038C3.51094 43.1552 3.59859 42.984 3.64954 42.8006C3.70049 42.6172 3.71371 42.4253 3.68836 42.2366C3.663 42.048 3.59964 41.8664 3.50208 41.7029C3.37763 41.5396 3.20895 41.4154 3.01605 41.3449C2.31605 41.1139 1.85608 41.8999 2.22608 42.2859C2.26705 42.1832 2.33674 42.0944 2.42682 42.0302C2.51691 41.966 2.62358 41.9291 2.73407 41.9239C2.81636 41.9273 2.89708 41.9473 2.97144 41.9827C3.0458 42.0181 3.11221 42.0682 3.16669 42.1299C3.22117 42.1917 3.26262 42.2639 3.28845 42.3421C3.31429 42.4203 3.32403 42.5029 3.31708 42.5849C3.2855 42.8302 3.16414 43.055 2.9765 43.2161C2.78887 43.3771 2.54822 43.4629 2.30103 43.4569C2.00723 43.4685 1.71693 43.3901 1.469 43.232C1.22106 43.0739 1.02736 42.8439 0.913882 42.5726C0.8004 42.3014 0.772534 42.0019 0.834048 41.7144C0.895562 41.4269 1.04353 41.165 1.25806 40.9639C1.04904 40.9007 0.867368 40.769 0.742373 40.5899C0.617378 40.4109 0.556315 40.1949 0.569033 39.9769H5.30506V40.0649C5.18476 40.2 5.09396 40.3588 5.03852 40.531C4.98307 40.7032 4.96418 40.885 4.98303 41.0649V43.0239C5.83676 42.4073 6.89384 42.1401 7.93805 42.2769V41.0649C7.95691 40.885 7.93802 40.7032 7.88257 40.531C7.82712 40.3588 7.73633 40.2 7.61603 40.0649V39.9749V39.9739Z" fill="white"/>
    <path fill-rule="evenodd" clip-rule="evenodd" d="M21.541 75.7869C21.3877 75.7806 21.2343 75.7971 21.0859 75.8359C20.7999 75.9119 20.4429 76.1359 20.7669 76.3639C20.9058 76.4507 21.0707 76.4861 21.2329 76.4639C21.3859 76.4639 21.527 76.3919 21.541 76.2379V75.7869ZM20.7969 55.0499C20.4769 54.8369 20.8299 54.6239 21.1119 54.5499C21.2563 54.5136 21.4051 54.4978 21.554 54.5029V54.9689C21.5301 55.027 21.4878 55.0757 21.4337 55.1075C21.3795 55.1393 21.3163 55.1525 21.2539 55.1449C21.0934 55.1642 20.931 55.129 20.7929 55.0449L20.7969 55.0499ZM20.205 59.0999C20.2722 59.0806 20.3438 59.0827 20.4097 59.106C20.4757 59.1293 20.5328 59.1726 20.5729 59.2299C20.8579 59.6459 20.163 59.9889 19.973 59.6019C19.9509 59.5541 19.9395 59.5021 19.9395 59.4494C19.9396 59.3968 19.9511 59.3448 19.9733 59.297C19.9954 59.2492 20.0278 59.2069 20.0679 59.1728C20.1081 59.1388 20.1542 59.1139 20.205 59.0999ZM20.7969 67.6249C20.4769 67.3999 20.8299 67.1789 21.1119 67.1049C21.2586 67.0659 21.4103 67.0494 21.562 67.0559V67.4789C21.562 67.6459 21.416 67.7219 21.262 67.7249C21.1 67.7477 20.9352 67.7122 20.7969 67.6249ZM20.7969 61.8919C20.4769 61.6669 20.8299 61.4449 21.1119 61.3709C21.2561 61.3331 21.405 61.3166 21.554 61.3219V61.8089C21.5317 61.8687 21.4901 61.9192 21.4357 61.9524C21.3813 61.9856 21.3172 61.9995 21.2539 61.9919C21.0946 62.0128 20.933 61.9774 20.7969 61.8919ZM22.9319 72.4539C22.7994 72.066 22.742 71.6563 22.7629 71.2469V65.7689C22.7144 65.4083 22.8045 65.0427 23.015 64.7459C22.707 64.6284 22.383 64.5586 22.054 64.5389C22.6805 64.2545 23.3599 64.1053 24.0479 64.1009L24.1479 63.7769C23.3318 63.3546 22.4142 63.1676 21.4979 63.2369C21.9685 63.0425 22.4634 62.913 22.9689 62.8519C22.8244 62.6022 22.755 62.3161 22.7689 62.0279V54.1899C22.7495 53.8779 22.8054 53.5658 22.9319 53.2799C22.7904 53.1931 22.6427 53.1169 22.4899 53.0519C22.8109 52.9129 23.3199 52.6759 23.6249 52.5609L22.6099 51.7749C21.9042 52.2783 21.1237 52.6674 20.2969 52.9279C20.3234 53.0374 20.3391 53.1493 20.3439 53.2619C20.7341 53.2011 21.1332 53.282 21.4689 53.4899C21.4945 53.5082 21.5159 53.5318 21.5316 53.559C21.5473 53.5863 21.5569 53.6166 21.5599 53.6479V53.6869C19.6409 53.8459 19.2989 55.3639 20.7689 55.5179C21.0322 55.5386 21.2967 55.5386 21.5599 55.5179V55.6879C21.1071 55.7298 20.6616 55.8307 20.2349 55.9879C19.8879 56.1099 19.4959 56.3209 18.9709 56.4879C19.4248 56.6637 19.7904 57.0121 19.9879 57.4569C20.0581 57.4059 20.1309 57.3585 20.2059 57.3149C20.2125 57.2237 20.2439 57.1361 20.2968 57.0615C20.3497 56.9869 20.422 56.9282 20.5059 56.8919C20.7718 56.7375 21.0686 56.6439 21.3749 56.6179C21.5079 56.6119 21.5479 56.6449 21.5579 56.7179V57.0819L20.301 57.5669C20.3284 57.6763 20.3445 57.7882 20.3489 57.9009C20.6349 57.8609 21.3819 57.8879 21.5579 58.2409V58.3039C20.9689 58.2279 19.2369 58.2839 19.0919 59.4559C19.0747 59.5955 19.1017 59.737 19.1692 59.8604C19.2366 59.9839 19.3412 60.083 19.468 60.1439C19.768 60.2699 19.5679 60.3909 19.4179 60.4439L19.4249 60.5489C20.9379 60.9489 21.7349 59.3569 20.9399 58.8539C21.1398 58.7896 21.3531 58.78 21.5579 58.8259V60.4649C19.6379 60.6299 19.2969 62.2159 20.7669 62.3769C21.0331 62.3995 21.3008 62.3995 21.567 62.3769V62.6009C21.088 62.7759 20.6439 62.9749 20.2249 63.1449C20.342 63.4237 20.4402 63.71 20.5189 64.0019C21.0493 63.9315 21.584 63.8981 22.119 63.9019C21.497 64.2279 20.8469 64.5619 20.3239 64.8619C20.3506 64.9687 20.3663 65.0779 20.3709 65.1879C20.7797 65.1286 21.1968 65.173 21.5839 65.3169V66.1989C21.4832 66.2042 21.383 66.2162 21.2839 66.2349C19.6119 66.5209 19.374 67.9589 20.77 68.1119C21.0362 68.134 21.3037 68.134 21.5699 68.1119V71.5949C21.0641 71.7512 20.6266 72.0752 20.3296 72.5135C20.0326 72.9517 19.8937 73.4781 19.9359 74.0059C22.4425 73.8968 24.9538 74.0264 27.4359 74.3929C28.5403 74.5341 29.5839 74.9785 30.4509 75.6769C30.9969 75.0171 31.6608 74.4647 32.4089 74.0479L32.3029 73.9199C31.7283 74.0836 31.1159 74.0538 30.5599 73.8349C29.8599 73.6139 29.3399 73.4799 28.8519 73.3749C28.0519 73.2019 27.4679 73.1419 26.8599 73.0589C25.5394 72.8946 24.2096 72.8168 22.8789 72.8259C22.4038 73.079 21.8511 73.1446 21.33 73.0099C21.479 72.6449 22.347 72.4519 22.939 72.4569L22.9319 72.4539ZM22.7789 74.9049C23.0044 74.8922 23.2299 74.9311 23.4381 75.0186C23.6463 75.1061 23.8319 75.2399 23.9807 75.4099C24.1294 75.5798 24.2374 75.7815 24.2966 75.9995C24.3557 76.2175 24.3644 76.4461 24.322 76.6679C24.038 77.6499 22.6879 77.7339 21.6849 77.4189L21.7509 77.1759C22.1659 77.2819 23.14 77.2389 23.317 76.6989C23.3503 76.6034 23.3617 76.5017 23.3505 76.4012C23.3392 76.3006 23.3055 76.2039 23.2518 76.1182C23.1982 76.0325 23.1259 75.9599 23.0404 75.9058C22.9549 75.8518 22.8584 75.8176 22.7579 75.8059V76.3989C22.7579 76.7329 22.7989 76.8379 22.4579 76.8479C21.8836 76.8847 21.3076 76.8881 20.7329 76.8579C19.3699 76.7089 19.5419 75.3509 21.0709 74.9909C21.6342 74.883 22.2097 74.8541 22.7809 74.9049H22.7789Z" fill="white"/>
    <path fill-rule="evenodd" clip-rule="evenodd" d="M35.264 70.129V70.95C35.239 71.228 34.9829 71.35 34.7079 71.357C34.4137 71.3966 34.115 71.3314 33.8639 71.173C33.2769 70.762 33.924 70.356 34.441 70.219C34.7093 70.1484 34.9867 70.118 35.264 70.129ZM32.7829 65.816C32.901 65.7735 33.0297 65.7701 33.1499 65.806C33.2701 65.842 33.3756 65.9156 33.451 66.016C33.971 66.746 32.7059 67.431 32.3509 66.746C32.3124 66.6571 32.2931 66.5611 32.2944 66.4642C32.2956 66.3673 32.3173 66.2718 32.3581 66.184C32.399 66.0961 32.4579 66.0179 32.5311 65.9545C32.6043 65.8911 32.6902 65.8438 32.7829 65.816ZM31.7959 52.787L31.896 52.864C31.8157 52.9031 31.7508 52.968 31.7117 53.0483C31.6725 53.1285 31.6614 53.2196 31.68 53.307C31.78 53.657 32.2319 53.59 32.4419 54.007C32.9959 55.091 31.42 55.7 30.657 55.224C30.5341 55.132 30.4322 55.0148 30.3582 54.8803C30.2842 54.7458 30.2398 54.5971 30.2278 54.444C30.2159 54.291 30.2368 54.1371 30.2891 53.9928C30.3413 53.8484 30.4238 53.7169 30.531 53.607C30.8379 53.187 31.2897 52.8959 31.7989 52.79L31.7959 52.787ZM31.742 56.881L31.842 56.951C31.7652 56.9765 31.7005 57.0295 31.6605 57.0999C31.6204 57.1702 31.6078 57.2529 31.625 57.332C31.725 57.639 32.1829 57.593 32.3979 57.958C32.6389 58.37 32.447 58.987 31.625 59.108C31.487 59.129 31.419 59.235 31.493 59.323C31.6443 59.4195 31.802 59.5057 31.965 59.581C32.2578 59.7334 32.4868 59.9851 32.611 60.291C32.811 61.291 31.663 61.897 30.794 61.5C30.6359 61.4244 30.5049 61.3018 30.4189 61.149C30.333 60.9963 30.2962 60.8207 30.3137 60.6463C30.3312 60.4719 30.4021 60.3071 30.5167 60.1744C30.6312 60.0418 30.784 59.9477 30.954 59.905C31.287 59.784 31.417 59.641 31.009 59.491C30.8181 59.4321 30.6449 59.3265 30.5052 59.1838C30.3654 59.0411 30.2635 58.8657 30.2087 58.6736C30.1538 58.4815 30.1479 58.2788 30.1912 58.0838C30.2346 57.8888 30.3259 57.7077 30.457 57.557C30.7934 57.1874 31.2488 56.9474 31.7439 56.879L31.742 56.881ZM32.97 53.868C33.0189 54.0666 33.0477 54.2696 33.056 54.474C33.725 54.3796 34.4068 54.4979 35.005 54.812C35.123 54.898 35.2649 55.022 35.2649 55.176V55.221L32.97 56.108C33.0188 56.3066 33.0476 56.5096 33.056 56.714C33.7617 56.6036 34.4836 56.7486 35.092 57.123C35.16 57.186 35.264 57.291 35.264 57.389V57.419L32.969 58.306C33.0178 58.5046 33.0466 58.7076 33.055 58.912C33.568 58.84 34.8999 58.887 35.2389 59.512L32.969 60.389C33.0178 60.5876 33.0466 60.7906 33.055 60.995C33.7899 60.8705 34.5443 61.0404 35.155 61.468C35.2145 61.5217 35.2534 61.5946 35.2649 61.674V61.704L32.97 62.589C33.0188 62.7876 33.0476 62.9906 33.056 63.195C33.7327 63.0976 34.4229 63.2211 35.024 63.547C35.274 63.738 35.2649 63.798 35.2649 64.07V64.259C34.2299 64.164 31.022 64.403 30.755 66.568C30.7205 66.8171 30.7683 67.0706 30.8913 67.2899C31.0142 67.5093 31.2055 67.6824 31.436 67.783C31.978 67.983 31.615 68.223 31.345 68.333L31.358 68.523C34.107 69.111 35.558 66.154 34.111 65.313C34.4794 65.1754 34.8783 65.1409 35.2649 65.213V68.581C34.979 68.6034 34.6945 68.6421 34.413 68.697C31.647 69.348 31.335 71.804 33.801 72.075C34.284 72.1178 34.7693 72.1301 35.254 72.112V73.493C34.344 73.785 32.814 74.622 32.579 77.263C34.9249 77.1192 37.2763 77.4338 39.5019 78.189C39.9265 77.5259 40.4789 76.9541 41.1269 76.507C39.9163 76.321 38.7296 76.0035 37.5879 75.56C36.6633 75.8851 35.6658 75.9426 34.7099 75.726C35.0649 75.079 36.476 74.745 37.573 74.96C37.3801 74.5162 37.2863 74.0357 37.298 73.552C37.582 73.536 37.9149 73.505 38.2859 73.452V74.27C38.3139 74.739 38.286 74.89 38.842 75.041C39.554 75.241 40.3479 75.393 41.0879 75.58L41.195 75.28C40.9398 75.1374 40.7317 74.9233 40.5965 74.6641C40.4613 74.4049 40.4048 74.1119 40.4339 73.821V73.197C40.4034 72.7214 40.4921 72.2456 40.6919 71.813C39.5877 72.1319 38.4462 72.3033 37.297 72.323V56.256C37.2371 55.6508 37.3407 55.0406 37.597 54.489C37.3899 54.3437 37.1738 54.2118 36.9499 54.094C37.5339 53.844 38.4559 53.413 39.0099 53.203L37.168 51.777C36.355 52.594 34.1889 53.397 32.9679 53.87L32.97 53.868Z" fill="white"/>
    <path fill-rule="evenodd" clip-rule="evenodd" d="M27.166 76.2949C27.0158 76.2879 26.8655 76.3035 26.72 76.3409C26.441 76.4129 26.091 76.6319 26.408 76.8559C26.544 76.9416 26.7056 76.9769 26.8649 76.9559C27.0139 76.9559 27.152 76.8879 27.165 76.7379L27.166 76.2949ZM27.166 80.1949C26.7628 80.3578 26.4396 80.6723 26.2659 81.0709L25.226 80.8179C25.3195 80.5611 25.3599 80.2879 25.3448 80.0149C25.3297 79.7419 25.2593 79.4749 25.1379 79.2299L25.238 79.1589C25.5635 79.2665 25.8549 79.4579 26.0829 79.7139C26.406 79.469 26.7735 79.289 27.165 79.1839V79.1199C26.981 78.7619 26.228 78.7129 25.939 78.7449C25.934 78.6296 25.9175 78.515 25.89 78.4029L26.9069 78.0409C27.4127 77.897 27.909 77.7216 28.3929 77.5159C29.0529 77.1849 29.0479 76.4799 28.3589 76.3249V76.8989C28.3589 77.2269 28.2849 77.3289 27.9479 77.3359C27.4234 77.3679 26.8974 77.3679 26.3729 77.3359C25.4119 77.2239 25.231 76.5029 25.765 75.9809C26.15 75.6627 26.6224 75.4685 27.1199 75.4239C27.2779 75.3879 27.4369 75.3239 27.4319 75.1799C28.1624 75.1886 28.8728 75.4203 29.468 75.8439C29.6709 76.0113 29.8199 76.2349 29.8962 76.4866C29.9726 76.7384 29.9728 77.0071 29.897 77.2589C29.747 77.7789 29.208 78.0589 28.561 78.2099C28.361 78.2579 28.179 78.3019 27.968 78.3589L28.3679 78.5589V82.5909C28.6924 82.5919 29.0116 82.6733 29.2969 82.8279C30.1749 83.3589 29.6329 84.5779 28.3289 84.5509C28.1118 84.5676 27.8938 84.5338 27.6919 84.4523C27.49 84.3708 27.3097 84.2437 27.165 84.0809L27.252 84.0079C27.5304 84.1784 27.8634 84.236 28.1829 84.1689C28.8289 84.0689 28.883 83.4169 27.902 83.4409C27.5732 83.4283 27.2457 83.4895 26.9437 83.6202C26.6417 83.7509 26.3728 83.9476 26.1569 84.1959C26.1044 83.9493 25.993 83.719 25.8321 83.5248C25.6712 83.3306 25.4656 83.1783 25.233 83.0809C25.624 83.0642 26.0092 82.9793 26.371 82.8299C26.314 82.6599 26.2599 82.4919 26.2109 82.3299C26.5023 82.4883 26.8318 82.563 27.163 82.5459V82.2569C27.163 82.0819 27.1539 82.0349 26.9789 81.9239C26.6499 81.767 26.2823 81.7094 25.921 81.7579C25.9165 81.6432 25.9001 81.5293 25.8719 81.4179L27.166 80.9179V80.1909V80.1949Z" fill="white"/>
    <path fill-rule="evenodd" clip-rule="evenodd" d="M28.3661 71.349V61.522V58.792L28.5131 58.392L28.0051 58.184C28.2111 58.114 28.3531 58.076 28.5791 58.011C28.8781 57.9391 29.1644 57.8221 29.4281 57.664C29.5932 57.5846 29.7329 57.4608 29.8315 57.3065C29.93 57.1521 29.9836 56.9733 29.9862 56.7902C29.9888 56.6071 29.9403 56.4269 29.8462 56.2698C29.752 56.1127 29.6158 55.985 29.4531 55.901C29.124 55.7049 28.7491 55.599 28.3661 55.594V53.04C28.3515 52.7402 28.4401 52.4444 28.6171 52.202C28.0766 52.0095 27.5201 51.8656 26.9541 51.772C27.0697 51.926 27.1428 52.1078 27.1661 52.299V52.319C26.7746 52.4235 26.4071 52.6032 26.0841 52.848C25.8558 52.5918 25.564 52.4004 25.2381 52.293L25.1381 52.364C25.2609 52.6093 25.3323 52.8772 25.348 53.1511C25.3636 53.425 25.3232 53.6992 25.2291 53.957L26.2691 54.209C26.4428 53.8104 26.7659 53.4958 27.1691 53.333V54.252L25.9011 54.742C25.9278 54.8515 25.9439 54.9634 25.9491 55.076C26.3285 55.0197 26.7158 55.0922 27.0491 55.282C27.1841 55.392 27.1721 55.423 27.1721 55.582V55.754C27.1091 55.77 27.0441 55.788 26.9771 55.809C26.4378 56.0347 25.8685 56.1806 25.2871 56.242C25.5298 56.3437 25.7442 56.5026 25.9123 56.7051C26.0803 56.9076 26.1969 57.1477 26.2521 57.405C26.4811 57.1531 26.7637 56.9556 27.0789 56.8272C27.3942 56.6988 27.7343 56.6427 28.0741 56.663C28.5901 56.651 28.8461 56.858 28.7631 57.09C28.6631 57.379 27.9751 57.579 27.4711 57.758C27.1711 57.858 26.8661 57.968 26.5711 58.08L25.9211 58.331C25.9066 58.4693 25.9353 58.6088 26.0033 58.7301C26.0714 58.8514 26.1754 58.9486 26.3011 59.0083C26.4267 59.068 26.5678 59.0872 26.7048 59.0633C26.8418 59.0395 26.9681 58.9736 27.0661 58.875C27.1801 58.975 27.1661 59.149 27.1661 59.289V71.127C27.1131 71.127 26.9761 71.127 26.8221 71.132V63.176C26.8221 62.632 26.7441 62.358 26.2091 62.183C25.9201 62.09 25.4831 61.964 24.9671 61.845L24.8881 61.988C25.0199 62.071 25.1237 62.1915 25.1863 62.3341C25.2489 62.4767 25.2673 62.6348 25.2391 62.788C24.9243 64.0361 24.5117 65.2576 24.0051 66.441C23.7953 66.2689 23.5589 66.1321 23.3051 66.036C22.7621 65.8239 22.1876 65.7033 21.6051 65.679C20.3304 65.6139 19.0559 65.8107 17.8601 66.257C17.0171 66.599 15.3071 67.42 15.2421 68.487C15.219 68.6498 15.2355 68.8158 15.2901 68.9709C15.3448 69.126 15.436 69.2656 15.5561 69.378C15.6573 69.4613 15.7222 69.5807 15.7372 69.711C16.1142 69.528 16.6371 69.219 16.2611 68.825C16.1773 68.7845 16.1039 68.7254 16.0462 68.6523C15.9886 68.5793 15.9483 68.494 15.9285 68.4031C15.9087 68.3121 15.9097 68.2179 15.9317 68.1274C15.9536 68.037 15.9958 67.9527 16.0551 67.881C16.563 67.2786 17.21 66.8091 17.9401 66.513C18.6067 66.2243 19.3118 66.0339 20.0331 65.948C21.1245 65.7683 22.2439 65.8787 23.2791 66.268C23.5202 66.373 23.737 66.5265 23.9161 66.719C23.6153 67.3279 23.4785 68.0048 23.5192 68.6828C23.5599 69.3607 23.7767 70.0164 24.1481 70.585C24.1977 70.6655 24.2732 70.7269 24.3622 70.759C24.6192 70.819 24.8381 70.665 24.9931 70.296C25.1754 69.7459 25.2259 69.1607 25.1407 68.5875C25.0554 68.0143 24.8367 67.4692 24.5021 66.996C24.9364 65.9288 25.3156 64.84 25.6381 63.734V71.09C25.5031 71.095 25.1021 71.148 24.9651 71.163L25.2781 72.163C26.2046 71.9543 27.1644 71.9413 28.0961 72.125C28.4798 72.2396 28.8394 72.4232 29.1571 72.667L29.2281 72.606C28.9868 72.1601 28.7017 71.7394 28.3771 71.35L28.3661 71.349ZM24.3841 67.275C24.6548 67.6778 24.8321 68.136 24.903 68.6161C24.9739 69.0962 24.9367 69.5861 24.7941 70.05C24.7091 70.262 24.5941 70.392 24.5361 70.32C24.0858 69.3647 24.0305 68.2701 24.3841 67.275Z" fill="white"/>
    <path fill-rule="evenodd" clip-rule="evenodd" d="M29.405 16.0039C29.3036 15.9971 29.2024 16.021 29.1147 16.0724C29.0269 16.1238 28.9567 16.2004 28.9131 16.2922C28.8694 16.384 28.8544 16.4869 28.87 16.5874C28.8855 16.6878 28.9309 16.7813 29.0003 16.8557C29.0697 16.93 29.1597 16.9818 29.2589 17.0043C29.3581 17.0267 29.4617 17.0189 29.5563 16.9817C29.651 16.9445 29.7322 16.8798 29.7896 16.7958C29.847 16.7119 29.8777 16.6126 29.878 16.5109C29.8823 16.381 29.8349 16.2547 29.7463 16.1597C29.6576 16.0646 29.5349 16.0086 29.405 16.0039Z" fill="white"/>
    <path fill-rule="evenodd" clip-rule="evenodd" d="M31.806 24.622L31.858 24.485C31.792 24.374 31.727 24.254 31.664 24.128C32.3527 24.7745 33.2069 25.2178 34.132 25.409C34.147 25.441 34.164 25.475 34.181 25.509C33.3208 25.4473 32.4964 25.1388 31.806 24.622ZM31.406 23.544C31.2701 23.1938 31.1542 22.8363 31.059 22.473C31.338 23.0666 31.7393 23.5945 32.2367 24.0221C32.7341 24.4497 33.3162 24.7672 33.945 24.954C33.968 25.019 33.991 25.086 34.016 25.154C32.9912 24.9214 32.0719 24.3568 31.401 23.548L31.406 23.544ZM30.824 25.78L29.536 25.354C28.978 24.203 28.569 22.747 28.664 19.477L28.872 12.323C29.213 12.323 29.572 12.323 29.941 12.323L30.097 19.43C30.0583 21.2417 30.4519 23.0366 31.245 24.666L30.818 25.78H30.824ZM29.824 26.587C29.1001 26.4648 28.421 26.1544 27.855 25.687C27.1993 25.0774 26.7786 24.2571 26.666 23.369C26.5436 22.5021 26.5863 21.6199 26.792 20.769C26.836 20.859 26.883 20.949 26.93 21.035C26.594 22.889 26.601 25.364 29.868 26.361L29.824 26.589V26.587ZM26.483 21.244C25.8825 20.2442 25.5438 19.1093 25.498 17.944H25.798C25.9052 18.9171 26.1658 19.8672 26.57 20.759C26.533 20.921 26.503 21.082 26.477 21.244H26.483ZM26.217 23.944C25.3759 23.2028 24.7521 22.247 24.4122 21.1787C24.0722 20.1105 24.0289 18.9699 24.287 17.879L24.429 17.889C24.2789 18.9128 24.3827 19.9579 24.7315 20.9321C25.0803 21.9064 25.6632 22.78 26.429 23.476C26.437 23.526 26.448 23.576 26.457 23.627C26.373 23.716 26.294 23.817 26.211 23.939L26.217 23.944ZM25.842 24.597C24.909 23.7753 24.2345 22.7006 23.9003 21.5031C23.566 20.3057 23.5864 19.037 23.959 17.851C23.997 17.851 24.035 17.856 24.072 17.86C23.8093 18.9911 23.8587 20.1723 24.215 21.2774C24.5713 22.3826 25.2211 23.3703 26.095 24.135C26.011 24.259 25.926 24.411 25.836 24.594L25.842 24.597ZM25.635 25.037C23.835 23.82 22.824 21.186 23.507 17.796L23.741 17.825C23.362 19.0572 23.3493 20.3731 23.7043 21.6125C24.0594 22.8518 24.767 23.9613 25.741 24.806C25.706 24.878 25.671 24.955 25.635 25.037ZM26.38 22.149C25.4364 20.9512 24.9617 19.4505 25.045 17.928C25.124 17.928 25.203 17.935 25.284 17.937C25.3295 19.2329 25.7278 20.4918 26.436 21.578C26.405 21.765 26.385 21.956 26.373 22.144L26.38 22.149ZM26.366 22.476C26.3602 22.6945 26.3673 22.9132 26.387 23.131C25.7152 22.4524 25.2087 21.6282 24.9071 20.7221C24.6055 19.8161 24.5169 18.8528 24.648 17.907L24.831 17.918C24.7367 19.5757 25.2842 21.2061 26.36 22.471L26.366 22.476ZM23.558 16.094C25.104 16.2877 26.6674 16.2991 28.216 16.128L28.184 17.273C26.6462 17.447 25.0929 17.4349 23.558 17.237V16.094ZM24.358 12.338C24.4184 12.3266 24.4796 12.3199 24.541 12.318C23.908 13.179 23.992 14.387 24.091 15.661L23.874 15.643C23.729 14.282 23.615 13.094 24.358 12.336V12.338ZM27.45 21.863C27.5 21.932 27.55 22 27.607 22.063C27.5841 22.5046 27.6554 22.9461 27.8161 23.3581C27.9768 23.7702 28.2232 24.1434 28.539 24.453C28.584 24.63 28.632 24.799 28.682 24.953C28.2189 24.5947 27.8604 24.1187 27.6439 23.5746C27.4274 23.0306 27.3608 22.4385 27.451 21.86L27.45 21.863ZM27.099 21.342C27.1503 21.4266 27.2033 21.5096 27.258 21.591C27.1044 22.2958 27.1709 23.0307 27.4485 23.6966C27.726 24.3624 28.2013 24.9269 28.81 25.314C28.8772 25.483 28.955 25.6477 29.043 25.807C27.367 25.001 26.759 23.577 27.099 21.339V21.342ZM28.317 23.342C28.3544 23.5833 28.395 23.8116 28.439 24.027C28.0597 23.5394 27.8444 22.9443 27.824 22.327C27.872 22.3816 27.9213 22.435 27.972 22.487C28.0318 22.7906 28.1489 23.0801 28.317 23.34V23.342ZM28.258 14.681L28.233 15.581C28.171 15.59 28.107 15.597 28.043 15.604C28.105 15.287 28.179 14.976 28.258 14.679V14.681ZM28.316 12.725L28.284 13.797C28.0824 14.3986 27.921 15.0129 27.801 15.636C27.717 15.644 27.63 15.654 27.541 15.661C27.6913 14.6566 27.9511 13.6727 28.316 12.725ZM27.872 12.325H28.245C27.8042 13.4006 27.4959 14.5259 27.327 15.676C27.236 15.684 27.145 15.689 27.052 15.694C27.1686 14.5379 27.4466 13.4038 27.878 12.325H27.872ZM27.272 12.325H27.64C27.2159 13.41 26.9436 14.5484 26.831 15.708L26.555 15.718C26.6163 14.5564 26.8579 13.4114 27.271 12.324L27.272 12.325ZM26.672 12.325H27.041C26.6409 13.418 26.4014 14.5632 26.33 15.725L26.05 15.731C26.0711 14.5695 26.2794 13.4191 26.667 12.324L26.672 12.325ZM26.127 12.325H26.346C26.0313 13.4348 25.8319 14.5742 25.751 15.725H25.551C25.5256 14.5648 25.7193 13.4103 26.122 12.322L26.127 12.325ZM25.705 12.325H25.888C25.5021 13.4162 25.3141 14.5676 25.333 15.725H25.148C25.0246 14.5618 25.2148 13.3868 25.699 12.322L25.705 12.325ZM24.513 15.694L24.313 15.682C24.213 14.37 24.118 13.128 24.831 12.324H25.004C24.5056 13.3729 24.3362 14.548 24.518 15.695L24.513 15.694ZM24.927 15.714C24.861 15.714 24.795 15.714 24.727 15.706C24.5235 14.5509 24.7114 13.361 25.261 12.325H25.441C24.9925 13.3942 24.8145 14.5575 24.923 15.712L24.927 15.714ZM27.114 20.531C27.3838 21.0996 27.7423 21.6218 28.176 22.078C28.184 22.188 28.195 22.297 28.205 22.404C27.6953 21.8914 27.2755 21.2968 26.963 20.645C26.5608 19.7936 26.291 18.8858 26.163 17.953C26.236 17.953 26.308 17.953 26.381 17.953C26.4854 18.847 26.733 19.7185 27.114 20.534V20.531ZM27.443 20.301C27.628 20.6922 27.8607 21.059 28.136 21.393C28.136 21.503 28.146 21.612 28.151 21.72C27.8123 21.3287 27.528 20.8934 27.306 20.426C26.9442 19.642 26.7106 18.805 26.614 17.947L26.819 17.941C26.8949 18.7547 27.1065 19.55 27.445 20.294L27.443 20.301ZM27.757 20.058C27.8591 20.2764 27.9788 20.4861 28.115 20.685C28.115 20.797 28.115 20.904 28.122 21.012C27.9345 20.7565 27.7714 20.484 27.635 20.198C27.3097 19.4808 27.1069 18.7142 27.035 17.93C27.101 17.93 27.167 17.924 27.235 17.92C27.2812 18.6578 27.4586 19.3815 27.759 20.057L27.757 20.058ZM27.846 17.873L28.03 17.852C28.0361 18.1724 28.073 18.4915 28.14 18.805L28.124 19.39C27.9566 18.9012 27.8629 18.3893 27.846 17.873ZM28.054 19.801C28.073 19.84 28.095 19.877 28.115 19.914C28.115 20.032 28.115 20.149 28.115 20.266C28.058 20.166 28.002 20.066 27.952 19.956C27.6652 19.308 27.4959 18.6142 27.452 17.907L27.639 17.891C27.6597 18.5484 27.8022 19.1964 28.059 19.802L28.054 19.801ZM24.434 11.452H34.38C34.4151 11.4532 34.4484 11.4675 34.4734 11.4921C34.4985 11.5168 34.5133 11.5499 34.515 11.585C34.5172 11.6046 34.5154 11.6244 34.5096 11.6433C34.5039 11.6622 34.4944 11.6797 34.4817 11.6948C34.469 11.7098 34.4533 11.7221 34.4356 11.7309C34.418 11.7397 34.3987 11.7449 34.379 11.746L30.817 11.773L24.433 11.743C24.4135 11.742 24.3944 11.737 24.3768 11.7284C24.3593 11.7197 24.3437 11.7076 24.3311 11.6927C24.3184 11.6778 24.309 11.6605 24.3033 11.6418C24.2976 11.623 24.2958 11.6034 24.298 11.584C24.3 11.5486 24.3152 11.5154 24.3406 11.4907C24.366 11.4661 24.3996 11.4519 24.435 11.451L24.434 11.452ZM26.409 10.767C26.4051 10.8295 26.3829 10.8896 26.3453 10.9397C26.3076 10.9899 26.2561 11.0279 26.1971 11.0491C26.1381 11.0703 26.0742 11.0737 26.0132 11.059C25.9523 11.0443 25.897 11.012 25.8542 10.9663C25.8114 10.9205 25.7829 10.8631 25.7723 10.8014C25.7617 10.7396 25.7694 10.676 25.7944 10.6186C25.8195 10.5611 25.8609 10.5122 25.9134 10.478C25.9659 10.4438 26.0273 10.4257 26.09 10.426C26.1763 10.4293 26.2579 10.4662 26.3174 10.5288C26.377 10.5913 26.4098 10.6746 26.409 10.761V10.767ZM29.879 10.767C29.8727 10.8591 29.8397 10.9475 29.7839 11.0211C29.7282 11.0948 29.6521 11.1505 29.5651 11.1815C29.478 11.2125 29.3838 11.2174 29.2941 11.1955C29.2043 11.1737 29.1229 11.1261 29.0598 11.0586C28.9967 10.9912 28.9548 10.9067 28.939 10.8157C28.9233 10.7246 28.9345 10.631 28.9713 10.5463C29.008 10.4615 29.0688 10.3894 29.146 10.3387C29.2232 10.288 29.3136 10.261 29.406 10.261C29.5346 10.2657 29.6561 10.3207 29.7444 10.4143C29.8328 10.5078 29.8807 10.6323 29.878 10.761L29.879 10.767ZM33.399 10.767C33.3951 10.8284 33.3733 10.8874 33.3364 10.9366C33.2994 10.9859 33.2488 11.0233 33.1909 11.0442C33.133 11.0651 33.0703 11.0686 33.0104 11.0543C32.9505 11.0401 32.896 11.0086 32.8538 10.9638C32.8115 10.919 32.7833 10.8629 32.7725 10.8022C32.7618 10.7416 32.7689 10.6792 32.7932 10.6225C32.8174 10.5659 32.8576 10.5177 32.9089 10.4836C32.9603 10.4496 33.0204 10.4313 33.082 10.431C33.1673 10.4338 33.2481 10.4699 33.3072 10.5316C33.3662 10.5933 33.3988 10.6756 33.398 10.761L33.399 10.767ZM24.521 9.85596L29.408 9.68696L34.293 9.85596C34.3223 9.85751 34.35 9.87033 34.3701 9.89176C34.3902 9.91319 34.4013 9.94156 34.401 9.97096C34.4018 10.0005 34.3909 10.0292 34.3707 10.0507C34.3504 10.0722 34.3225 10.0849 34.293 10.086H24.522C24.4924 10.0849 24.4646 10.0722 24.4443 10.0507C24.4241 10.0292 24.4132 10.0005 24.414 9.97096C24.4121 9.94087 24.4222 9.91125 24.442 9.88858C24.4619 9.8659 24.4899 9.85201 24.52 9.84996L24.521 9.85596ZM28.421 8.95596C28.403 9.03496 28.447 9.11196 28.644 9.10396C28.944 9.09196 29.044 8.87496 28.785 8.74996C28.6283 8.68529 28.4593 8.6556 28.29 8.66296C28.673 8.62496 29.042 8.58396 29.411 8.58396C29.764 8.58396 30.117 8.62496 30.481 8.66196C30.508 8.66196 30.533 8.66796 30.56 8.66896C30.3867 8.66138 30.2138 8.69105 30.053 8.75596C29.794 8.87996 29.883 9.09296 30.178 9.10496C30.378 9.11296 30.419 9.03596 30.401 8.95696C30.788 8.97496 30.817 9.35696 30.283 9.35696C30.1239 9.35935 29.9658 9.33152 29.817 9.27496C29.796 9.36652 29.7446 9.44826 29.6711 9.50679C29.5976 9.56533 29.5064 9.59719 29.4125 9.59719C29.3185 9.59719 29.2274 9.56533 29.1539 9.50679C29.0805 9.44826 29.029 9.36652 29.008 9.27496C28.8589 9.33148 28.7005 9.35931 28.541 9.35696C28.007 9.35696 28.036 8.97096 28.423 8.95696L28.421 8.95596ZM28.121 6.56296C27.9118 6.60982 27.694 6.60061 27.4896 6.53626C27.2851 6.47191 27.1013 6.35469 26.9567 6.19648C26.8121 6.03826 26.7118 5.84467 26.666 5.63526C26.6202 5.42586 26.6306 5.20808 26.696 5.00396C26.71 4.93696 26.725 4.86596 26.741 4.79096C26.9904 4.1076 27.0687 3.37355 26.969 2.65296C27.459 2.92296 27.52 3.62496 27.418 4.35296C27.1978 4.56426 27.0627 4.84883 27.038 5.15296C27.029 5.89796 27.478 6.15296 28.07 6.15296C29.997 6.15296 29.017 3.54096 29.435 1.61496C29.7986 2.48302 29.9823 3.41584 29.975 4.35696C29.508 5.10196 29.686 6.15696 30.8 6.15696C31.392 6.15696 31.84 5.90096 31.832 5.15696C31.8071 4.85288 31.6719 4.56837 31.452 4.35696C31.352 3.63396 31.411 2.93196 31.901 2.65696C31.8015 3.37748 31.8794 4.11139 32.128 4.79496C32.145 4.86996 32.159 4.94096 32.172 5.00796C32.2377 5.21201 32.2482 5.42978 32.2026 5.63923C32.157 5.84867 32.0569 6.04234 31.9123 6.2006C31.7677 6.35887 31.5839 6.47612 31.3795 6.54045C31.175 6.60479 30.9571 6.61393 30.748 6.56696C30.37 6.53896 30.015 6.46696 29.634 6.41396L29.763 8.11396H29.434L29.403 6.41396C29.017 6.45696 28.494 6.52696 28.116 6.55496L28.121 6.56296ZM35.027 14.338C35.033 14.669 35.019 15.02 35.003 15.394C35.003 15.461 35.003 15.53 34.997 15.594L34.759 15.609C34.902 14.5091 34.7555 13.3909 34.334 12.365C34.3875 12.3696 34.4406 12.3779 34.493 12.39C34.5973 12.5355 34.6858 12.6917 34.757 12.856C34.8956 13.3385 34.986 13.8336 35.027 14.334V14.338ZM33.627 15.648C33.545 15.648 33.462 15.648 33.38 15.648C33.4438 14.5326 33.3563 13.4138 33.12 12.322C33.178 12.322 33.233 12.322 33.287 12.322C33.6024 13.3989 33.7176 14.5245 33.627 15.643V15.648ZM34.088 15.637C34.006 15.637 33.925 15.643 33.842 15.644C33.926 14.529 33.8171 13.4079 33.52 12.33C33.574 12.33 33.626 12.33 33.677 12.33C34.0629 13.3841 34.2011 14.5129 34.081 15.629L34.088 15.637ZM33.922 12.337C33.975 12.337 34.022 12.337 34.073 12.344C34.451 13.0667 34.6206 13.8804 34.563 14.694C34.563 14.994 34.555 15.294 34.544 15.616C34.465 15.616 34.384 15.623 34.303 15.625C34.4084 14.5129 34.2761 13.391 33.915 12.334L33.922 12.337ZM31.603 15.624L31.343 15.614C31.343 15.483 31.343 15.35 31.348 15.22C31.3897 14.2528 31.3666 13.284 31.279 12.32H31.379C31.5744 13.4084 31.6473 14.5153 31.596 15.62L31.603 15.624ZM32.085 15.64L31.818 15.633C31.8667 14.5242 31.7926 13.4134 31.597 12.321H31.692C32.0138 13.3963 32.1467 14.5192 32.085 15.64ZM32.572 15.647C32.483 15.647 32.392 15.647 32.301 15.647C32.3548 14.5258 32.2285 13.4032 31.927 12.322H32.004C32.4663 13.3648 32.6589 14.5072 32.564 15.644L32.572 15.647ZM32.609 12.317H32.895C33.0134 12.7303 33.0881 13.155 33.118 13.584C33.0483 13.1274 32.8741 12.6931 32.609 12.315V12.317ZM33.062 15.65H32.787C32.8618 14.5146 32.6821 13.377 32.261 12.32H32.311C32.924 12.92 33.049 14.183 33.06 15.653L33.062 15.65ZM30.962 12.324H31.062C31.1526 13.2848 31.1763 14.2508 31.133 15.215C31.133 15.341 31.133 15.472 31.128 15.6C31.044 15.6 30.961 15.591 30.878 15.585C30.89 15.247 30.903 14.913 30.917 14.591C30.953 13.755 30.986 12.965 30.964 12.323L30.962 12.324ZM30.556 15.561L30.519 14.094C30.525 14.01 30.532 13.924 30.538 13.841C30.582 13.296 30.62 12.78 30.644 12.324H30.744C30.766 12.959 30.732 13.748 30.697 14.582C30.683 14.901 30.67 15.235 30.66 15.57L30.553 15.561H30.556ZM35.208 17.237C33.6729 17.3731 32.1291 17.3794 30.593 17.256L30.568 16.11C32.1134 16.2032 33.6633 16.1979 35.208 16.094V17.234V17.237ZM35.759 20.071C35.3968 19.4191 35.2039 18.6867 35.198 17.941C35.5013 18.6141 35.6892 19.3335 35.754 20.069L35.759 20.071ZM35.833 20.862C35.1084 20.0142 34.7283 18.9255 34.768 17.811C34.839 17.805 34.908 17.802 34.977 17.796C34.9503 18.7739 35.2412 19.7342 35.806 20.533C35.812 20.64 35.82 20.75 35.828 20.86L35.833 20.862ZM35.879 21.562C34.643 20.691 34.39 19.275 34.309 17.837L34.552 17.823C34.5238 18.4436 34.6247 19.0633 34.8485 19.6429C35.0723 20.2225 35.414 20.7493 35.852 21.19C35.86 21.316 35.868 21.438 35.876 21.562H35.879ZM35.924 22.236C34.246 21.395 33.924 19.641 33.841 17.857C33.926 17.857 34.011 17.851 34.094 17.846C34.179 19.397 34.461 20.926 35.894 21.84C35.902 21.975 35.91 22.107 35.92 22.24L35.924 22.236ZM35.996 22.917C33.87 22.174 33.442 20.135 33.374 17.871C33.459 17.871 33.542 17.871 33.625 17.864C33.715 19.764 34.063 21.636 35.949 22.505C35.959 22.645 35.9733 22.7816 35.992 22.915L35.996 22.917ZM32.803 17.878H33.038C33.029 19.692 33.124 21.443 33.908 22.489C33.903 22.511 33.898 22.533 33.895 22.554C33.012 21.519 32.838 19.701 32.803 17.879V17.878ZM33.831 24.489C33.843 24.556 33.858 24.621 33.873 24.689C33.0978 24.409 32.4072 23.9352 31.867 23.3127C31.3268 22.6903 30.955 21.9398 30.787 21.133C30.7012 20.5576 30.6517 19.9775 30.639 19.396L30.606 17.813C30.6177 17.8122 30.6293 17.8122 30.641 17.813C30.722 20.656 31.319 23.469 33.831 24.491V24.489ZM33.77 24.037C33.77 24.1 33.781 24.161 33.789 24.221C31.504 23.205 30.942 20.538 30.858 17.828L31.137 17.844C31.227 20.432 31.715 22.964 33.766 24.035L33.77 24.037ZM33.76 23.6C33.76 23.658 33.76 23.715 33.76 23.771C31.906 22.719 31.446 20.322 31.354 17.855L31.632 17.866C31.721 20.184 32.113 22.505 33.756 23.594L33.76 23.6ZM32.331 17.878H32.588C32.626 19.812 32.815 21.751 33.84 22.823C33.833 22.857 33.828 22.89 33.823 22.923C32.665 21.868 32.4 19.897 32.331 17.875V17.878ZM33.786 23.192C33.78 23.24 33.777 23.292 33.773 23.334C32.302 22.27 31.938 20.076 31.848 17.87L32.116 17.876C32.184 20.009 32.471 22.102 33.782 23.194L33.786 23.192ZM36.126 23.568C35.6862 23.5266 35.2626 23.3817 34.8897 23.1449C34.5168 22.9081 34.2055 22.5864 33.981 22.206C33.5385 21.3643 33.3039 20.4289 33.297 19.478C33.556 21.162 34.25 22.592 36.038 23.17C36.063 23.308 36.09 23.443 36.125 23.57L36.126 23.568ZM34.296 23.226C34.9597 23.793 35.8001 24.1112 36.673 24.126C36 22.433 36.838 18.654 35.281 17.77C35.447 17.757 35.605 17.743 35.756 17.724V17.224C35.937 17.224 36.085 16.958 36.085 16.624C36.0873 16.4772 36.0529 16.3321 35.985 16.202C35.9657 16.1551 35.9342 16.1144 35.8937 16.0839C35.8533 16.0535 35.8053 16.0345 35.755 16.029V15.529L35.362 15.559C35.875 14.591 35.294 12.426 35 11.725C35.0173 11.7027 35.0295 11.677 35.0358 11.6495C35.042 11.6221 35.0422 11.5936 35.0363 11.566C35.0304 11.5385 35.0186 11.5126 35.0016 11.4901C34.9846 11.4676 34.9629 11.4492 34.938 11.436L34.908 10.062C34.901 9.67996 34.581 9.66196 34.245 9.53196C33.1906 9.1192 32.0893 8.83808 30.966 8.69496L30.895 8.27296L30.195 7.99096L30.119 6.94396C30.347 6.96896 30.571 6.99696 30.744 7.00896C31.0332 7.05762 31.3299 7.03376 31.6075 6.93951C31.8852 6.84526 32.1352 6.68358 32.335 6.46896C32.5125 6.2108 32.6283 5.91534 32.6736 5.60534C32.7188 5.29533 32.6923 4.97908 32.596 4.68096C32.304 3.40996 32.088 2.70396 32.511 2.24196C30.984 2.32296 30.727 3.06096 31.011 4.59396C31.485 4.82596 31.44 5.67396 30.799 5.66996C30.106 5.66396 30.118 4.86996 30.457 4.53196C30.4452 3.16717 30.0937 1.82681 29.434 0.631958C28.7721 1.82601 28.4197 3.16678 28.409 4.53196C28.751 4.87296 28.763 5.66396 28.067 5.66996C27.427 5.66996 27.384 4.82596 27.856 4.59396C28.137 3.06196 27.879 2.32296 26.35 2.24196C26.682 3.08396 26.557 3.40996 26.265 4.68096C26.1698 4.97939 26.144 5.29565 26.1898 5.60556C26.2355 5.91546 26.3516 6.21079 26.529 6.46896C26.7287 6.68373 26.9786 6.84551 27.2563 6.93977C27.5341 7.03403 27.8308 7.0578 28.12 7.00896C28.291 6.99696 28.514 6.96796 28.743 6.94396L28.667 7.99096L27.967 8.27296L27.899 8.69296C26.7777 8.83412 25.6788 9.11601 24.628 9.53196C24.292 9.66196 23.973 9.67996 23.965 10.062L23.935 11.385L23.847 11.436C23.8218 11.4488 23.7997 11.4671 23.7824 11.4895C23.7651 11.5119 23.753 11.5379 23.7469 11.5655C23.7409 11.5932 23.7412 11.6218 23.7476 11.6494C23.754 11.677 23.7664 11.7028 23.784 11.725C23.4348 12.5227 23.2404 13.3796 23.211 14.25C23.2025 14.7068 23.289 15.1603 23.465 15.582C23.327 15.566 23.197 15.549 23.071 15.529V16.029C22.89 16.029 22.741 16.295 22.741 16.629C22.741 16.963 22.889 17.229 23.071 17.229V17.729C23.179 17.75 23.294 17.765 23.413 17.782C22.048 20.417 23.332 24.704 25.998 25.827C26.1091 25.2834 26.3095 24.762 26.591 24.284C26.7312 24.866 27.0077 25.4064 27.3976 25.8607C27.7876 26.315 28.2799 26.6702 28.834 26.897V28.867C29.034 28.877 29.234 28.881 29.434 28.881C29.634 28.881 29.841 28.881 30.043 28.863V27.333C30.09 27.343 30.234 27.398 30.374 27.446C30.3482 27.0713 30.3754 26.6949 30.455 26.328L31.111 26.504L31.634 25.163C32.6712 25.6942 33.8332 25.9337 34.996 25.856C34.4484 25.0954 34.1993 24.1602 34.296 23.228V23.226Z" fill="white"/>
</svg>
