<svg width="297" height="46" viewBox="0 0 297 46" fill="none" xmlns="http://www.w3.org/2000/svg">
    <path d="M296.947 40.306H0.832031V45.195H296.947V40.306Z" fill="#FAAF41"/>
    <path d="M248.655 28.741L254.443 22.953L248.655 17.164L242.867 22.953L248.655 28.741ZM270.484 36.28H276.853L284.373 28.741L291.909 36.28H296.943V38.195H291.111L284.365 31.449L277.634 38.195H270.08L269.403 37.915L262.937 31.449L256.471 37.915L255.794 38.195H248.24L241.508 31.449L234.762 38.195H0.827881V36.28H233.974L241.513 28.741L249.033 36.28H255.402L261.587 30.095L255.798 24.306L248.655 31.449L240.155 22.949L248.655 14.449L255.798 21.592L261.587 15.803L254.444 8.66003L262.944 0.160034L271.444 8.66003L270.767 9.33704L264.301 15.803L270.089 21.592L277.232 14.449L285.732 22.949L285.055 23.626L277.235 31.446L270.092 24.303L264.304 30.091L270.489 36.276L270.484 36.28ZM262.945 14.451L268.734 8.66203L262.945 2.87304L257.157 8.66203L262.945 14.451ZM277.23 28.736L283.019 22.947L277.23 17.158L271.442 22.947L277.23 28.736ZM262.945 28.74L268.734 22.951L262.945 17.163L257.157 22.951L262.945 28.74Z" fill="#FAAF41"/>
</svg>
