<svg width="326" height="254" viewBox="0 0 326 254" fill="none" xmlns="http://www.w3.org/2000/svg">
    <path fill-rule="evenodd" clip-rule="evenodd" d="M163.372 0.963989C192.827 0.966777 221.728 8.96836 246.991 24.1145C272.253 39.2607 292.928 60.9829 306.808 86.9621C320.689 112.941 327.254 142.202 325.802 171.621C324.351 201.04 314.938 229.513 298.567 254H28.1723C11.8021 229.513 2.38879 201.04 0.937363 171.621C-0.514063 142.202 6.05089 112.941 19.9314 86.9621C33.8119 60.9829 54.4867 39.2607 79.749 24.1145C105.011 8.96836 133.912 0.966777 163.367 0.963989L163.372 0.963989Z" fill="url(#paint0_linear_740_100)"/>
    <mask id="mask0_740_100" style="mask-type:luminance" maskUnits="userSpaceOnUse" x="0" y="0" width="326" height="254">
        <path fill-rule="evenodd" clip-rule="evenodd" d="M163.372 0.963989C192.827 0.966777 221.728 8.96836 246.99 24.1145C272.252 39.2607 292.927 60.9829 306.808 86.9621C320.688 112.941 327.253 142.202 325.802 171.621C324.35 201.04 314.937 229.513 298.567 254H28.1719C11.8016 229.513 2.3883 201.04 0.936875 171.621C-0.514552 142.202 6.05041 112.941 19.9309 86.9621C33.8114 60.9829 54.4863 39.2607 79.7485 24.1145C105.011 8.96836 133.912 0.966777 163.367 0.963989L163.372 0.963989Z" fill="white"/>
    </mask>
    <g mask="url(#mask0_740_100)">
        <g opacity="0.677">
            <path d="M71.8831 230.872L63.755 222.744L56.4811 230.018L64.2571 237.794H72.264L81.7211 228.316L91.1991 237.794H97.531V240.202H90.2001L81.719 231.721L73.255 240.202H63.76L62.906 239.849L54.7781 231.721L46.65 239.849L45.796 240.202H36.296L27.8311 231.721L19.3501 240.202H12.021V237.794H18.353L27.8311 228.316L37.2881 237.794H45.295L53.071 230.018L45.797 222.744L36.8141 231.726L35.9601 230.872L26.123 221.035L36.8081 210.35L45.791 219.327L53.0651 212.053L44.082 203.071L54.7671 192.386L65.452 203.071L56.469 212.053L63.743 219.327L72.7261 210.35L83.411 221.035L72.7261 231.725L71.8721 230.871L71.8831 230.872ZM47.498 203.072L54.7721 210.346L62.052 203.072L54.7721 195.798L47.498 203.072ZM29.5391 221.037L36.813 228.311L44.087 221.037L36.813 213.757L29.5391 221.037ZM47.498 221.037L54.7721 228.311L62.046 221.037L54.7721 213.763L47.498 221.037ZM65.457 221.037L72.7311 228.311L80.005 221.037L72.7311 213.757L65.457 221.037Z" fill="#4656C8"/>
            <path d="M289.088 230.872L280.96 222.744L273.686 230.018L281.462 237.794H289.469L298.926 228.316L308.404 237.794H314.736V240.202H307.407L298.924 231.725L290.459 240.206H280.964L280.11 239.853L271.982 231.725L263.854 239.853L263 240.206H253.5L245.036 231.725L236.555 240.206H229.964C211.208 256.534 187.107 265.401 162.241 265.123C137.376 264.844 113.479 255.44 95.0938 238.696L95.9148 237.796H97.7388C115.841 253.841 139.193 262.7 163.382 262.7C187.572 262.7 210.924 253.841 229.026 237.796H235.562L245.041 228.318L254.497 237.796H262.504L270.28 230.02L263.006 222.746L254.024 231.725L253.17 230.871L243.333 221.034L254.018 210.349L263.001 219.326L270.275 212.052L261.293 203.07L271.978 192.385L282.663 203.07L273.68 212.052L280.954 219.326L289.937 210.349L300.624 221.035L289.937 231.725L289.083 230.871L289.088 230.872ZM264.703 203.072L271.977 210.346L279.257 203.072L271.977 195.798L264.703 203.072ZM246.743 221.037L254.017 228.311L261.291 221.037L254.017 213.757L246.743 221.037ZM264.703 221.037L271.977 228.311L279.251 221.037L271.977 213.763L264.703 221.037ZM282.662 221.037L289.936 228.311L297.21 221.037L289.936 213.757L282.662 221.037Z" fill="#4656C8"/>
        </g>
    </g>
    <path d="M116.355 59.438L111.439 48.422L113.671 47.414L118.576 58.43L116.355 59.438ZM149.447 50.169L148.185 38.169L150.61 37.927L151.872 49.927L149.453 50.169H149.447ZM138.11 52.098L135.592 40.298L137.992 39.791L140.492 51.591L138.106 52.098H138.11ZM127.039 55.184L123.309 43.711L125.634 42.956L129.365 54.429L127.045 55.184H127.039Z" fill="#FEFEFE"/>
    <path d="M70.5834 96.919L60.8184 89.838L62.2454 87.854L72.0044 94.941L70.5884 96.925L70.5834 96.919ZM94.6104 72.347L87.5183 62.588L89.4963 61.166L96.5884 70.931L94.6154 72.347H94.6104ZM85.7544 79.682L77.6753 70.727L79.4994 69.085L87.5724 78.051L85.7544 79.682ZM77.7084 87.893L68.7373 79.82L70.3744 78.007L79.3403 86.075L77.7094 87.894L77.7084 87.893Z" fill="#FEFEFE"/>
    <path d="M49.6802 152.266L37.6802 151.015L37.9222 148.579L49.9132 149.835L49.6761 152.26L49.6802 152.266ZM58.2002 118.966L47.1792 114.066L48.1792 111.845L59.2062 116.755L58.2002 118.966ZM54.2002 129.751L42.7272 126.031L43.4872 123.694L54.9612 127.425L54.2062 129.745L54.2002 129.751ZM51.3402 140.883L39.5402 138.376L40.0472 135.984L51.8472 138.491L51.3402 140.883Z" fill="#FEFEFE"/>
    <path d="M174.73 49.866L175.981 37.866L178.417 38.108L177.161 50.099L174.735 49.862L174.73 49.866ZM208.031 58.386L212.931 47.365L215.151 48.365L210.241 59.386L208.031 58.386ZM197.245 54.386L200.965 42.913L203.302 43.673L199.57 55.146L197.25 54.391L197.245 54.386ZM186.115 51.526L188.621 39.726L191.013 40.238L188.506 52.038L186.115 51.526Z" fill="#FEFEFE"/>
    <path d="M230.074 70.7679L237.155 61.0029L239.139 62.4299L232.052 72.1839L230.068 70.7679H230.074ZM254.646 94.7949L264.406 87.7029L265.828 89.6809L256.063 96.7729L254.647 94.7999L254.646 94.7949ZM247.311 85.9389L256.266 77.8599L257.908 79.6839L248.942 87.7519L247.311 85.9329V85.9389ZM239.1 77.8929L247.173 68.9269L248.986 70.5639L240.918 79.5299L239.1 77.8989V77.8929Z" fill="#FEFEFE"/>
    <path d="M267.554 116.541L278.57 111.625L279.579 113.857L268.563 118.767L267.555 116.546L267.554 116.541ZM276.823 149.633L288.823 148.371L289.066 150.79L277.066 152.052L276.823 149.633ZM274.894 138.292L286.694 135.774L287.201 138.174L275.401 140.681L274.894 138.292ZM271.808 127.221L283.281 123.49L284.034 125.815L272.561 129.546L271.806 127.226L271.808 127.221Z" fill="#FEFEFE"/>
    <path d="M112.42 76.0201C112.491 76.0156 112.562 76.0256 112.629 76.0493C112.697 76.073 112.758 76.11 112.811 76.1581C112.858 76.2057 112.896 76.2626 112.92 76.3252C112.945 76.3878 112.957 76.4548 112.955 76.5221V77.4221H107.383V76.9221C107.386 76.8149 107.407 76.7089 107.444 76.6081C107.487 76.4915 107.555 76.386 107.644 76.2991L110.025 73.9131C110.225 73.7131 110.405 73.5131 110.565 73.3291C110.709 73.1586 110.838 72.9759 110.951 72.7831C111.052 72.6123 111.13 72.4286 111.182 72.2371C111.233 72.0466 111.259 71.8503 111.259 71.6531C111.269 71.5056 111.25 71.3574 111.203 71.2173C111.155 71.0772 111.081 70.948 110.983 70.8371C110.878 70.7398 110.755 70.6647 110.621 70.6164C110.486 70.5681 110.343 70.5476 110.201 70.5561C110.062 70.5547 109.924 70.577 109.793 70.6221C109.673 70.6605 109.561 70.7201 109.462 70.7981C109.365 70.8716 109.279 70.9589 109.208 71.0571C109.138 71.1556 109.086 71.2656 109.054 71.3821C109.014 71.5349 108.917 71.6669 108.784 71.7511C108.633 71.8172 108.465 71.8327 108.305 71.7951L107.495 71.6521C107.546 71.2921 107.658 70.9435 107.826 70.6211C107.979 70.3369 108.187 70.0861 108.438 69.8831C108.686 69.6838 108.971 69.534 109.276 69.4421C109.604 69.3405 109.946 69.2903 110.29 69.2931C110.643 69.2875 110.994 69.3454 111.326 69.4641C111.621 69.5652 111.893 69.7243 112.126 69.9321C112.348 70.1334 112.524 70.3818 112.639 70.6591C112.762 70.9576 112.824 71.278 112.821 71.6011C112.822 71.8797 112.779 72.1569 112.694 72.4221C112.61 72.6748 112.493 72.9155 112.347 73.1381C112.196 73.372 112.027 73.5931 111.84 73.7991C111.647 74.0141 111.44 74.2291 111.228 74.4491L109.528 76.1901C109.711 76.1363 109.896 76.0922 110.084 76.0581C110.255 76.0282 110.428 76.0135 110.602 76.0141H112.409L112.42 76.0201ZM119.595 73.4021C119.605 74.0196 119.528 74.6355 119.369 75.2321C119.244 75.6948 119.03 76.1288 118.74 76.5101C118.492 76.8344 118.168 77.0935 117.798 77.2651C117.427 77.4286 117.026 77.5131 116.621 77.5131C116.216 77.5131 115.815 77.4286 115.445 77.2651C115.075 77.0952 114.753 76.8357 114.508 76.5101C114.222 76.1274 114.013 75.6936 113.891 75.2321C113.59 74.0327 113.59 72.7775 113.891 71.5781C114.014 71.1152 114.225 70.6803 114.513 70.2971C114.758 69.9718 115.08 69.7124 115.45 69.5421C115.821 69.3786 116.221 69.2941 116.626 69.2941C117.031 69.2941 117.432 69.3786 117.803 69.5421C118.174 69.7119 118.498 69.9713 118.745 70.2971C119.032 70.6802 119.246 71.1136 119.374 71.5751C119.532 72.1708 119.607 72.7858 119.595 73.4021ZM118.019 73.4021C118.029 72.9308 117.988 72.4598 117.898 71.9971C117.843 71.6895 117.737 71.3933 117.584 71.1211C117.481 70.9327 117.326 70.7779 117.138 70.6751C116.977 70.5937 116.8 70.5503 116.62 70.5481C116.441 70.5496 116.266 70.5931 116.108 70.6751C115.925 70.7815 115.774 70.9357 115.672 71.1211C115.523 71.3947 115.418 71.6905 115.363 71.9971C115.208 72.9294 115.208 73.8808 115.363 74.8131C115.418 75.1197 115.523 75.4155 115.672 75.6891C115.772 75.8757 115.924 76.0302 116.108 76.1351C116.265 76.2202 116.441 76.2639 116.62 76.2621C116.8 76.2599 116.977 76.2165 117.138 76.1351C117.325 76.0307 117.479 75.8763 117.584 75.6891C117.737 75.4169 117.843 75.1207 117.898 74.8131C117.988 74.3484 118.029 73.8754 118.019 73.4021Z" fill="white"/>
    <path d="M74.5242 114.061V115.185H70.0161V114.061H71.6091V109.661C71.6091 109.567 71.6091 109.468 71.6141 109.369C71.6191 109.27 71.6252 109.169 71.6312 109.069L70.5792 109.945C70.5157 109.994 70.4422 110.028 70.3641 110.045C70.2985 110.062 70.2298 110.062 70.1642 110.045C70.1052 110.035 70.049 110.012 69.9991 109.979C69.9564 109.953 69.9191 109.919 69.8892 109.879L69.4092 109.229L71.8782 107.135H73.1351V114.051H74.5242V114.061ZM81.3522 111.168C81.362 111.786 81.286 112.401 81.1262 112.998C81.0016 113.461 80.7883 113.895 80.4982 114.276C80.2499 114.6 79.9266 114.859 79.5562 115.031C79.1855 115.195 78.7848 115.279 78.3796 115.279C77.9745 115.279 77.5738 115.195 77.2031 115.031C76.833 114.861 76.511 114.602 76.2661 114.276C75.9805 113.894 75.7711 113.46 75.6492 112.998C75.3475 111.799 75.3475 110.543 75.6492 109.344C75.771 108.882 75.9804 108.448 76.2661 108.065C76.5113 107.74 76.8332 107.481 77.2031 107.31C77.5738 107.146 77.9745 107.062 78.3796 107.062C78.7848 107.062 79.1855 107.146 79.5562 107.31C79.9277 107.48 80.2514 107.739 80.4982 108.065C80.7852 108.449 80.9983 108.882 81.1262 109.344C81.2856 109.938 81.361 110.552 81.3502 111.167L81.3522 111.168ZM79.7761 111.168C79.786 110.697 79.7454 110.226 79.6552 109.763C79.6008 109.455 79.4946 109.159 79.3412 108.887C79.2385 108.699 79.0836 108.544 78.8951 108.441C78.7345 108.36 78.5573 108.316 78.3772 108.314C78.1989 108.316 78.0235 108.359 77.8651 108.441C77.6821 108.548 77.5315 108.702 77.4292 108.887C77.2805 109.161 77.1765 109.457 77.1212 109.763C76.9667 110.695 76.9667 111.647 77.1212 112.579C77.1764 112.886 77.2803 113.181 77.4292 113.455C77.5298 113.642 77.6808 113.796 77.8651 113.901C78.0223 113.986 78.1985 114.03 78.3772 114.028C78.5573 114.026 78.7345 113.982 78.8951 113.901C79.0824 113.797 79.2369 113.642 79.3412 113.455C79.4946 113.183 79.6008 112.887 79.6552 112.579C79.7458 112.114 79.7863 111.641 79.7761 111.167V111.168Z" fill="white"/>
    <path d="M158.794 60.37C158.845 60.01 158.957 59.6614 159.125 59.339C159.279 59.055 159.486 58.8041 159.737 58.601C159.984 58.4029 160.267 58.2533 160.569 58.16C160.896 58.0589 161.236 58.0087 161.577 58.011C161.928 58.0053 162.277 58.0612 162.608 58.176C162.891 58.2742 163.153 58.4256 163.379 58.622C163.587 58.8046 163.753 59.0301 163.864 59.283C163.975 59.5385 164.032 59.8144 164.029 60.093C164.032 60.3193 164.006 60.5451 163.952 60.765C163.904 60.9467 163.824 61.1183 163.715 61.272C163.609 61.4149 163.479 61.5381 163.33 61.636C163.165 61.7404 162.987 61.8237 162.801 61.884C163.212 61.9811 163.575 62.219 163.827 62.5564C164.08 62.8937 164.206 63.3091 164.184 63.73C164.191 64.1025 164.114 64.4717 163.958 64.81C163.817 65.1143 163.607 65.3821 163.346 65.593C163.084 65.8074 162.783 65.9684 162.459 66.067C162.117 66.1732 161.76 66.2272 161.401 66.227C161.052 66.2327 160.703 66.1882 160.365 66.095C160.08 66.0126 159.812 65.8769 159.577 65.695C159.344 65.51 159.146 65.284 158.993 65.028C158.82 64.7313 158.678 64.4173 158.569 64.091L159.247 63.815C159.403 63.7414 159.578 63.72 159.747 63.754C159.817 63.7662 159.884 63.7944 159.941 63.8364C159.998 63.8783 160.045 63.933 160.078 63.996C160.148 64.13 160.227 64.259 160.315 64.382C160.394 64.4961 160.487 64.5999 160.591 64.691C160.697 64.7776 160.816 64.8453 160.944 64.891C161.089 64.9421 161.243 64.9665 161.396 64.963C161.587 64.9697 161.776 64.9356 161.952 64.863C162.104 64.8002 162.24 64.7062 162.352 64.587C162.456 64.4766 162.538 64.3477 162.594 64.207C162.646 64.0718 162.672 63.9279 162.671 63.783C162.673 63.615 162.656 63.4474 162.621 63.283C162.588 63.1356 162.509 63.0026 162.395 62.903C162.241 62.7817 162.059 62.6987 161.866 62.661C161.553 62.5987 161.233 62.5709 160.913 62.578V61.503C161.191 61.5091 161.469 61.4812 161.74 61.42C161.922 61.38 162.092 61.3012 162.24 61.189C162.356 61.0954 162.444 60.9715 162.494 60.831C162.54 60.683 162.562 60.5288 162.56 60.374C162.57 60.229 162.551 60.0834 162.504 59.9459C162.456 59.8084 162.382 59.6819 162.284 59.574C162.18 59.4781 162.057 59.4042 161.924 59.3568C161.79 59.3094 161.649 59.2894 161.507 59.298C161.369 59.2966 161.231 59.319 161.099 59.364C160.979 59.4025 160.867 59.4621 160.768 59.54C160.672 59.6136 160.587 59.7009 160.515 59.799C160.445 59.8975 160.393 60.0075 160.361 60.124C160.317 60.2749 160.222 60.4055 160.091 60.493C159.941 60.5592 159.773 60.5746 159.612 60.537L158.812 60.394L158.794 60.37ZM170.841 62.117C170.851 62.7345 170.775 63.3504 170.615 63.947C170.491 64.4097 170.277 64.8437 169.987 65.225C169.739 65.5492 169.416 65.8082 169.045 65.98C168.675 66.1435 168.274 66.228 167.869 66.228C167.464 66.228 167.063 66.1435 166.692 65.98C166.322 65.81 166 65.5505 165.755 65.225C165.47 64.8424 165.26 64.4085 165.138 63.947C164.837 62.7477 164.837 61.4924 165.138 60.293C165.26 59.8315 165.47 59.3977 165.755 59.015C166.001 58.6898 166.322 58.4304 166.692 58.26C167.063 58.0965 167.464 58.0121 167.869 58.0121C168.274 58.0121 168.675 58.0965 169.045 58.26C169.417 58.43 169.741 58.6894 169.987 59.015C170.274 59.3982 170.487 59.8316 170.615 60.293C170.775 60.8872 170.851 61.5008 170.84 62.116L170.841 62.117ZM169.265 62.117C169.275 61.6457 169.235 61.1747 169.144 60.712C169.09 60.4043 168.984 60.1081 168.83 59.836C168.728 59.6476 168.573 59.4927 168.384 59.39C168.224 59.3086 168.046 59.2652 167.866 59.263C167.688 59.2646 167.513 59.3081 167.354 59.39C167.172 59.4966 167.021 59.6508 166.919 59.836C166.77 60.1097 166.666 60.4054 166.61 60.712C166.456 61.6444 166.456 62.5957 166.61 63.528C166.666 63.8347 166.77 64.1304 166.919 64.404C167.02 64.5905 167.17 64.7451 167.354 64.85C167.512 64.9351 167.688 64.9788 167.866 64.977C168.046 64.9748 168.224 64.9314 168.384 64.85C168.571 64.7457 168.726 64.5912 168.83 64.404C168.984 64.1319 169.09 63.8357 169.144 63.528C169.235 63.063 169.275 62.5896 169.264 62.116L169.265 62.117Z" fill="white"/>
    <path d="M212.772 74.35V71.958C212.772 71.831 212.777 71.699 212.788 71.558C212.799 71.417 212.81 71.266 212.832 71.112L210.507 74.352H212.777L212.772 74.35ZM215.031 74.35V75.215C215.031 75.2522 215.024 75.2891 215.01 75.3235C214.996 75.3579 214.975 75.389 214.948 75.415C214.919 75.4455 214.884 75.4692 214.845 75.4844C214.806 75.4996 214.764 75.506 214.722 75.503H214.099V77.415H212.771V75.503H209.454C209.358 75.5043 209.265 75.4733 209.189 75.415C209.114 75.358 209.061 75.2762 209.04 75.184L208.88 74.418L212.644 69.376H214.093V74.347H215.024L215.031 74.35ZM221.468 73.397C221.478 74.0145 221.402 74.6304 221.242 75.227C221.117 75.69 220.904 76.1244 220.614 76.506C220.366 76.8301 220.042 77.0892 219.672 77.261C219.301 77.4245 218.9 77.5089 218.495 77.5089C218.09 77.5089 217.69 77.4245 217.319 77.261C216.949 77.0911 216.627 76.8316 216.382 76.506C216.096 76.1231 215.887 75.6889 215.765 75.227C215.463 74.0276 215.463 72.7723 215.765 71.573C215.887 71.1111 216.096 70.6769 216.382 70.294C216.627 69.9687 216.949 69.7093 217.319 69.539C217.69 69.3755 218.09 69.291 218.495 69.291C218.9 69.291 219.301 69.3755 219.672 69.539C220.043 69.7089 220.367 69.9683 220.614 70.294C220.901 70.6775 221.114 71.1113 221.242 71.573C221.402 72.1688 221.478 72.7841 221.467 73.401L221.468 73.397ZM219.892 73.397C219.902 72.9257 219.861 72.4547 219.771 71.992C219.716 71.6843 219.61 71.3881 219.457 71.116C219.354 70.9276 219.199 70.7727 219.011 70.67C218.85 70.5886 218.673 70.5451 218.493 70.543C218.315 70.5445 218.139 70.588 217.981 70.67C217.798 70.7765 217.647 70.9306 217.545 71.116C217.396 71.3897 217.292 71.6854 217.237 71.992C217.083 72.9243 217.083 73.8756 217.237 74.808C217.292 75.1146 217.396 75.4103 217.545 75.684C217.646 75.8706 217.797 76.0251 217.981 76.13C218.138 76.2151 218.314 76.2588 218.493 76.257C218.673 76.2548 218.85 76.2114 219.011 76.13C219.198 76.0255 219.352 75.8711 219.457 75.684C219.61 75.4118 219.716 75.1156 219.771 74.808C219.861 74.3446 219.901 73.8729 219.891 73.401L219.892 73.397Z" fill="white"/>
    <path d="M8.29639 163.591C8.29639 122.461 24.6351 83.016 53.7183 53.9329C82.8014 24.8497 122.247 8.51099 163.376 8.51099C204.506 8.51099 243.951 24.8497 273.035 53.9329C302.118 83.016 318.456 122.461 318.456 163.591H316.621C316.621 122.949 300.476 83.971 271.738 55.2325C242.999 26.4941 204.022 10.349 163.379 10.349C122.737 10.349 83.7594 26.4941 55.021 55.2325C26.2825 83.971 10.1375 122.949 10.1375 163.591H8.30237H8.29639Z" fill="url(#paint1_linear_740_100)"/>
    <path d="M163.373 18.1079C201.957 18.1084 238.961 33.4362 266.245 60.7195C293.528 88.0027 308.856 125.007 308.856 163.591H280.404L295.581 155.397C294.512 137.718 289.89 120.436 281.992 104.583L264.722 105.083L273.776 90.3829C263.975 75.6359 251.331 62.992 236.584 53.1909L221.884 62.2509L222.374 44.9749C206.524 37.0724 189.243 32.4485 171.565 31.3799L163.365 46.5729L155.171 31.3909C137.492 32.4577 120.209 37.0795 104.357 44.9799L104.857 62.2449L90.1571 53.1909C75.4076 62.9915 62.7609 75.6355 52.9572 90.3829L62.0171 105.083L44.7411 104.593C36.8369 120.442 32.2114 137.723 31.1411 155.402L46.3341 163.602H17.8901C17.8891 144.496 21.6513 125.577 28.962 107.925C36.2727 90.2732 46.9888 74.2341 60.4982 60.7237C74.0076 47.2132 90.0458 36.496 107.697 29.184C125.348 21.872 144.267 18.1083 163.373 18.1079Z" fill="url(#paint2_linear_740_100)"/>
    <path d="M248.111 110.026C248.269 109.992 248.429 109.968 248.59 109.954C248.739 109.939 248.888 109.931 249.037 109.932C249.419 109.926 249.799 109.992 250.156 110.125C250.462 110.24 250.74 110.419 250.972 110.648C251.195 110.869 251.366 111.136 251.472 111.431C251.584 111.74 251.64 112.066 251.637 112.395C251.642 112.796 251.565 113.193 251.411 113.563C251.268 113.907 251.054 114.217 250.783 114.472C250.506 114.731 250.181 114.931 249.825 115.062C249.435 115.204 249.022 115.275 248.607 115.271C248.36 115.272 248.114 115.244 247.874 115.188C247.652 115.135 247.434 115.064 247.224 114.973C247.026 114.888 246.838 114.783 246.662 114.659C246.498 114.549 246.343 114.426 246.199 114.29L246.667 113.645C246.71 113.582 246.768 113.531 246.835 113.496C246.902 113.461 246.977 113.444 247.053 113.445C247.157 113.448 247.257 113.478 247.345 113.533C247.445 113.594 247.545 113.654 247.67 113.726C247.806 113.805 247.948 113.871 248.095 113.926C248.287 113.99 248.488 114.02 248.69 114.014C248.906 114.02 249.12 113.978 249.318 113.893C249.488 113.82 249.639 113.709 249.759 113.568C249.878 113.424 249.967 113.258 250.018 113.078C250.075 112.879 250.103 112.673 250.101 112.466C250.113 112.289 250.088 112.112 250.026 111.945C249.964 111.779 249.868 111.628 249.743 111.502C249.455 111.258 249.084 111.135 248.707 111.16C248.323 111.163 247.943 111.233 247.583 111.369L246.635 111.104L247.313 107.153H251.342V107.798C251.343 107.897 251.328 107.996 251.298 108.09C251.267 108.177 251.214 108.255 251.143 108.316C251.064 108.386 250.97 108.437 250.868 108.465C250.734 108.503 250.595 108.521 250.455 108.52H248.377L248.118 110.035L248.111 110.026ZM258.366 111.161C258.376 111.779 258.3 112.394 258.14 112.991C258.016 113.454 257.802 113.888 257.512 114.269C257.264 114.593 256.94 114.852 256.569 115.024C256.199 115.188 255.798 115.272 255.393 115.272C254.988 115.272 254.587 115.188 254.216 115.024C253.846 114.854 253.524 114.595 253.279 114.269C252.994 113.886 252.784 113.453 252.662 112.991C252.361 111.792 252.361 110.536 252.662 109.337C252.784 108.875 252.994 108.441 253.279 108.058C253.524 107.733 253.846 107.473 254.216 107.303C254.587 107.139 254.988 107.055 255.393 107.055C255.798 107.055 256.199 107.139 256.569 107.303C256.941 107.473 257.265 107.732 257.512 108.058C257.799 108.441 258.012 108.875 258.14 109.337C258.3 109.931 258.376 110.545 258.366 111.161ZM256.79 111.161C256.8 110.69 256.759 110.219 256.669 109.756C256.615 109.448 256.509 109.152 256.355 108.88C256.253 108.691 256.098 108.537 255.909 108.434C255.748 108.353 255.571 108.309 255.391 108.307C255.213 108.308 255.037 108.352 254.878 108.434C254.696 108.541 254.545 108.695 254.443 108.88C254.294 109.154 254.19 109.449 254.134 109.756C253.98 110.688 253.98 111.64 254.134 112.572C254.19 112.879 254.294 113.174 254.443 113.448C254.544 113.634 254.694 113.789 254.878 113.894C255.036 113.979 255.212 114.023 255.391 114.021C255.571 114.019 255.748 113.975 255.909 113.894C256.096 113.79 256.251 113.635 256.355 113.448C256.509 113.176 256.615 112.88 256.669 112.572C256.76 112.107 256.8 111.634 256.79 111.161Z" fill="white"/>
    <defs>
        <linearGradient id="paint0_linear_740_100" x1="223.543" y1="156.328" x2="222.362" y2="284.624" gradientUnits="userSpaceOnUse">
            <stop stop-color="#001F5A"/>
            <stop offset="0.808" stop-color="#30358E"/>
            <stop offset="1" stop-color="#4656C8"/>
        </linearGradient>
        <linearGradient id="paint1_linear_740_100" x1="20.3926" y1="185.612" x2="140.84" y2="71.7786" gradientUnits="userSpaceOnUse">
            <stop stop-color="#FFFF00"/>
            <stop offset="1" stop-color="#FF3B63"/>
        </linearGradient>
        <linearGradient id="paint2_linear_740_100" x1="29.2378" y1="184.262" x2="142.239" y2="77.4733" gradientUnits="userSpaceOnUse">
            <stop stop-color="#FFFF00"/>
            <stop offset="1" stop-color="#FF3B63"/>
        </linearGradient>
    </defs>
</svg>
