<svg width="51" height="39" viewBox="0 0 51 39" fill="none" xmlns="http://www.w3.org/2000/svg">
    <path d="M22.351 26.1951H7C6.73478 26.1951 6.48043 26.0897 6.29289 25.9022C6.10536 25.7146 6 25.4603 6 25.1951C6 24.9299 6.10536 24.6755 6.29289 24.488C6.48043 24.3004 6.73478 24.1951 7 24.1951H22.351C22.6162 24.1951 22.8706 24.3004 23.0581 24.488C23.2456 24.6755 23.351 24.9299 23.351 25.1951C23.351 25.4603 23.2456 25.7146 23.0581 25.9022C22.8706 26.0897 22.6162 26.1951 22.351 26.1951Z" fill="white"/>
    <path d="M22.351 14.1951H7C6.73478 14.1951 6.48043 14.0897 6.29289 13.9022C6.10536 13.7146 6 13.4603 6 13.1951C6 12.9299 6.10536 12.6755 6.29289 12.488C6.48043 12.3004 6.73478 12.1951 7 12.1951H22.351C22.6162 12.1951 22.8706 12.3004 23.0581 12.488C23.2456 12.6755 23.351 12.9299 23.351 13.1951C23.351 13.4603 23.2456 13.7146 23.0581 13.9022C22.8706 14.0897 22.6162 14.1951 22.351 14.1951Z" fill="white"/>
    <path d="M21 20.1951H1C0.734784 20.1951 0.48043 20.0897 0.292893 19.9022C0.105357 19.7146 0 19.4603 0 19.1951C0 18.9299 0.105357 18.6755 0.292893 18.488C0.48043 18.3004 0.734784 18.1951 1 18.1951H21C21.2652 18.1951 21.5196 18.3004 21.7071 18.488C21.8946 18.6755 22 18.9299 22 19.1951C22 19.4603 21.8946 19.7146 21.7071 19.9022C21.5196 20.0897 21.2652 20.1951 21 20.1951Z" fill="white"/>
    <path d="M31 23.095C30.2332 23.0753 29.4892 22.83 28.8612 22.3897C28.2331 21.9493 27.7488 21.3336 27.4689 20.6195C27.189 19.9053 27.1259 19.1245 27.2875 18.3747C27.4491 17.6249 27.8282 16.9393 28.3774 16.4039C28.9266 15.8684 29.6215 15.5068 30.3751 15.3642C31.1288 15.2217 31.9078 15.3045 32.6146 15.6024C33.3214 15.9003 33.9247 16.4 34.349 17.039C34.7733 17.678 34.9997 18.4279 35 19.195C35.01 19.7184 34.9127 20.2384 34.7139 20.7228C34.5152 21.2071 34.2192 21.6456 33.8444 22.0111C33.4695 22.3766 33.0237 22.6613 32.5345 22.8477C32.0452 23.0342 31.523 23.1183 31 23.095ZM31 17.295C30.6291 17.3145 30.272 17.4424 29.973 17.6627C29.674 17.883 29.4461 18.1861 29.3175 18.5345C29.1889 18.8829 29.1652 19.2614 29.2494 19.6232C29.3337 19.9849 29.5221 20.314 29.7913 20.5698C30.0606 20.8257 30.3989 20.9969 30.7645 21.0625C31.1301 21.1281 31.5069 21.0851 31.8483 20.9388C32.1897 20.7925 32.4807 20.5494 32.6854 20.2394C32.8901 19.9295 32.9994 19.5664 33 19.195C33.0096 18.9342 32.9637 18.6744 32.8652 18.4328C32.7668 18.1912 32.618 17.9732 32.4288 17.7935C32.2397 17.6138 32.0144 17.4764 31.768 17.3905C31.5217 17.3045 31.2599 17.272 31 17.295Z" fill="white"/>
    <path d="M33.1209 18.0741C32.9231 18.074 32.7298 18.0154 32.5654 17.9055C32.401 17.7956 32.2729 17.6394 32.1972 17.4567C32.1215 17.274 32.1017 17.073 32.1403 16.879C32.1789 16.6851 32.2741 16.5069 32.4139 16.3671L38.0709 10.7101C38.1631 10.6146 38.2735 10.5384 38.3955 10.486C38.5175 10.4336 38.6487 10.406 38.7815 10.4048C38.9143 10.4037 39.0459 10.429 39.1688 10.4793C39.2917 10.5295 39.4034 10.6038 39.4973 10.6977C39.5912 10.7916 39.6654 10.9032 39.7157 11.0261C39.766 11.149 39.7913 11.2807 39.7901 11.4135C39.789 11.5463 39.7614 11.6775 39.709 11.7995C39.6566 11.9215 39.5804 12.0318 39.4849 12.1241L33.8279 17.7811C33.6404 17.9686 33.3861 18.074 33.1209 18.0741Z" fill="white"/>
    <path d="M27.4651 23.7311C27.2674 23.731 27.0741 23.6724 26.9097 23.5625C26.7453 23.4526 26.6171 23.2964 26.5414 23.1137C26.4658 22.931 26.446 22.73 26.4845 22.536C26.5231 22.3421 26.6183 22.1639 26.7581 22.0241L28.1721 20.6091C28.3607 20.4269 28.6133 20.3261 28.8755 20.3284C29.1377 20.3307 29.3885 20.4359 29.5739 20.6213C29.7593 20.8067 29.8645 21.0575 29.8668 21.3197C29.8691 21.5819 29.7683 21.8345 29.5861 22.0231L28.1721 23.4381C27.9846 23.6256 27.7303 23.731 27.4651 23.7311Z" fill="white"/>
    <path d="M31 38.1951C30.7348 38.1951 30.4804 38.0897 30.2929 37.9022C30.1054 37.7146 30 37.4603 30 37.1951V34.1951C30 33.9299 30.1054 33.6755 30.2929 33.488C30.4804 33.3004 30.7348 33.1951 31 33.1951C31.2652 33.1951 31.5196 33.3004 31.7071 33.488C31.8946 33.6755 32 33.9299 32 34.1951V37.1951C32 37.4603 31.8946 37.7146 31.7071 37.9022C31.5196 38.0897 31.2652 38.1951 31 38.1951Z" fill="white"/>
    <path d="M43.7279 32.923C43.4628 32.923 43.2084 32.8176 43.0209 32.63L40.8999 30.508C40.7223 30.3186 40.6253 30.0674 40.6295 29.8077C40.6337 29.5481 40.7388 29.3002 40.9225 29.1166C41.1062 28.933 41.3542 28.8281 41.6139 28.8241C41.8736 28.8201 42.1246 28.9172 42.3139 29.095L44.4349 31.217C44.5748 31.3569 44.67 31.535 44.7085 31.729C44.7471 31.9229 44.7273 32.124 44.6516 32.3067C44.576 32.4894 44.4478 32.6455 44.2834 32.7554C44.119 32.8653 43.9257 32.923 43.7279 32.923Z" fill="white"/>
    <path d="M41.606 9.58908C41.4082 9.58904 41.2149 9.53037 41.0505 9.42048C40.8861 9.3106 40.758 9.15444 40.6823 8.97174C40.6066 8.78904 40.5868 8.588 40.6254 8.39405C40.664 8.2001 40.7592 8.02193 40.899 7.88208L43.02 5.76008C43.2086 5.57792 43.4612 5.47713 43.7234 5.47941C43.9856 5.48169 44.2364 5.58685 44.4218 5.77226C44.6072 5.95767 44.7124 6.20848 44.7147 6.47068C44.7169 6.73288 44.6161 6.98548 44.434 7.17408L42.313 9.29508C42.2202 9.38813 42.1101 9.46198 41.9887 9.51243C41.8674 9.56288 41.7374 9.58892 41.606 9.58908Z" fill="white"/>
    <path d="M31 5.19507C30.7348 5.19507 30.4804 5.08971 30.2929 4.90218C30.1054 4.71464 30 4.46028 30 4.19507V1.19507C30 0.929852 30.1054 0.675498 30.2929 0.487962C30.4804 0.300425 30.7348 0.195068 31 0.195068C31.2652 0.195068 31.5196 0.300425 31.7071 0.487962C31.8946 0.675498 32 0.929852 32 1.19507V4.19507C32 4.46028 31.8946 4.71464 31.7071 4.90218C31.5196 5.08971 31.2652 5.19507 31 5.19507Z" fill="white"/>
    <path d="M49 20.1951H46C45.7348 20.1951 45.4804 20.0897 45.2929 19.9022C45.1054 19.7146 45 19.4603 45 19.1951C45 18.9299 45.1054 18.6755 45.2929 18.488C45.4804 18.3004 45.7348 18.1951 46 18.1951H49C49.2652 18.1951 49.5196 18.3004 49.7071 18.488C49.8946 18.6755 50 18.9299 50 19.1951C50 19.4603 49.8946 19.7146 49.7071 19.9022C49.5196 20.0897 49.2652 20.1951 49 20.1951Z" fill="white"/>
    <path d="M23.789 8.19507H13C12.7348 8.19507 12.4804 8.08971 12.2929 7.90218C12.1054 7.71464 12 7.46028 12 7.19507C12 6.92985 12.1054 6.6755 12.2929 6.48796C12.4804 6.30042 12.7348 6.19507 13 6.19507H23.789C24.0542 6.19507 24.3086 6.30042 24.4961 6.48796C24.6836 6.6755 24.789 6.92985 24.789 7.19507C24.789 7.46028 24.6836 7.71464 24.4961 7.90218C24.3086 8.08971 24.0542 8.19507 23.789 8.19507Z" fill="white"/>
    <path d="M23.789 32.1951H13C12.7348 32.1951 12.4804 32.0897 12.2929 31.9022C12.1054 31.7146 12 31.4603 12 31.1951C12 30.9299 12.1054 30.6755 12.2929 30.488C12.4804 30.3004 12.7348 30.1951 13 30.1951H23.789C24.0542 30.1951 24.3086 30.3004 24.4961 30.488C24.6836 30.6755 24.789 30.9299 24.789 31.1951C24.789 31.4603 24.6836 31.7146 24.4961 31.9022C24.3086 32.0897 24.0542 32.1951 23.789 32.1951Z" fill="white"/>
    <path d="M30.9381 38.176C27.9331 38.1782 24.9712 37.4608 22.3001 36.084C22.1834 36.0239 22.0796 35.9413 21.9948 35.8411C21.9099 35.7408 21.8456 35.6249 21.8056 35.4998C21.7656 35.3747 21.7506 35.243 21.7615 35.1121C21.7724 34.9812 21.809 34.8538 21.8691 34.737C21.9292 34.6203 22.0118 34.5165 22.112 34.4317C22.2123 34.3468 22.3283 34.2826 22.4533 34.2426C22.5784 34.2025 22.7102 34.1875 22.841 34.1984C22.9719 34.2093 23.0994 34.2459 23.2161 34.306C25.8076 35.6415 28.6989 36.288 31.6123 36.1836C34.5258 36.0792 37.3634 35.2273 39.8526 33.7098C42.3418 32.1922 44.3989 30.0601 45.8263 27.5181C47.2537 24.9762 48.0034 22.1098 48.0034 19.1945C48.0034 16.2792 47.2537 13.4129 45.8263 10.8709C44.3989 8.32898 42.3418 6.19681 39.8526 4.67928C37.3634 3.16175 34.5258 2.30985 31.6123 2.20543C28.6989 2.10101 25.8076 2.74759 23.2161 4.08303C23.0994 4.14317 22.9719 4.17973 22.841 4.19062C22.7102 4.20151 22.5784 4.18652 22.4533 4.1465C22.3283 4.10648 22.2123 4.04221 22.112 3.95737C22.0118 3.87253 21.9292 3.76877 21.8691 3.65203C21.809 3.53528 21.7724 3.40783 21.7615 3.27696C21.7506 3.14608 21.7656 3.01434 21.8056 2.88926C21.8865 2.63665 22.0643 2.42649 22.3001 2.30502C24.859 0.979631 27.6859 0.253686 30.5668 0.182128C33.4477 0.110571 36.3071 0.695278 38.9287 1.892C41.5503 3.08872 43.8653 4.86609 45.6985 7.0896C47.5317 9.31312 48.8351 11.9245 49.5101 14.7261C50.185 17.5278 50.2139 20.4462 49.5944 23.2606C48.9749 26.0751 47.7233 28.7117 45.9344 30.971C44.1454 33.2303 41.866 35.053 39.2686 36.3013C36.6712 37.5496 33.8239 38.1907 30.9421 38.176H30.9381Z" fill="white"/>
</svg>
