<svg width="326" height="254" viewBox="0 0 326 254" fill="none" xmlns="http://www.w3.org/2000/svg">
    <path fill-rule="evenodd" clip-rule="evenodd" d="M163.373 0.963989C192.828 0.966777 221.729 8.96836 246.991 24.1145C272.253 39.2607 292.928 60.9829 306.809 86.9621C320.689 112.941 327.254 142.202 325.803 171.621C324.351 201.04 314.938 229.513 298.568 254H28.1728C11.8025 229.513 2.38928 201.04 0.937851 171.621C-0.513575 142.202 6.05138 112.941 19.9319 86.9621C33.8124 60.9829 54.4872 39.2607 79.7495 24.1145C105.012 8.96836 133.913 0.966777 163.368 0.963989L163.373 0.963989Z" fill="url(#paint0_linear_740_98)"/>
    <mask id="mask0_740_98" style="mask-type:luminance" maskUnits="userSpaceOnUse" x="0" y="0" width="327" height="254">
        <path fill-rule="evenodd" clip-rule="evenodd" d="M163.373 0.963989C192.828 0.966777 221.729 8.96836 246.991 24.1145C272.253 39.2607 292.928 60.9829 306.809 86.9621C320.689 112.941 327.254 142.202 325.803 171.621C324.351 201.04 314.938 229.513 298.568 254H28.1728C11.8025 229.513 2.38928 201.04 0.937851 171.621C-0.513575 142.202 6.05138 112.941 19.9319 86.9621C33.8124 60.9829 54.4872 39.2607 79.7495 24.1145C105.012 8.96836 133.913 0.966777 163.368 0.963989L163.373 0.963989Z" fill="white"/>
    </mask>
    <g mask="url(#mask0_740_98)">
        <g opacity="0.4">
            <path d="M71.884 230.872L63.756 222.744L56.4821 230.018L64.2581 237.794H72.265L81.722 228.316L91.2001 237.794H97.532V240.202H90.201L81.72 231.721L73.256 240.202H63.761L62.907 239.849L54.7791 231.721L46.651 239.849L45.797 240.202H36.297L27.832 231.721L19.3511 240.202H12.022V237.794H18.354L27.832 228.316L37.2891 237.794H45.296L53.072 230.018L45.798 222.744L36.8151 231.726L35.9611 230.872L26.124 221.035L36.8091 210.35L45.792 219.327L53.066 212.053L44.083 203.071L54.7681 192.386L65.453 203.071L56.47 212.053L63.744 219.327L72.7271 210.35L83.412 221.035L72.7271 231.725L71.873 230.871L71.884 230.872ZM47.499 203.072L54.7731 210.346L62.053 203.072L54.7731 195.798L47.499 203.072ZM29.54 221.037L36.814 228.311L44.088 221.037L36.814 213.757L29.54 221.037ZM47.499 221.037L54.7731 228.311L62.047 221.037L54.7731 213.763L47.499 221.037ZM65.458 221.037L72.7321 228.311L80.006 221.037L72.7321 213.757L65.458 221.037Z" fill="#ACE2FF"/>
            <path d="M289.089 230.872L280.961 222.744L273.687 230.018L281.463 237.794H289.47L298.927 228.316L308.405 237.794H314.737V240.202H307.408L298.925 231.725L290.46 240.206H280.965L280.111 239.853L271.983 231.725L263.855 239.853L263.001 240.206H253.501L245.037 231.725L236.556 240.206H229.965C211.209 256.534 187.108 265.401 162.243 265.123C137.377 264.844 113.481 255.44 95.0952 238.696L95.9163 237.796H97.7402C115.842 253.841 139.194 262.7 163.384 262.7C187.573 262.7 210.925 253.841 229.027 237.796H235.563L245.042 228.318L254.498 237.796H262.505L270.281 230.02L263.007 222.746L254.025 231.725L253.171 230.871L243.334 221.034L254.019 210.349L263.002 219.326L270.276 212.052L261.294 203.07L271.979 192.385L282.664 203.07L273.681 212.052L280.955 219.326L289.938 210.349L300.625 221.035L289.938 231.725L289.084 230.871L289.089 230.872ZM264.704 203.072L271.978 210.346L279.258 203.072L271.978 195.798L264.704 203.072ZM246.744 221.037L254.018 228.311L261.292 221.037L254.018 213.757L246.744 221.037ZM264.704 221.037L271.978 228.311L279.252 221.037L271.978 213.763L264.704 221.037ZM282.663 221.037L289.937 228.311L297.211 221.037L289.937 213.757L282.663 221.037Z" fill="#ACE2FF"/>
        </g>
    </g>
    <path d="M116.355 59.439L111.439 48.423L113.671 47.415L118.576 58.431L116.355 59.439ZM149.447 50.17L148.185 38.17L150.61 37.928L151.872 49.928L149.453 50.17H149.447ZM138.11 52.099L135.592 40.299L137.992 39.792L140.492 51.592L138.106 52.099H138.11ZM127.039 55.185L123.309 43.712L125.634 42.957L129.365 54.43L127.045 55.185H127.039Z" fill="#FEFEFE"/>
    <path d="M70.5829 96.919L60.8179 89.838L62.2449 87.854L72.0039 94.941L70.5879 96.925L70.5829 96.919ZM94.6099 72.347L87.5178 62.588L89.4958 61.166L96.5879 70.931L94.6149 72.347H94.6099ZM85.7539 79.682L77.6748 70.727L79.4989 69.085L87.5719 78.051L85.7539 79.682ZM77.7079 87.893L68.7368 79.82L70.3739 78.007L79.3398 86.075L77.7089 87.894L77.7079 87.893Z" fill="#FEFEFE"/>
    <path d="M49.6807 152.267L37.6807 151.016L37.9227 148.58L49.9137 149.836L49.6766 152.261L49.6807 152.267ZM58.2007 118.967L47.1797 114.067L48.1797 111.846L59.2067 116.756L58.2007 118.967ZM54.2007 129.752L42.7277 126.032L43.4877 123.695L54.9617 127.426L54.2067 129.746L54.2007 129.752ZM51.3407 140.884L39.5406 138.377L40.0477 135.985L51.8477 138.492L51.3407 140.884Z" fill="#FEFEFE"/>
    <path d="M174.73 49.866L175.981 37.866L178.416 38.108L177.16 50.099L174.735 49.862L174.73 49.866ZM208.03 58.386L212.93 47.365L215.151 48.365L210.241 59.386L208.03 58.386ZM197.245 54.386L200.965 42.913L203.301 43.673L199.57 55.146L197.25 54.391L197.245 54.386ZM186.114 51.526L188.621 39.726L191.013 40.238L188.506 52.038L186.114 51.526Z" fill="#FEFEFE"/>
    <path d="M230.074 70.769L237.155 61.004L239.139 62.431L232.052 72.185L230.068 70.769H230.074ZM254.646 94.796L264.406 87.704L265.828 89.682L256.063 96.774L254.647 94.801L254.646 94.796ZM247.311 85.94L256.266 77.861L257.908 79.685L248.942 87.753L247.311 85.934V85.94ZM239.1 77.894L247.173 68.928L248.986 70.565L240.918 79.531L239.1 77.9V77.894Z" fill="#FEFEFE"/>
    <path d="M267.553 116.541L278.569 111.625L279.578 113.857L268.562 118.767L267.554 116.546L267.553 116.541ZM276.822 149.633L288.822 148.371L289.065 150.79L277.065 152.052L276.822 149.633ZM274.893 138.292L286.693 135.774L287.2 138.174L275.4 140.681L274.893 138.292ZM271.807 127.221L283.28 123.49L284.033 125.815L272.56 129.546L271.805 127.226L271.807 127.221Z" fill="#FEFEFE"/>
    <path d="M112.421 76.02C112.492 76.0155 112.563 76.0254 112.63 76.0491C112.698 76.0729 112.759 76.1099 112.812 76.158C112.859 76.2056 112.897 76.2625 112.921 76.3251C112.946 76.3877 112.958 76.4547 112.956 76.522V77.422H107.384V76.922C107.387 76.8147 107.408 76.7088 107.445 76.608C107.488 76.4914 107.556 76.3859 107.645 76.299L110.026 73.913C110.226 73.713 110.406 73.513 110.566 73.329C110.71 73.1585 110.839 72.9758 110.952 72.783C111.053 72.6121 111.131 72.4285 111.183 72.237C111.234 72.0465 111.26 71.8502 111.26 71.653C111.27 71.5054 111.251 71.3573 111.204 71.2172C111.156 71.0771 111.082 70.9479 110.984 70.837C110.879 70.7396 110.756 70.6645 110.622 70.6162C110.487 70.5679 110.344 70.5474 110.202 70.556C110.063 70.5545 109.925 70.5769 109.794 70.622C109.674 70.6603 109.562 70.72 109.463 70.798C109.366 70.8715 109.28 70.9587 109.209 71.057C109.139 71.1555 109.087 71.2655 109.055 71.382C109.015 71.5348 108.918 71.6668 108.785 71.751C108.634 71.8171 108.466 71.8325 108.306 71.795L107.496 71.652C107.547 71.292 107.659 70.9433 107.827 70.621C107.98 70.3368 108.188 70.086 108.439 69.883C108.687 69.6836 108.972 69.5339 109.277 69.442C109.605 69.3404 109.947 69.2902 110.291 69.293C110.644 69.2874 110.994 69.3453 111.327 69.464C111.622 69.565 111.894 69.7242 112.127 69.932C112.349 70.1333 112.525 70.3816 112.64 70.659C112.763 70.9575 112.825 71.2779 112.822 71.601C112.823 71.8796 112.78 72.1567 112.695 72.422C112.611 72.6747 112.494 72.9154 112.348 73.138C112.197 73.3719 112.028 73.593 111.841 73.799C111.648 74.014 111.441 74.229 111.229 74.449L109.529 76.19C109.712 76.1362 109.897 76.0921 110.085 76.058C110.256 76.0281 110.429 76.0133 110.603 76.014H112.41L112.421 76.02ZM119.596 73.402C119.606 74.0195 119.529 74.6354 119.37 75.232C119.245 75.6947 119.031 76.1287 118.741 76.51C118.493 76.8342 118.169 77.0933 117.799 77.265C117.428 77.4285 117.027 77.5129 116.622 77.5129C116.217 77.5129 115.816 77.4285 115.446 77.265C115.076 77.095 114.754 76.8356 114.509 76.51C114.223 76.1272 114.014 75.6934 113.892 75.232C113.59 74.0326 113.59 72.7773 113.892 71.578C114.015 71.1151 114.226 70.6802 114.514 70.297C114.759 69.9717 115.081 69.7123 115.451 69.542C115.821 69.3785 116.222 69.294 116.627 69.294C117.032 69.294 117.433 69.3785 117.804 69.542C118.175 69.7117 118.499 69.9712 118.746 70.297C119.033 70.6801 119.246 71.1135 119.375 71.575C119.533 72.1707 119.608 72.7856 119.596 73.402ZM118.02 73.402C118.03 72.9307 117.989 72.4597 117.899 71.997C117.844 71.6894 117.738 71.3932 117.585 71.121C117.482 70.9326 117.327 70.7777 117.139 70.675C116.978 70.5936 116.801 70.5501 116.621 70.548C116.442 70.5495 116.267 70.593 116.109 70.675C115.926 70.7814 115.775 70.9356 115.673 71.121C115.524 71.3946 115.419 71.6904 115.364 71.997C115.209 72.9293 115.209 73.8806 115.364 74.813C115.419 75.1196 115.524 75.4154 115.673 75.689C115.773 75.8756 115.925 76.0301 116.109 76.135C116.266 76.2201 116.442 76.2638 116.621 76.262C116.801 76.2598 116.978 76.2164 117.139 76.135C117.326 76.0306 117.48 75.8761 117.585 75.689C117.738 75.4168 117.844 75.1206 117.899 74.813C117.989 74.3483 118.03 73.8753 118.02 73.402Z" fill="white"/>
    <path d="M74.5237 114.061V115.185H70.0156V114.061H71.6086V109.661C71.6086 109.567 71.6086 109.468 71.6136 109.369C71.6186 109.27 71.6247 109.169 71.6307 109.069L70.5787 109.945C70.5152 109.993 70.4417 110.028 70.3636 110.045C70.2981 110.062 70.2293 110.062 70.1637 110.045C70.1047 110.035 70.0485 110.012 69.9987 109.979C69.9559 109.953 69.9186 109.919 69.8887 109.879L69.4087 109.229L71.8777 107.135H73.1346V114.051H74.5237V114.061ZM81.3517 111.168C81.3615 111.785 81.2855 112.401 81.1257 112.998C81.0011 113.461 80.7878 113.895 80.4977 114.276C80.2494 114.6 79.9261 114.859 79.5557 115.031C79.185 115.194 78.7843 115.279 78.3792 115.279C77.974 115.279 77.5733 115.194 77.2026 115.031C76.8325 114.861 76.5105 114.601 76.2656 114.276C75.98 113.893 75.7706 113.46 75.6487 112.998C75.347 111.799 75.347 110.543 75.6487 109.344C75.7705 108.882 75.9799 108.448 76.2656 108.065C76.5108 107.74 76.8328 107.48 77.2026 107.31C77.5733 107.146 77.974 107.062 78.3792 107.062C78.7843 107.062 79.185 107.146 79.5557 107.31C79.9273 107.48 80.2509 107.739 80.4977 108.065C80.7847 108.449 80.9978 108.882 81.1257 109.344C81.2851 109.938 81.3605 110.552 81.3497 111.167L81.3517 111.168ZM79.7756 111.168C79.7855 110.697 79.745 110.226 79.6547 109.763C79.6003 109.455 79.4942 109.159 79.3407 108.887C79.238 108.698 79.0831 108.544 78.8947 108.441C78.734 108.36 78.5568 108.316 78.3767 108.314C78.1984 108.316 78.023 108.359 77.8646 108.441C77.6816 108.547 77.531 108.702 77.4287 108.887C77.28 109.161 77.176 109.456 77.1207 109.763C76.9663 110.695 76.9663 111.647 77.1207 112.579C77.1759 112.886 77.2798 113.181 77.4287 113.455C77.5293 113.642 77.6803 113.796 77.8646 113.901C78.0218 113.986 78.198 114.03 78.3767 114.028C78.5568 114.026 78.734 113.982 78.8947 113.901C79.0819 113.797 79.2364 113.642 79.3407 113.455C79.4942 113.183 79.6003 112.887 79.6547 112.579C79.7453 112.114 79.7858 111.641 79.7756 111.167V111.168Z" fill="white"/>
    <path d="M158.794 60.37C158.845 60.01 158.957 59.6614 159.125 59.339C159.278 59.055 159.486 58.8041 159.737 58.601C159.984 58.4029 160.266 58.2533 160.569 58.16C160.895 58.0589 161.235 58.0087 161.577 58.011C161.928 58.0053 162.276 58.0612 162.608 58.176C162.891 58.2742 163.153 58.4256 163.379 58.622C163.587 58.8046 163.752 59.0301 163.864 59.283C163.975 59.5385 164.031 59.8144 164.029 60.093C164.031 60.3193 164.005 60.5451 163.952 60.765C163.903 60.9467 163.823 61.1183 163.715 61.272C163.609 61.4149 163.478 61.5381 163.33 61.636C163.165 61.7404 162.987 61.8237 162.801 61.884C163.211 61.9811 163.574 62.219 163.827 62.5564C164.08 62.8937 164.206 63.3091 164.184 63.73C164.191 64.1025 164.114 64.4717 163.958 64.81C163.816 65.1143 163.607 65.3821 163.346 65.593C163.084 65.8074 162.783 65.9684 162.459 66.067C162.116 66.1732 161.76 66.2272 161.401 66.227C161.051 66.2327 160.702 66.1882 160.365 66.095C160.079 66.0126 159.812 65.8769 159.577 65.695C159.343 65.51 159.145 65.284 158.993 65.028C158.819 64.7313 158.677 64.4173 158.569 64.091L159.247 63.815C159.403 63.7414 159.578 63.72 159.747 63.754C159.817 63.7662 159.883 63.7944 159.941 63.8364C159.998 63.8783 160.045 63.933 160.078 63.996C160.148 64.13 160.227 64.259 160.315 64.382C160.394 64.4961 160.486 64.5999 160.591 64.691C160.696 64.7776 160.816 64.8453 160.944 64.891C161.089 64.9421 161.242 64.9665 161.396 64.963C161.586 64.9697 161.776 64.9356 161.952 64.863C162.103 64.8002 162.239 64.7062 162.352 64.587C162.456 64.4766 162.538 64.3477 162.594 64.207C162.646 64.0718 162.672 63.9279 162.671 63.783C162.672 63.615 162.656 63.4474 162.621 63.283C162.588 63.1356 162.509 63.0026 162.395 62.903C162.24 62.7817 162.059 62.6987 161.866 62.661C161.552 62.5987 161.233 62.5709 160.913 62.578V61.503C161.191 61.5091 161.469 61.4812 161.74 61.42C161.921 61.38 162.092 61.3012 162.24 61.189C162.356 61.0954 162.444 60.9715 162.494 60.831C162.539 60.683 162.562 60.5288 162.56 60.374C162.57 60.229 162.551 60.0834 162.503 59.9459C162.456 59.8084 162.381 59.6819 162.284 59.574C162.18 59.4781 162.057 59.4042 161.923 59.3568C161.79 59.3094 161.648 59.2894 161.507 59.298C161.368 59.2966 161.23 59.319 161.099 59.364C160.979 59.4025 160.867 59.4621 160.768 59.54C160.671 59.6136 160.586 59.7009 160.515 59.799C160.445 59.8975 160.393 60.0075 160.361 60.124C160.317 60.2749 160.221 60.4055 160.091 60.493C159.94 60.5592 159.772 60.5746 159.612 60.537L158.812 60.394L158.794 60.37ZM170.841 62.117C170.851 62.7345 170.775 63.3504 170.615 63.947C170.49 64.4097 170.277 64.8437 169.987 65.225C169.738 65.5492 169.415 65.8082 169.045 65.98C168.674 66.1435 168.273 66.228 167.868 66.228C167.463 66.228 167.063 66.1435 166.692 65.98C166.322 65.81 166 65.5505 165.755 65.225C165.469 64.8424 165.26 64.4085 165.138 63.947C164.836 62.7477 164.836 61.4924 165.138 60.293C165.26 59.8315 165.469 59.3977 165.755 59.015C166 58.6898 166.322 58.4304 166.692 58.26C167.063 58.0965 167.463 58.0121 167.868 58.0121C168.273 58.0121 168.674 58.0965 169.045 58.26C169.416 58.43 169.74 58.6894 169.987 59.015C170.274 59.3982 170.487 59.8316 170.615 60.293C170.774 60.8872 170.85 61.5008 170.84 62.116L170.841 62.117ZM169.265 62.117C169.275 61.6457 169.234 61.1747 169.144 60.712C169.089 60.4043 168.983 60.1081 168.83 59.836C168.727 59.6476 168.572 59.4927 168.384 59.39C168.223 59.3086 168.046 59.2652 167.866 59.263C167.688 59.2646 167.512 59.3081 167.354 59.39C167.171 59.4966 167.021 59.6508 166.919 59.836C166.77 60.1097 166.665 60.4054 166.61 60.712C166.456 61.6444 166.456 62.5957 166.61 63.528C166.665 63.8347 166.77 64.1304 166.919 64.404C167.019 64.5905 167.17 64.7451 167.354 64.85C167.511 64.9351 167.687 64.9788 167.866 64.977C168.046 64.9748 168.223 64.9314 168.384 64.85C168.571 64.7457 168.725 64.5912 168.83 64.404C168.983 64.1319 169.089 63.8357 169.144 63.528C169.234 63.063 169.274 62.5896 169.264 62.116L169.265 62.117Z" fill="white"/>
    <path d="M212.772 74.351V71.959C212.772 71.832 212.777 71.7 212.788 71.559C212.799 71.418 212.81 71.267 212.832 71.113L210.507 74.353H212.777L212.772 74.351ZM215.031 74.351V75.216C215.031 75.2532 215.024 75.2901 215.01 75.3245C214.996 75.3588 214.975 75.39 214.948 75.416C214.919 75.4465 214.884 75.4702 214.845 75.4854C214.806 75.5006 214.764 75.5069 214.722 75.504H214.099V77.416H212.771V75.504H209.454C209.358 75.5053 209.265 75.4743 209.189 75.416C209.114 75.359 209.061 75.2771 209.04 75.185L208.88 74.419L212.644 69.377H214.093V74.348H215.024L215.031 74.351ZM221.468 73.3979C221.478 74.0155 221.402 74.6314 221.242 75.228C221.117 75.6909 220.904 76.1253 220.614 76.507C220.366 76.8311 220.042 77.0902 219.672 77.262C219.301 77.4255 218.9 77.5099 218.495 77.5099C218.09 77.5099 217.69 77.4255 217.319 77.262C216.949 77.092 216.627 76.8325 216.382 76.507C216.096 76.1241 215.887 75.6899 215.765 75.228C215.463 74.0286 215.463 72.7733 215.765 71.574C215.887 71.112 216.096 70.6778 216.382 70.295C216.627 69.9697 216.949 69.7103 217.319 69.54C217.69 69.3764 218.09 69.292 218.495 69.292C218.9 69.292 219.301 69.3764 219.672 69.54C220.043 69.7099 220.367 69.9693 220.614 70.295C220.901 70.6785 221.114 71.1123 221.242 71.574C221.402 72.1698 221.478 72.7851 221.467 73.402L221.468 73.3979ZM219.892 73.3979C219.902 72.9266 219.861 72.4557 219.771 71.993C219.716 71.6853 219.61 71.3891 219.457 71.117C219.354 70.9285 219.199 70.7737 219.011 70.671C218.85 70.5895 218.673 70.5461 218.493 70.544C218.315 70.5455 218.139 70.589 217.981 70.671C217.798 70.7774 217.647 70.9316 217.545 71.117C217.396 71.3907 217.292 71.6864 217.237 71.993C217.083 72.9253 217.083 73.8766 217.237 74.809C217.292 75.1155 217.396 75.4113 217.545 75.685C217.646 75.8715 217.797 76.0261 217.981 76.131C218.138 76.216 218.314 76.2597 218.493 76.2579C218.673 76.2558 218.85 76.2124 219.011 76.131C219.198 76.0265 219.352 75.8721 219.457 75.685C219.61 75.4128 219.716 75.1166 219.771 74.809C219.861 74.3456 219.901 73.8739 219.891 73.402L219.892 73.3979Z" fill="white"/>
    <path d="M8.2959 163.591C8.2959 122.461 24.6346 83.016 53.7178 53.9329C82.8009 24.8497 122.246 8.51099 163.376 8.51099C204.506 8.51099 243.951 24.8497 273.034 53.9329C302.117 83.016 318.456 122.461 318.456 163.591H316.621C316.621 122.949 300.476 83.971 271.737 55.2325C242.999 26.4941 204.021 10.349 163.379 10.349C122.737 10.349 83.759 26.4941 55.0205 55.2325C26.2821 83.971 10.137 122.949 10.137 163.591H8.30188H8.2959Z" fill="url(#paint1_linear_740_98)"/>
    <path d="M163.373 18.108C201.957 18.1086 238.961 33.4364 266.244 60.7196C293.527 88.0028 308.855 125.007 308.856 163.591H280.404L295.581 155.397C294.511 137.718 289.89 120.436 281.992 104.583L264.722 105.083L273.776 90.383C263.975 75.6361 251.331 62.9921 236.584 53.191L221.884 62.251L222.374 44.975C206.524 37.0726 189.243 32.4487 171.565 31.38L163.365 46.573L155.171 31.391C137.491 32.4578 120.209 37.0796 104.357 44.98L104.857 62.245L90.1566 53.191C75.4071 62.9916 62.7605 75.6356 52.9567 90.383L62.0166 105.083L44.7406 104.593C36.8364 120.442 32.2109 137.723 31.1406 155.402L46.3336 163.602H17.8896C17.8886 144.496 21.6508 125.577 28.9615 107.925C36.2722 90.2733 46.9883 74.2342 60.4977 60.7238C74.0071 47.2134 90.0453 36.4962 107.697 29.1841C125.348 21.8721 144.267 18.1084 163.373 18.108Z" fill="url(#paint2_linear_740_98)"/>
    <path d="M248.111 110.027C248.269 109.993 248.429 109.969 248.59 109.955C248.738 109.94 248.887 109.932 249.037 109.933C249.419 109.927 249.798 109.993 250.156 110.126C250.461 110.241 250.739 110.42 250.972 110.649C251.194 110.87 251.365 111.137 251.472 111.432C251.584 111.741 251.64 112.067 251.637 112.396C251.641 112.797 251.564 113.194 251.411 113.564C251.268 113.908 251.054 114.218 250.783 114.473C250.506 114.732 250.18 114.932 249.825 115.063C249.434 115.205 249.022 115.276 248.607 115.272C248.36 115.273 248.114 115.245 247.874 115.189C247.651 115.136 247.434 115.064 247.224 114.974C247.026 114.889 246.838 114.784 246.662 114.66C246.497 114.55 246.343 114.427 246.199 114.291L246.667 113.646C246.709 113.583 246.767 113.532 246.834 113.497C246.902 113.462 246.977 113.445 247.053 113.446C247.156 113.449 247.257 113.479 247.345 113.534C247.445 113.595 247.545 113.655 247.67 113.727C247.805 113.806 247.948 113.872 248.095 113.927C248.286 113.991 248.488 114.021 248.69 114.015C248.905 114.021 249.12 113.979 249.318 113.894C249.488 113.821 249.639 113.71 249.759 113.569C249.878 113.425 249.966 113.258 250.018 113.079C250.075 112.88 250.103 112.674 250.101 112.467C250.113 112.29 250.087 112.113 250.026 111.946C249.964 111.78 249.867 111.629 249.743 111.503C249.455 111.259 249.083 111.136 248.707 111.161C248.323 111.163 247.942 111.234 247.583 111.37L246.635 111.105L247.313 107.154H251.342V107.799C251.342 107.898 251.327 107.996 251.298 108.091C251.267 108.178 251.213 108.256 251.143 108.317C251.063 108.387 250.969 108.438 250.868 108.466C250.733 108.504 250.594 108.522 250.455 108.521H248.377L248.118 110.036L248.111 110.027ZM258.366 111.162C258.376 111.779 258.3 112.395 258.14 112.992C258.015 113.455 257.802 113.889 257.512 114.27C257.263 114.594 256.94 114.853 256.569 115.025C256.198 115.189 255.797 115.273 255.392 115.273C254.987 115.273 254.586 115.189 254.216 115.025C253.846 114.855 253.524 114.596 253.279 114.27C252.993 113.887 252.784 113.453 252.662 112.992C252.361 111.793 252.361 110.537 252.662 109.338C252.784 108.876 252.993 108.442 253.279 108.059C253.524 107.734 253.846 107.474 254.216 107.304C254.586 107.14 254.987 107.056 255.392 107.056C255.797 107.056 256.198 107.14 256.569 107.304C256.941 107.474 257.265 107.733 257.512 108.059C257.799 108.442 258.012 108.876 258.14 109.338C258.3 109.932 258.376 110.546 258.366 111.162ZM256.79 111.162C256.8 110.691 256.759 110.22 256.669 109.757C256.614 109.449 256.508 109.153 256.355 108.881C256.252 108.692 256.097 108.538 255.909 108.435C255.748 108.354 255.571 108.31 255.391 108.308C255.212 108.309 255.036 108.353 254.878 108.435C254.695 108.542 254.545 108.696 254.443 108.881C254.294 109.155 254.189 109.45 254.134 109.757C253.98 110.689 253.98 111.641 254.134 112.573C254.189 112.88 254.294 113.175 254.443 113.449C254.543 113.635 254.694 113.79 254.878 113.895C255.035 113.98 255.212 114.024 255.391 114.022C255.571 114.02 255.748 113.976 255.909 113.895C256.096 113.791 256.25 113.636 256.355 113.449C256.508 113.177 256.614 112.881 256.669 112.573C256.759 112.108 256.8 111.635 256.79 111.162Z" fill="white"/>
    <defs>
        <linearGradient id="paint0_linear_740_98" x1="223.543" y1="156.328" x2="222.362" y2="284.624" gradientUnits="userSpaceOnUse">
            <stop stop-color="#001F5A"/>
            <stop offset="0.808" stop-color="#0B53C6"/>
            <stop offset="1" stop-color="#03B0E4"/>
        </linearGradient>
        <linearGradient id="paint1_linear_740_98" x1="20.3921" y1="185.612" x2="140.839" y2="71.7786" gradientUnits="userSpaceOnUse">
            <stop stop-color="#40CBFF"/>
            <stop offset="1" stop-color="#0D68A8"/>
        </linearGradient>
        <linearGradient id="paint2_linear_740_98" x1="29.2373" y1="184.262" x2="142.239" y2="77.4734" gradientUnits="userSpaceOnUse">
            <stop stop-color="#0E63A3"/>
            <stop offset="0.453" stop-color="#0393CC"/>
            <stop offset="1" stop-color="#41CBFF"/>
        </linearGradient>
    </defs>
</svg>
