<svg width="46" height="44" viewBox="0 0 46 44" fill="none" xmlns="http://www.w3.org/2000/svg">
    <path d="M44.926 23.7639C44.5575 20.0663 43.0319 16.5791 40.5663 13.7989C38.1008 11.0186 34.8211 9.08698 31.194 8.27895V6.05595C31.898 5.87978 32.5133 5.45242 32.9241 4.85427C33.3349 4.25613 33.513 3.52846 33.4247 2.8082C33.3365 2.08794 32.9881 1.42476 32.445 0.943473C31.9019 0.462186 31.2017 0.195977 30.476 0.194946H24.176C23.4504 0.195977 22.7502 0.462186 22.2071 0.943473C21.664 1.42476 21.3156 2.08794 21.2273 2.8082C21.1391 3.52846 21.3172 4.25613 21.728 4.85427C22.1388 5.45242 22.7541 5.87978 23.458 6.05595V8.28495C20.1935 9.01225 17.2044 10.6563 14.842 13.0239C14.3116 13.554 13.8153 14.1171 13.356 14.7099C13.334 14.7099 13.312 14.7099 13.29 14.7099H7.05604C6.82398 14.7099 6.60142 14.8021 6.43732 14.9662C6.27323 15.1303 6.18104 15.3529 6.18104 15.5849C6.18104 15.817 6.27323 16.0396 6.43732 16.2037C6.60142 16.3678 6.82398 16.4599 7.05604 16.4599H12.167C11.5333 17.5222 11.0138 18.6484 10.617 19.8199H1.09204C0.859977 19.8199 0.637417 19.9121 0.473323 20.0762C0.309228 20.2403 0.217041 20.4629 0.217041 20.6949C0.217041 20.927 0.309228 21.1496 0.473323 21.3137C0.637417 21.4778 0.859977 21.5699 1.09204 21.5699H10.117C9.86663 22.6747 9.72231 23.8008 9.68604 24.9329H5.81704C5.58498 24.9329 5.36242 25.0251 5.19832 25.1892C5.03423 25.3533 4.94204 25.5759 4.94204 25.8079C4.94204 26.04 5.03423 26.2626 5.19832 26.4267C5.36242 26.5908 5.58498 26.6829 5.81704 26.6829H9.71704C9.79087 27.8188 9.97371 28.945 10.263 30.0459H4.59204C4.35998 30.0459 4.13742 30.1381 3.97332 30.3022C3.80923 30.4663 3.71704 30.6889 3.71704 30.9209C3.71704 31.153 3.80923 31.3756 3.97332 31.5397C4.13742 31.7038 4.35998 31.7959 4.59204 31.7959H10.817C11.9837 34.8696 13.9847 37.5569 16.595 39.5557C19.2053 41.5544 22.3215 42.7853 25.593 43.1099C26.171 43.1673 26.749 43.1956 27.327 43.1949C30.75 43.1963 34.1 42.2061 36.972 40.3439C37.0709 40.2824 37.1565 40.2018 37.2238 40.1068C37.2911 40.0118 37.3387 39.9043 37.364 39.7906C37.3892 39.6769 37.3915 39.5594 37.3707 39.4448C37.3499 39.3303 37.3065 39.221 37.2429 39.1234C37.1794 39.0259 37.097 38.942 37.0006 38.8767C36.9042 38.8113 36.7957 38.7659 36.6816 38.7431C36.5674 38.7202 36.4498 38.7204 36.3357 38.7435C36.2216 38.7667 36.1133 38.8124 36.017 38.8779C32.7185 41.0223 28.7429 41.8697 24.8566 41.2566C20.9703 40.6436 17.4486 38.6136 14.9703 35.558C12.4919 32.5024 11.2325 28.6375 11.4348 24.7084C11.6371 20.7792 13.2868 17.0641 16.0658 14.2792C18.8448 11.4942 22.5564 9.83664 26.4851 9.62598C30.4138 9.41532 34.2814 10.6665 37.3423 13.1383C40.4032 15.6101 42.4407 19.1275 43.062 23.0124C43.6833 26.8974 42.8444 30.8748 40.707 34.1779C40.6445 34.2743 40.6015 34.3821 40.5806 34.4951C40.5596 34.6081 40.5612 34.7241 40.5851 34.8365C40.609 34.9489 40.6548 35.0555 40.7199 35.1502C40.785 35.2449 40.8682 35.3259 40.9645 35.3884C41.0609 35.451 41.1687 35.494 41.2817 35.5149C41.3947 35.5358 41.5107 35.5343 41.6231 35.5104C41.7355 35.4865 41.8421 35.4407 41.9368 35.3756C42.0315 35.3105 42.1125 35.2273 42.175 35.1309C44.3513 31.7621 45.3211 27.755 44.926 23.7639ZM22.952 3.16995C22.9523 2.84514 23.0815 2.53371 23.3111 2.30403C23.5408 2.07436 23.8522 1.94521 24.177 1.94495H30.477C30.8019 1.94495 31.1135 2.07401 31.3432 2.30374C31.573 2.53347 31.702 2.84506 31.702 3.16995C31.702 3.49484 31.573 3.80642 31.3432 4.03615C31.1135 4.26588 30.8019 4.39495 30.477 4.39495H24.177C23.8522 4.39468 23.5408 4.26553 23.3111 4.03586C23.0815 3.80618 22.9523 3.49476 22.952 3.16995ZM25.209 7.98495V6.14495H29.445V7.98195C28.0379 7.81459 26.6159 7.8156 25.209 7.98495Z" fill="white"/>
    <path d="M39.2189 36.5249C39.0165 36.525 38.8204 36.5954 38.664 36.7239C38.5076 36.8524 38.4006 37.0311 38.3612 37.2297C38.3218 37.4283 38.3525 37.6343 38.448 37.8128C38.5436 37.9913 38.698 38.1311 38.8851 38.2085C39.0722 38.2858 39.2802 38.296 39.4739 38.2371C39.6676 38.1782 39.8349 38.054 39.9473 37.8857C40.0597 37.7173 40.1102 37.5152 40.0902 37.3137C40.0703 37.1123 39.9811 36.924 39.8379 36.7809C39.6735 36.6172 39.451 36.5252 39.2189 36.5249Z" fill="white"/>
    <path d="M27.3401 11.949C24.6556 11.949 22.0314 12.745 19.7994 14.2365C17.5673 15.7279 15.8276 17.8477 14.8003 20.3278C13.773 22.808 13.5042 25.537 14.0279 28.1699C14.5516 30.8028 15.8443 33.2213 17.7425 35.1195C19.6408 37.0178 22.0592 38.3105 24.6921 38.8342C27.325 39.3579 30.0541 39.0891 32.5343 38.0618C35.0144 37.0345 37.1342 35.2948 38.6256 33.0627C40.1171 30.8307 40.9131 28.2065 40.9131 25.522C40.9091 21.9234 39.4778 18.4734 36.9333 15.9288C34.3887 13.3842 30.9387 11.9529 27.3401 11.949ZM27.3401 37.349C25.0017 37.349 22.7159 36.6556 20.7716 35.3564C18.8273 34.0573 17.3119 32.2108 16.4171 30.0504C15.5222 27.8901 15.2881 25.5129 15.7443 23.2194C16.2005 20.926 17.3265 18.8193 18.98 17.1659C20.6334 15.5124 22.7401 14.3864 25.0335 13.9302C27.327 13.474 29.7042 13.7081 31.8646 14.603C34.0249 15.4978 35.8714 17.0132 37.1706 18.9575C38.4697 20.9018 39.1631 23.1876 39.1631 25.526C39.1573 28.659 37.9095 31.6619 35.6932 33.8765C33.477 36.091 30.4731 37.3365 27.3401 37.34V37.349Z" fill="white"/>
    <path d="M32.8699 18.75L28.5409 23.083C28.1677 22.8988 27.7571 22.8031 27.3409 22.8031C26.9247 22.8031 26.5141 22.8988 26.1409 23.083L24.2019 21.144C24.0364 20.9871 23.8162 20.901 23.5882 20.904C23.3602 20.907 23.1424 20.999 22.9811 21.1602C22.8199 21.3215 22.728 21.5393 22.7249 21.7673C22.7219 21.9953 22.808 22.2155 22.9649 22.381L24.9039 24.32C24.6994 24.7345 24.604 25.1944 24.6267 25.656C24.6493 26.1177 24.7893 26.566 25.0334 26.9585C25.2774 27.351 25.6175 27.6749 26.0216 27.8994C26.4256 28.1239 26.8802 28.2418 27.3424 28.2418C27.8046 28.2418 28.2592 28.1239 28.6633 27.8994C29.0673 27.6749 29.4074 27.351 29.6514 26.9585C29.8955 26.566 30.0355 26.1177 30.0582 25.656C30.0808 25.1944 29.9854 24.7345 29.7809 24.32L33.9869 20.114L34.1139 19.987C34.1987 19.9066 34.2665 19.81 34.3134 19.7029C34.3603 19.5959 34.3852 19.4805 34.3868 19.3637C34.3883 19.2468 34.3664 19.1308 34.3224 19.0226C34.2784 18.9143 34.2132 18.816 34.1306 18.7333C34.0479 18.6507 33.9496 18.5855 33.8413 18.5415C33.7331 18.4975 33.6171 18.4756 33.5002 18.4771C33.3834 18.4787 33.268 18.5036 33.161 18.5505C33.0539 18.5974 32.9573 18.6652 32.8769 18.75H32.8699ZM27.3359 26.491C27.1442 26.491 26.9569 26.4342 26.7976 26.3277C26.6382 26.2212 26.514 26.0699 26.4407 25.8928C26.3673 25.7157 26.3481 25.5209 26.3855 25.3329C26.4229 25.145 26.5152 24.9723 26.6507 24.8368C26.7862 24.7013 26.9589 24.609 27.1469 24.5716C27.3348 24.5342 27.5297 24.5534 27.7067 24.6268C27.8838 24.7001 28.0351 24.8243 28.1416 24.9836C28.2481 25.143 28.3049 25.3303 28.3049 25.522C28.3047 25.7782 28.203 26.0239 28.0222 26.2055C27.8414 26.387 27.5961 26.4897 27.3399 26.491H27.3359Z" fill="white"/>
    <path d="M36.695 24.658H35.884C35.652 24.658 35.4294 24.7502 35.2653 24.9142C35.1012 25.0783 35.009 25.3009 35.009 25.533C35.009 25.765 35.1012 25.9876 35.2653 26.1517C35.4294 26.3158 35.652 26.408 35.884 26.408H36.695C36.9271 26.408 37.1497 26.3158 37.3138 26.1517C37.4778 25.9876 37.57 25.765 37.57 25.533C37.57 25.3009 37.4778 25.0783 37.3138 24.9142C37.1497 24.7502 36.9271 24.658 36.695 24.658Z" fill="white"/>
    <path d="M18.7949 24.636H17.9839C17.7518 24.636 17.5293 24.7282 17.3652 24.8923C17.2011 25.0564 17.1089 25.2789 17.1089 25.511C17.1089 25.7431 17.2011 25.9656 17.3652 26.1297C17.5293 26.2938 17.7518 26.386 17.9839 26.386H18.7949C19.027 26.386 19.2495 26.2938 19.4136 26.1297C19.5777 25.9656 19.6699 25.7431 19.6699 25.511C19.6699 25.2789 19.5777 25.0564 19.4136 24.8923C19.2495 24.7282 19.027 24.636 18.7949 24.636Z" fill="white"/>
    <path d="M27.353 17.8519C27.5851 17.8519 27.8076 17.7597 27.9717 17.5956C28.1358 17.4315 28.228 17.209 28.228 16.9769V16.1659C28.228 15.9338 28.1358 15.7113 27.9717 15.5472C27.8076 15.3831 27.5851 15.2909 27.353 15.2909C27.121 15.2909 26.8984 15.3831 26.7343 15.5472C26.5702 15.7113 26.478 15.9338 26.478 16.1659V16.9769C26.478 17.209 26.5702 17.4315 26.7343 17.5956C26.8984 17.7597 27.121 17.8519 27.353 17.8519Z" fill="white"/>
    <path d="M27.3291 33.1909C27.097 33.1909 26.8745 33.2831 26.7104 33.4472C26.5463 33.6113 26.4541 33.8339 26.4541 34.0659V34.8769C26.4541 35.109 26.5463 35.3315 26.7104 35.4956C26.8745 35.6597 27.097 35.7519 27.3291 35.7519C27.5612 35.7519 27.7837 35.6597 27.9478 35.4956C28.1119 35.3315 28.2041 35.109 28.2041 34.8769V34.0659C28.2041 33.8339 28.1119 33.6113 27.9478 33.4472C27.7837 33.2831 27.5612 33.1909 27.3291 33.1909Z" fill="white"/>
    <path d="M1.09201 30.0459C0.948013 30.0457 0.806183 30.081 0.6791 30.1487C0.552018 30.2164 0.443612 30.3144 0.363498 30.4341C0.283384 30.5537 0.234039 30.6913 0.219841 30.8346C0.205642 30.9779 0.227028 31.1225 0.282101 31.2556C0.337175 31.3886 0.424234 31.506 0.535556 31.5974C0.646878 31.6887 0.779022 31.7511 0.920266 31.7792C1.06151 31.8072 1.20749 31.7999 1.34525 31.758C1.48302 31.7161 1.60831 31.6409 1.71001 31.5389C1.83209 31.4165 1.9152 31.2608 1.94884 31.0912C1.98249 30.9217 1.96516 30.746 1.89905 30.5862C1.83294 30.4265 1.72101 30.29 1.57738 30.1938C1.43375 30.0977 1.26486 30.0462 1.09201 30.0459Z" fill="white"/>
</svg>
