<svg width="78" height="24" viewBox="0 0 78 24" fill="none" xmlns="http://www.w3.org/2000/svg">
    <path d="M4.17574 10.7617L4.81553 7.1364L3.73099 6.43143H9.90658L9.14255 10.7615H11.6419L13.5363 0H11.037L10.3047 4.21871H5.33803L6.07029 0H3.58683L1.69238 10.7615H4.17563L4.17574 10.7617ZM16.752 10.7617L18.6465 0.000199552H16.163L14.2684 10.7617H16.7516H16.752ZM21.878 10.7617L22.3756 7.91688L21.2901 7.2119H24.839C28.564 7.2119 29.9015 5.25391 29.9015 3.07277C29.9015 1.06696 28.5005 0.000399104 26.4471 0.000399104H21.2892L19.3948 10.7619L21.878 10.7617ZM22.897 4.9993L23.3904 2.21332H25.6512C26.6063 2.21332 27.3546 2.22936 27.3546 3.23227C27.3546 4.26695 26.7654 4.9993 25.0149 4.9993H22.8977H22.897ZM31.159 10.7617L31.9928 9.09389L31.0803 8.5013H37.1763L37.4948 10.762H40.0899L38.0047 0.000511352H34.1523L28.4372 10.762H31.1593L31.159 10.7617ZM35.9347 1.46481L36.7148 6.30423H33.4355L35.9347 1.46481ZM45.3908 10.7617L46.0593 7.14815L50.9625 0.000299328H48.1447L45.2316 4.64906L43.8466 0.000299328H41.1564L43.5761 7.0844L42.9074 10.7618L45.3908 10.7617Z" fill="white"/>
    <path d="M5.78159 23.984C8.31266 23.984 9.42703 23.2517 10.1436 22.6469L10.7006 19.8134C9.92052 20.5139 8.36089 21.7557 6.19548 21.7557C4.55585 21.7557 3.52116 21.0234 3.52116 19.4953C3.52116 17.951 4.41271 15.0377 7.69187 15.0377C9.37932 15.0377 10.3982 15.7542 11.1941 16.6928L11.6239 14.4163C11.2578 13.8115 10.1594 12.8086 7.53258 12.8086C2.21552 12.8086 0.958008 17.4573 0.958008 19.6856C0.95811 22.1054 2.42273 23.984 5.78159 23.984ZM16.6702 24C20.1567 24 21.5096 22.0895 21.9236 19.67L23.1017 13.0156H20.6025L19.4724 19.5265C19.2336 20.9593 18.3741 21.7712 16.989 21.7712C15.7154 21.7712 15.0784 21.3414 15.0784 20.3863C15.078 20.1566 15.0993 19.9274 15.142 19.7017L16.3202 13.0155H13.8208L12.6905 19.4946C12.6219 19.873 12.5847 20.2563 12.5791 20.6408C12.5791 22.5192 13.6298 23.9998 16.6704 23.9998L16.6702 24ZM26.2058 23.7772L26.7033 20.9326L25.6178 20.2276H29.1669C32.8919 20.2276 34.2293 18.2696 34.2293 16.0885C34.2293 14.0827 32.8284 13.0161 30.775 13.0161H25.6171L23.7227 23.7772H26.2061H26.2058ZM27.2247 18.0143L27.7181 15.2284H29.9788C30.9339 15.2284 31.6822 15.2443 31.6822 16.2473C31.6822 17.282 31.0931 18.0143 29.3425 18.0143H27.2253H27.2247Z" fill="white"/>
    <path d="M35.6816 23.7777H44.3189L44.71 21.6185H37.9661C44.1312 20.1945 45.5393 18.4103 45.5393 15.8914C45.5393 14.0608 44.1312 12.981 41.6275 12.981C39.1866 12.981 37.9974 13.9668 37.3874 14.624L36.9492 17.4561C37.7629 16.4392 39.1242 15.156 41.2523 15.156C42.4101 15.156 43.13 15.5159 43.13 16.1731C43.13 17.1588 42.1442 18.8018 36.2453 20.1944L35.6816 23.7777ZM50.8752 23.9498C54.8808 23.9498 56.6961 20.2104 56.6961 17.0807C56.6961 14.4988 55.1783 12.9968 52.5182 12.9968C48.4813 12.9968 46.6974 16.7521 46.6974 19.8659C46.6972 22.4321 48.1996 23.9498 50.8754 23.9498H50.8752ZM50.9377 21.8217C49.7954 21.8217 49.1701 21.1332 49.1701 19.8815C49.1701 18.2071 50.2028 15.1401 52.3934 15.1401C53.5515 15.1401 54.2084 15.8443 54.2084 17.112C54.2084 18.7864 53.1444 21.8221 50.9381 21.8221L50.9377 21.8217ZM57.2435 23.7777H65.8808L66.2718 21.6185H59.5279C65.6929 20.1945 67.1011 18.4103 67.1011 15.8914C67.1011 14.0608 65.6929 12.981 63.1893 12.981C60.7485 12.981 59.5593 13.9668 58.9492 14.624L58.511 17.4561C59.3248 16.4392 60.686 15.1561 62.8142 15.1561C63.972 15.1561 64.6918 15.516 64.6918 16.1732C64.6918 17.1589 63.7061 18.8019 57.8071 20.1945L57.2438 23.7777H57.2435ZM75.4727 23.7777L75.8482 21.6652H77.1939L77.5853 19.506H76.2396L77.3349 13.2002H74.9096L73.8141 19.506H69.3077C71.9523 18.3012 73.5011 17.0028 74.3463 13.2002H71.9993C71.217 15.9541 70.3563 17.2529 68.2126 18.1291L67.6024 21.6655H73.4232L73.0477 23.778H75.4732L75.4727 23.7777Z" fill="#FF3B63"/>
</svg>
